<?xml version="1.0" encoding="UTF-8" standalone="no"?>
<!DOCTYPE svg PUBLIC "-//W3C//DTD SVG 1.1//EN"
 "http://www.w3.org/Graphics/SVG/1.1/DTD/svg11.dtd">
<!-- Generated by graphviz version 3.0.0 (20220413.0242)
 -->
<!-- Title: hal::i2c::transaction Pages: 1 -->
<svg width="385pt" height="180pt"
 viewBox="0.00 0.00 385.00 180.00" xmlns="http://www.w3.org/2000/svg" xmlns:xlink="http://www.w3.org/1999/xlink">
<g id="graph0" class="graph" transform="scale(1 1) rotate(0) translate(4 176)">
<title>hal::i2c::transaction</title>
<polygon fill="white" stroke="transparent" points="-4,4 -4,-176 381,-176 381,4 -4,4"/>
<!-- Node1 -->
<g id="node1" class="node">
<title>Node1</title>
<g id="a_node1"><a xlink:title="perform an i2c transaction with another device on the bus. The type of transaction depends on values ...">
<polygon fill="#bfbfbf" stroke="black" points="278,-95.5 278,-114.5 377,-114.5 377,-95.5 278,-95.5"/>
<text text-anchor="middle" x="327.5" y="-102.5" font-family="Helvetica,sans-Serif" font-size="10.00">hal::i2c::transaction</text>
</a>
</g>
</g>
<!-- Node2 -->
<g id="node2" class="node">
<title>Node2</title>
<g id="a_node2"><a xlink:href="group__i2c.html#gad1ce95a0f68875e29428e13cc53c3387" target="_top" xlink:title="probe the i2c bus to see if a device exists">
<polygon fill="white" stroke="black" points="161.5,-152.5 161.5,-171.5 219.5,-171.5 219.5,-152.5 161.5,-152.5"/>
<text text-anchor="middle" x="190.5" y="-159.5" font-family="Helvetica,sans-Serif" font-size="10.00">hal::probe</text>
</a>
</g>
</g>
<!-- Node1&#45;&gt;Node2 -->
<g id="edge1" class="edge">
<title>Node1&#45;&gt;Node2</title>
<path fill="none" stroke="midnightblue" d="M296.74,-118.93C280.64,-126.33 260.35,-135.43 242,-143 234.21,-146.21 225.65,-149.52 217.83,-152.45"/>
<polygon fill="midnightblue" stroke="midnightblue" points="298.56,-121.95 306.17,-114.58 295.62,-115.59 298.56,-121.95"/>
</g>
<!-- Node3 -->
<g id="node3" class="node">
<title>Node3</title>
<g id="a_node3"><a xlink:href="group__i2c.html#ga00694e558039dbf0a2e4f2a438754e10" target="_top" xlink:title="read bytes from target device on i2c bus">
<polygon fill="white" stroke="black" points="164,-114.5 164,-133.5 217,-133.5 217,-114.5 164,-114.5"/>
<text text-anchor="middle" x="190.5" y="-121.5" font-family="Helvetica,sans-Serif" font-size="10.00">hal::read</text>
</a>
</g>
</g>
<!-- Node1&#45;&gt;Node3 -->
<g id="edge2" class="edge">
<title>Node1&#45;&gt;Node3</title>
<path fill="none" stroke="midnightblue" d="M267.48,-113.31C249.81,-115.79 231.35,-118.39 217.05,-120.4"/>
<polygon fill="midnightblue" stroke="midnightblue" points="268.35,-116.72 277.76,-111.86 267.37,-109.79 268.35,-116.72"/>
</g>
<!-- Node6 -->
<g id="node6" class="node">
<title>Node6</title>
<g id="a_node6"><a xlink:href="group__i2c.html#ga602272331e4e2f84843e2fe34e83cca6" target="_top" xlink:title="write data to a target device on the i2c bus">
<polygon fill="white" stroke="black" points="163,-76.5 163,-95.5 218,-95.5 218,-76.5 163,-76.5"/>
<text text-anchor="middle" x="190.5" y="-83.5" font-family="Helvetica,sans-Serif" font-size="10.00">hal::write</text>
</a>
</g>
</g>
<!-- Node1&#45;&gt;Node6 -->
<g id="edge5" class="edge">
<title>Node1&#45;&gt;Node6</title>
<path fill="none" stroke="midnightblue" d="M267.71,-96.73C250.44,-94.3 232.39,-91.75 218.19,-89.76"/>
<polygon fill="midnightblue" stroke="midnightblue" points="267.37,-100.21 277.76,-98.14 268.35,-93.28 267.37,-100.21"/>
</g>
<!-- Node9 -->
<g id="node9" class="node">
<title>Node9</title>
<g id="a_node9"><a xlink:href="group__i2c.html#gadccf0a18afda016d4d6a05165bc0b0ab" target="_top" xlink:title="write and then read bytes from target device on i2c bus">
<polygon fill="white" stroke="black" points="139,-19.5 139,-38.5 242,-38.5 242,-19.5 139,-19.5"/>
<text text-anchor="middle" x="190.5" y="-26.5" font-family="Helvetica,sans-Serif" font-size="10.00">hal::write_then_read</text>
</a>
</g>
</g>
<!-- Node1&#45;&gt;Node9 -->
<g id="edge8" class="edge">
<title>Node1&#45;&gt;Node9</title>
<path fill="none" stroke="midnightblue" d="M300.47,-90.35C273.34,-75.07 231.61,-51.58 208.46,-38.55"/>
<polygon fill="midnightblue" stroke="midnightblue" points="298.97,-93.52 309.4,-95.37 302.41,-87.42 298.97,-93.52"/>
</g>
<!-- Node4 -->
<g id="node4" class="node">
<title>Node4</title>
<g id="a_node4"><a xlink:href="group__i2c.html#gafaee8290b9ba7d512d6f8a724e99d06c" target="_top" xlink:title="return array of read bytes from target device on i2c bus">
<polygon fill="white" stroke="black" points="25,-152.5 25,-171.5 78,-171.5 78,-152.5 25,-152.5"/>
<text text-anchor="middle" x="51.5" y="-159.5" font-family="Helvetica,sans-Serif" font-size="10.00">hal::read</text>
</a>
</g>
</g>
<!-- Node3&#45;&gt;Node4 -->
<g id="edge3" class="edge">
<title>Node3&#45;&gt;Node4</title>
<path fill="none" stroke="midnightblue" d="M154.02,-133.84C130.27,-140.43 99.55,-148.95 78.15,-154.88"/>
<polygon fill="midnightblue" stroke="midnightblue" points="155.03,-137.19 163.73,-131.15 153.16,-130.45 155.03,-137.19"/>
</g>
<!-- Node5 -->
<g id="node5" class="node">
<title>Node5</title>
<g id="a_node5"><a xlink:href="group__serial.html#ga2d9abf5cca98ceab03b2bcae88c8231a" target="_top" xlink:title="Perform a write then read transaction over serial.">
<polygon fill="white" stroke="black" points="0,-114.5 0,-133.5 103,-133.5 103,-114.5 0,-114.5"/>
<text text-anchor="middle" x="51.5" y="-121.5" font-family="Helvetica,sans-Serif" font-size="10.00">hal::write_then_read</text>
</a>
</g>
</g>
<!-- Node3&#45;&gt;Node5 -->
<g id="edge4" class="edge">
<title>Node3&#45;&gt;Node5</title>
<path fill="none" stroke="midnightblue" d="M153.57,-124C138.16,-124 119.88,-124 103.13,-124"/>
<polygon fill="midnightblue" stroke="midnightblue" points="153.73,-127.5 163.73,-124 153.73,-120.5 153.73,-127.5"/>
</g>
<!-- Node7 -->
<g id="node7" class="node">
<title>Node7</title>
<g id="a_node7"><a xlink:href="group__serial.html#ga2952837cd8d503a962e7edf748737925" target="_top" xlink:title="Write std::span of const char to a serial port.">
<polygon fill="white" stroke="black" points="24,-76.5 24,-95.5 79,-95.5 79,-76.5 24,-76.5"/>
<text text-anchor="middle" x="51.5" y="-83.5" font-family="Helvetica,sans-Serif" font-size="10.00">hal::write</text>
</a>
</g>
</g>
<!-- Node6&#45;&gt;Node7 -->
<g id="edge6" class="edge">
<title>Node6&#45;&gt;Node7</title>
<path fill="none" stroke="midnightblue" d="M152.6,-86C129.43,-86 100.09,-86 79.17,-86"/>
<polygon fill="midnightblue" stroke="midnightblue" points="152.76,-89.5 162.76,-86 152.76,-82.5 152.76,-89.5"/>
</g>
<!-- Node8 -->
<g id="node8" class="node">
<title>Node8</title>
<g id="a_node8"><a xlink:href="group__spi.html#ga0304f6c421db748182386f3dc4547916" target="_top" xlink:title="Write data to the SPI bus and ignore data sent from peripherals on the bus then read data from the SP...">
<polygon fill="white" stroke="black" points="0,-38.5 0,-57.5 103,-57.5 103,-38.5 0,-38.5"/>
<text text-anchor="middle" x="51.5" y="-45.5" font-family="Helvetica,sans-Serif" font-size="10.00">hal::write_then_read</text>
</a>
</g>
</g>
<!-- Node6&#45;&gt;Node8 -->
<g id="edge7" class="edge">
<title>Node6&#45;&gt;Node8</title>
<path fill="none" stroke="midnightblue" d="M152.86,-75.84C132.4,-70.16 107.07,-63.14 86.98,-57.56"/>
<polygon fill="midnightblue" stroke="midnightblue" points="152.19,-79.28 162.76,-78.58 154.06,-72.54 152.19,-79.28"/>
</g>
<!-- Node10 -->
<g id="node10" class="node">
<title>Node10</title>
<g id="a_node10"><a xlink:href="group__i2c.html#ga3dd61760afda4a75284d67f433a2fa50" target="_top" xlink:title="write and then return an array of read bytes from target device on i2c bus">
<polygon fill="white" stroke="black" points="0,-0.5 0,-19.5 103,-19.5 103,-0.5 0,-0.5"/>
<text text-anchor="middle" x="51.5" y="-7.5" font-family="Helvetica,sans-Serif" font-size="10.00">hal::write_then_read</text>
</a>
</g>
</g>
<!-- Node9&#45;&gt;Node10 -->
<g id="edge9" class="edge">
<title>Node9&#45;&gt;Node10</title>
<path fill="none" stroke="midnightblue" d="M128.96,-20.6C120.42,-19.42 111.71,-18.21 103.37,-17.06"/>
<polygon fill="midnightblue" stroke="midnightblue" points="128.49,-24.07 138.88,-21.98 129.45,-17.14 128.49,-24.07"/>
</g>
</g>
</svg>
