<?xml version="1.0" encoding="UTF-8" standalone="no"?>
<!DOCTYPE svg PUBLIC "-//W3C//DTD SVG 1.1//EN"
 "http://www.w3.org/Graphics/SVG/1.1/DTD/svg11.dtd">
<!-- Generated by graphviz version 3.0.0 (20220413.0242)
 -->
<!-- Title: hal::percentage_t&lt; float_t &gt; Pages: 1 -->
<svg width="104pt" height="128pt"
 viewBox="0.00 0.00 104.00 128.00" xmlns="http://www.w3.org/2000/svg" xmlns:xlink="http://www.w3.org/1999/xlink">
<g id="graph0" class="graph" transform="scale(1 1) rotate(0) translate(4 124)">
<title>hal::percentage_t&lt; float_t &gt;</title>
<polygon fill="white" stroke="transparent" points="-4,4 -4,-124 100,-124 100,4 -4,4"/>
<!-- Node1 -->
<g id="node1" class="node">
<title>Node1</title>
<g id="a_node1"><a xlink:title="A type representing a percentage value.">
<polygon fill="#bfbfbf" stroke="black" points="0,-0.5 0,-30.5 96,-30.5 96,-0.5 0,-0.5"/>
<text text-anchor="start" x="8" y="-18.5" font-family="Helvetica,sans-Serif" font-size="10.00">hal::percentage_t&lt;</text>
<text text-anchor="middle" x="48" y="-7.5" font-family="Helvetica,sans-Serif" font-size="10.00"> float_t &gt;</text>
</a>
</g>
</g>
<!-- Node2 -->
<g id="node2" class="node">
<title>Node2</title>
<g id="a_node2"><a xlink:title=" ">
<polygon fill="white" stroke="black" points="26.5,-100.5 26.5,-119.5 69.5,-119.5 69.5,-100.5 26.5,-100.5"/>
<text text-anchor="middle" x="48" y="-107.5" font-family="Helvetica,sans-Serif" font-size="10.00">float_t</text>
</a>
</g>
</g>
<!-- Node2&#45;&gt;Node1 -->
<g id="edge1" class="edge">
<title>Node2&#45;&gt;Node1</title>
<path fill="none" stroke="#9a32cd" stroke-dasharray="5,2" d="M48,-90.29C48,-72.67 48,-46.67 48,-30.7"/>
<polygon fill="#9a32cd" stroke="#9a32cd" points="44.5,-90.46 48,-100.46 51.5,-90.46 44.5,-90.46"/>
<text text-anchor="middle" x="58.5" y="-74" font-family="Helvetica,sans-Serif" font-size="10.00"> max</text>
<text text-anchor="middle" x="58.5" y="-63" font-family="Helvetica,sans-Serif" font-size="10.00">min</text>
<text text-anchor="middle" x="58.5" y="-52" font-family="Helvetica,sans-Serif" font-size="10.00">zero</text>
</g>
</g>
</svg>
