<?xml version="1.0" encoding="UTF-8" standalone="no"?>
<!DOCTYPE svg PUBLIC "-//W3C//DTD SVG 1.1//EN"
 "http://www.w3.org/Graphics/SVG/1.1/DTD/svg11.dtd">
<!-- Generated by graphviz version 3.0.0 (20220413.0242)
 -->
<!-- Title: hal::steady_clock::uptime Pages: 1 -->
<svg width="493pt" height="101pt"
 viewBox="0.00 0.00 493.00 100.50" xmlns="http://www.w3.org/2000/svg" xmlns:xlink="http://www.w3.org/1999/xlink">
<g id="graph0" class="graph" transform="scale(1 1) rotate(0) translate(4 96.5)">
<title>hal::steady_clock::uptime</title>
<polygon fill="white" stroke="transparent" points="-4,4 -4,-96.5 489,-96.5 489,4 -4,4"/>
<!-- Node1 -->
<g id="node1" class="node">
<title>Node1</title>
<g id="a_node1"><a xlink:title=" ">
<polygon fill="#bfbfbf" stroke="black" points="390,-24.5 390,-54.5 485,-54.5 485,-24.5 390,-24.5"/>
<text text-anchor="start" x="398" y="-42.5" font-family="Helvetica,sans-Serif" font-size="10.00">hal::steady_clock::</text>
<text text-anchor="middle" x="437.5" y="-31.5" font-family="Helvetica,sans-Serif" font-size="10.00">uptime</text>
</a>
</g>
</g>
<!-- Node2 -->
<g id="node2" class="node">
<title>Node2</title>
<g id="a_node2"><a xlink:href="classhal_1_1steady__clock__timeout.html#a99c29478d0ba4dbe114bb644ae060398" target="_top" xlink:title="Create a steady_clock_timeout.">
<polygon fill="white" stroke="black" points="226,-49.5 226,-79.5 354,-79.5 354,-49.5 226,-49.5"/>
<text text-anchor="start" x="234" y="-67.5" font-family="Helvetica,sans-Serif" font-size="10.00">hal::steady_clock_timeout</text>
<text text-anchor="middle" x="290" y="-56.5" font-family="Helvetica,sans-Serif" font-size="10.00">::create</text>
</a>
</g>
</g>
<!-- Node1&#45;&gt;Node2 -->
<g id="edge1" class="edge">
<title>Node1&#45;&gt;Node2</title>
<path fill="none" stroke="midnightblue" d="M379.66,-49.27C371.31,-50.7 362.66,-52.19 354.2,-53.64"/>
<polygon fill="midnightblue" stroke="midnightblue" points="380.4,-52.69 389.66,-47.55 379.21,-45.79 380.4,-52.69"/>
</g>
<!-- Node5 -->
<g id="node5" class="node">
<title>Node5</title>
<g id="a_node5"><a xlink:href="classhal_1_1steady__clock__timeout.html#a32ed45d3e33492a6c5c9370edf97ac1d" target="_top" xlink:title="Call this object to check if it has timed out.">
<polygon fill="white" stroke="black" points="226,-0.5 226,-30.5 354,-30.5 354,-0.5 226,-0.5"/>
<text text-anchor="start" x="234" y="-18.5" font-family="Helvetica,sans-Serif" font-size="10.00">hal::steady_clock_timeout</text>
<text text-anchor="middle" x="290" y="-7.5" font-family="Helvetica,sans-Serif" font-size="10.00">::operator()</text>
</a>
</g>
</g>
<!-- Node1&#45;&gt;Node5 -->
<g id="edge5" class="edge">
<title>Node1&#45;&gt;Node5</title>
<path fill="none" stroke="midnightblue" d="M379.66,-30.12C371.31,-28.75 362.66,-27.32 354.2,-25.92"/>
<polygon fill="midnightblue" stroke="midnightblue" points="379.23,-33.6 389.66,-31.77 380.36,-26.69 379.23,-33.6"/>
</g>
<!-- Node3 -->
<g id="node3" class="node">
<title>Node3</title>
<g id="a_node3"><a xlink:href="group__steady__clock.html#ga8c92db3eb5ae3b8e67f16261a6f71d91" target="_top" xlink:title="Create a timeout object based on hal::steady_clock.">
<polygon fill="white" stroke="black" points="92,-55 92,-74 190,-74 190,-55 92,-55"/>
<text text-anchor="middle" x="141" y="-62" font-family="Helvetica,sans-Serif" font-size="10.00">hal::create_timeout</text>
</a>
</g>
</g>
<!-- Node2&#45;&gt;Node3 -->
<g id="edge2" class="edge">
<title>Node2&#45;&gt;Node3</title>
<path fill="none" stroke="midnightblue" d="M215.64,-64.5C206.95,-64.5 198.25,-64.5 190.04,-64.5"/>
<polygon fill="midnightblue" stroke="midnightblue" points="215.81,-68 225.81,-64.5 215.81,-61 215.81,-68"/>
</g>
<!-- Node4 -->
<g id="node4" class="node">
<title>Node4</title>
<g id="a_node4"><a xlink:href="group__steady__clock.html#ga80cd2610c280e615d52e03d83dad28f6" target="_top" xlink:title="Delay execution for a duration of time using a hardware steady_clock.">
<polygon fill="white" stroke="black" points="0,-55 0,-74 56,-74 56,-55 0,-55"/>
<text text-anchor="middle" x="28" y="-62" font-family="Helvetica,sans-Serif" font-size="10.00">hal::delay</text>
</a>
</g>
</g>
<!-- Node3&#45;&gt;Node4 -->
<g id="edge3" class="edge">
<title>Node3&#45;&gt;Node4</title>
<path fill="none" stroke="midnightblue" d="M81.8,-64.5C72.8,-64.5 63.89,-64.5 56.03,-64.5"/>
<polygon fill="midnightblue" stroke="midnightblue" points="81.96,-68 91.96,-64.5 81.96,-61 81.96,-68"/>
</g>
<!-- Node4&#45;&gt;Node4 -->
<g id="edge4" class="edge">
<title>Node4&#45;&gt;Node4</title>
<path fill="none" stroke="midnightblue" d="M48.74,-83.9C47.35,-88.81 40.44,-92.5 28,-92.5 8.09,-92.5 2.34,-83.07 10.74,-74.26"/>
<polygon fill="midnightblue" stroke="midnightblue" points="51.95,-82.48 45.26,-74.26 45.36,-84.85 51.95,-82.48"/>
</g>
</g>
</svg>
