<?xml version="1.0" encoding="UTF-8" standalone="no"?>
<!DOCTYPE svg PUBLIC "-//W3C//DTD SVG 1.1//EN"
 "http://www.w3.org/Graphics/SVG/1.1/DTD/svg11.dtd">
<!-- Generated by graphviz version 3.0.0 (20220413.0242)
 -->
<!-- Title: hal::steady_clock_timeout::operator() Pages: 1 -->
<svg width="267pt" height="134pt"
 viewBox="0.00 0.00 267.00 133.50" xmlns="http://www.w3.org/2000/svg" xmlns:xlink="http://www.w3.org/1999/xlink">
<g id="graph0" class="graph" transform="scale(1 1) rotate(0) translate(4 129.5)">
<title>hal::steady_clock_timeout::operator()</title>
<polygon fill="white" stroke="transparent" points="-4,4 -4,-129.5 263,-129.5 263,4 -4,4"/>
<!-- Node1 -->
<g id="node1" class="node">
<title>Node1</title>
<g id="a_node1"><a xlink:title="Call this object to check if it has timed out.">
<polygon fill="#bfbfbf" stroke="black" points="0,-44.5 0,-74.5 128,-74.5 128,-44.5 0,-44.5"/>
<text text-anchor="start" x="8" y="-62.5" font-family="Helvetica,sans-Serif" font-size="10.00">hal::steady_clock_timeout</text>
<text text-anchor="middle" x="64" y="-51.5" font-family="Helvetica,sans-Serif" font-size="10.00">::operator()</text>
</a>
</g>
</g>
<!-- Node2 -->
<g id="node2" class="node">
<title>Node2</title>
<g id="a_node2"><a xlink:href="namespacehal.html#a09499a696428213091b196699563099f" target="_top" xlink:title=" ">
<polygon fill="white" stroke="black" points="173,-88 173,-107 250,-107 250,-88 173,-88"/>
<text text-anchor="middle" x="211.5" y="-95" font-family="Helvetica,sans-Serif" font-size="10.00">hal::new_error</text>
</a>
</g>
</g>
<!-- Node1&#45;&gt;Node2 -->
<g id="edge1" class="edge">
<title>Node1&#45;&gt;Node2</title>
<path fill="none" stroke="midnightblue" d="M122.51,-74.52C136.3,-78.12 150.87,-81.93 164.09,-85.38"/>
<polygon fill="midnightblue" stroke="midnightblue" points="163.35,-88.8 173.91,-87.94 165.12,-82.03 163.35,-88.8"/>
</g>
<!-- Node3 -->
<g id="node3" class="node">
<title>Node3</title>
<g id="a_node3"><a xlink:href="namespacehal.html#a557593a710d85719fff67b743268293a" target="_top" xlink:title="a readability function for returning successful results;">
<polygon fill="white" stroke="black" points="176,-50 176,-69 247,-69 247,-50 176,-50"/>
<text text-anchor="middle" x="211.5" y="-57" font-family="Helvetica,sans-Serif" font-size="10.00">hal::success</text>
</a>
</g>
</g>
<!-- Node1&#45;&gt;Node3 -->
<g id="edge3" class="edge">
<title>Node1&#45;&gt;Node3</title>
<path fill="none" stroke="midnightblue" d="M128.4,-59.5C140.95,-59.5 153.89,-59.5 165.67,-59.5"/>
<polygon fill="midnightblue" stroke="midnightblue" points="165.69,-63 175.69,-59.5 165.69,-56 165.69,-63"/>
</g>
<!-- Node4 -->
<g id="node4" class="node">
<title>Node4</title>
<g id="a_node4"><a xlink:href="classhal_1_1steady__clock.html#acfb741df8313f6b67b9cbe5b425014b4" target="_top" xlink:title=" ">
<polygon fill="white" stroke="black" points="164,-0.5 164,-30.5 259,-30.5 259,-0.5 164,-0.5"/>
<text text-anchor="start" x="172" y="-18.5" font-family="Helvetica,sans-Serif" font-size="10.00">hal::steady_clock::</text>
<text text-anchor="middle" x="211.5" y="-7.5" font-family="Helvetica,sans-Serif" font-size="10.00">uptime</text>
</a>
</g>
</g>
<!-- Node1&#45;&gt;Node4 -->
<g id="edge4" class="edge">
<title>Node1&#45;&gt;Node4</title>
<path fill="none" stroke="midnightblue" d="M114.67,-44.48C127.39,-40.63 141.17,-36.47 154.21,-32.52"/>
<polygon fill="midnightblue" stroke="midnightblue" points="155.44,-35.81 164,-29.56 153.41,-29.11 155.44,-35.81"/>
</g>
<!-- Node2&#45;&gt;Node2 -->
<g id="edge2" class="edge">
<title>Node2&#45;&gt;Node2</title>
<path fill="none" stroke="midnightblue" d="M189,-107.26C178.05,-116.07 185.55,-125.5 211.5,-125.5 228.53,-125.5 237.61,-121.44 238.75,-116.15"/>
<polygon fill="midnightblue" stroke="midnightblue" points="241.8,-114.43 234,-107.26 235.62,-117.73 241.8,-114.43"/>
</g>
</g>
</svg>
