<?xml version="1.0" encoding="UTF-8" standalone="no"?>
<!DOCTYPE svg PUBLIC "-//W3C//DTD SVG 1.1//EN"
 "http://www.w3.org/Graphics/SVG/1.1/DTD/svg11.dtd">
<!-- Generated by graphviz version 3.0.0 (20220413.0242)
 -->
<!-- Title: hal::static_list::~static_list Pages: 1 -->
<svg width="228pt" height="66pt"
 viewBox="0.00 0.00 228.00 66.00" xmlns="http://www.w3.org/2000/svg" xmlns:xlink="http://www.w3.org/1999/xlink">
<g id="graph0" class="graph" transform="scale(1 1) rotate(0) translate(4 62)">
<title>hal::static_list::~static_list</title>
<polygon fill="white" stroke="transparent" points="-4,4 -4,-62 224,-62 224,4 -4,4"/>
<!-- Node1 -->
<g id="node1" class="node">
<title>Node1</title>
<g id="a_node1"><a xlink:title=" ">
<polygon fill="#bfbfbf" stroke="black" points="0,-14 0,-44 80,-44 80,-14 0,-14"/>
<text text-anchor="start" x="8" y="-32" font-family="Helvetica,sans-Serif" font-size="10.00">hal::static_list::</text>
<text text-anchor="middle" x="40" y="-21" font-family="Helvetica,sans-Serif" font-size="10.00">~static_list</text>
</a>
</g>
</g>
<!-- Node2 -->
<g id="node2" class="node">
<title>Node2</title>
<g id="a_node2"><a xlink:href="classhal_1_1static__list.html#ab0d5de035bb39799b89ef72c0c11204e" target="_top" xlink:title=" ">
<polygon fill="white" stroke="black" points="116,-38.5 116,-57.5 220,-57.5 220,-38.5 116,-38.5"/>
<text text-anchor="middle" x="168" y="-45.5" font-family="Helvetica,sans-Serif" font-size="10.00">hal::static_list::begin</text>
</a>
</g>
</g>
<!-- Node1&#45;&gt;Node2 -->
<g id="edge1" class="edge">
<title>Node1&#45;&gt;Node2</title>
<path fill="none" stroke="midnightblue" d="M80.18,-34.91C88.28,-36.13 96.99,-37.44 105.67,-38.75"/>
<polygon fill="midnightblue" stroke="midnightblue" points="105.38,-42.25 115.79,-40.28 106.42,-35.33 105.38,-42.25"/>
</g>
<!-- Node3 -->
<g id="node3" class="node">
<title>Node3</title>
<g id="a_node3"><a xlink:href="classhal_1_1static__list.html#a0667719d0814a9a4b5d918e267bc234c" target="_top" xlink:title=" ">
<polygon fill="white" stroke="black" points="120,-0.5 120,-19.5 216,-19.5 216,-0.5 120,-0.5"/>
<text text-anchor="middle" x="168" y="-7.5" font-family="Helvetica,sans-Serif" font-size="10.00">hal::static_list::end</text>
</a>
</g>
</g>
<!-- Node1&#45;&gt;Node3 -->
<g id="edge2" class="edge">
<title>Node1&#45;&gt;Node3</title>
<path fill="none" stroke="midnightblue" d="M80.18,-23.09C89.6,-21.67 99.87,-20.12 109.93,-18.61"/>
<polygon fill="midnightblue" stroke="midnightblue" points="110.51,-22.06 119.88,-17.11 109.47,-15.14 110.51,-22.06"/>
</g>
</g>
</svg>
