<?xml version="1.0" encoding="UTF-8" standalone="no"?>
<!DOCTYPE svg PUBLIC "-//W3C//DTD SVG 1.1//EN"
 "http://www.w3.org/Graphics/SVG/1.1/DTD/svg11.dtd">
<!-- Generated by graphviz version 3.0.0 (20220413.0242)
 -->
<!-- Title: hal::i2c::transaction Pages: 1 -->
<svg width="385pt" height="142pt"
 viewBox="0.00 0.00 385.00 142.00" xmlns="http://www.w3.org/2000/svg" xmlns:xlink="http://www.w3.org/1999/xlink">
<g id="graph0" class="graph" transform="scale(1 1) rotate(0) translate(4 138)">
<title>hal::i2c::transaction</title>
<polygon fill="white" stroke="transparent" points="-4,4 -4,-138 381,-138 381,4 -4,4"/>
<!-- Node1 -->
<g id="node1" class="node">
<title>Node1</title>
<g id="a_node1"><a xlink:title="perform an i2c transaction with another device on the bus. The type of transaction depends on values ...">
<polygon fill="#bfbfbf" stroke="black" points="278,-57.5 278,-76.5 377,-76.5 377,-57.5 278,-57.5"/>
<text text-anchor="middle" x="327.5" y="-64.5" font-family="Helvetica,sans-Serif" font-size="10.00">hal::i2c::transaction</text>
</a>
</g>
</g>
<!-- Node2 -->
<g id="node2" class="node">
<title>Node2</title>
<g id="a_node2"><a xlink:href="group__i2c.html#gad1ce95a0f68875e29428e13cc53c3387" target="_top" xlink:title="probe the i2c bus to see if a device exists">
<polygon fill="white" stroke="black" points="161.5,-114.5 161.5,-133.5 219.5,-133.5 219.5,-114.5 161.5,-114.5"/>
<text text-anchor="middle" x="190.5" y="-121.5" font-family="Helvetica,sans-Serif" font-size="10.00">hal::probe</text>
</a>
</g>
</g>
<!-- Node1&#45;&gt;Node2 -->
<g id="edge1" class="edge">
<title>Node1&#45;&gt;Node2</title>
<path fill="none" stroke="midnightblue" d="M296.74,-80.93C280.64,-88.33 260.35,-97.43 242,-105 234.21,-108.21 225.65,-111.52 217.83,-114.45"/>
<polygon fill="midnightblue" stroke="midnightblue" points="298.56,-83.95 306.17,-76.58 295.62,-77.59 298.56,-83.95"/>
</g>
<!-- Node3 -->
<g id="node3" class="node">
<title>Node3</title>
<g id="a_node3"><a xlink:href="group__i2c.html#ga00694e558039dbf0a2e4f2a438754e10" target="_top" xlink:title="read bytes from target device on i2c bus">
<polygon fill="white" stroke="black" points="164,-76.5 164,-95.5 217,-95.5 217,-76.5 164,-76.5"/>
<text text-anchor="middle" x="190.5" y="-83.5" font-family="Helvetica,sans-Serif" font-size="10.00">hal::read</text>
</a>
</g>
</g>
<!-- Node1&#45;&gt;Node3 -->
<g id="edge2" class="edge">
<title>Node1&#45;&gt;Node3</title>
<path fill="none" stroke="midnightblue" d="M267.48,-75.31C249.81,-77.79 231.35,-80.39 217.05,-82.4"/>
<polygon fill="midnightblue" stroke="midnightblue" points="268.35,-78.72 277.76,-73.86 267.37,-71.79 268.35,-78.72"/>
</g>
<!-- Node6 -->
<g id="node6" class="node">
<title>Node6</title>
<g id="a_node6"><a xlink:href="group__i2c.html#ga602272331e4e2f84843e2fe34e83cca6" target="_top" xlink:title="write data to a target device on the i2c bus">
<polygon fill="white" stroke="black" points="163,-38.5 163,-57.5 218,-57.5 218,-38.5 163,-38.5"/>
<text text-anchor="middle" x="190.5" y="-45.5" font-family="Helvetica,sans-Serif" font-size="10.00">hal::write</text>
</a>
</g>
</g>
<!-- Node1&#45;&gt;Node6 -->
<g id="edge5" class="edge">
<title>Node1&#45;&gt;Node6</title>
<path fill="none" stroke="midnightblue" d="M267.71,-58.73C250.44,-56.3 232.39,-53.75 218.19,-51.76"/>
<polygon fill="midnightblue" stroke="midnightblue" points="267.37,-62.21 277.76,-60.14 268.35,-55.28 267.37,-62.21"/>
</g>
<!-- Node8 -->
<g id="node8" class="node">
<title>Node8</title>
<g id="a_node8"><a xlink:href="group__i2c.html#gadccf0a18afda016d4d6a05165bc0b0ab" target="_top" xlink:title="write and then read bytes from target device on i2c bus">
<polygon fill="white" stroke="black" points="139,-0.5 139,-19.5 242,-19.5 242,-0.5 139,-0.5"/>
<text text-anchor="middle" x="190.5" y="-7.5" font-family="Helvetica,sans-Serif" font-size="10.00">hal::write_then_read</text>
</a>
</g>
</g>
<!-- Node1&#45;&gt;Node8 -->
<g id="edge7" class="edge">
<title>Node1&#45;&gt;Node8</title>
<path fill="none" stroke="midnightblue" d="M296.74,-53.07C280.64,-45.67 260.35,-36.57 242,-29 234.21,-25.79 225.65,-22.48 217.83,-19.55"/>
<polygon fill="midnightblue" stroke="midnightblue" points="295.62,-56.41 306.17,-57.42 298.56,-50.05 295.62,-56.41"/>
</g>
<!-- Node4 -->
<g id="node4" class="node">
<title>Node4</title>
<g id="a_node4"><a xlink:href="group__i2c.html#gafaee8290b9ba7d512d6f8a724e99d06c" target="_top" xlink:title="return array of read bytes from target device on i2c bus">
<polygon fill="white" stroke="black" points="25,-114.5 25,-133.5 78,-133.5 78,-114.5 25,-114.5"/>
<text text-anchor="middle" x="51.5" y="-121.5" font-family="Helvetica,sans-Serif" font-size="10.00">hal::read</text>
</a>
</g>
</g>
<!-- Node3&#45;&gt;Node4 -->
<g id="edge3" class="edge">
<title>Node3&#45;&gt;Node4</title>
<path fill="none" stroke="midnightblue" d="M154.02,-95.84C130.27,-102.43 99.55,-110.95 78.15,-116.88"/>
<polygon fill="midnightblue" stroke="midnightblue" points="155.03,-99.19 163.73,-93.15 153.16,-92.45 155.03,-99.19"/>
</g>
<!-- Node5 -->
<g id="node5" class="node">
<title>Node5</title>
<g id="a_node5"><a xlink:href="group__serial.html#ga2d9abf5cca98ceab03b2bcae88c8231a" target="_top" xlink:title="Perform a write then read transaction over serial.">
<polygon fill="white" stroke="black" points="0,-76.5 0,-95.5 103,-95.5 103,-76.5 0,-76.5"/>
<text text-anchor="middle" x="51.5" y="-83.5" font-family="Helvetica,sans-Serif" font-size="10.00">hal::write_then_read</text>
</a>
</g>
</g>
<!-- Node3&#45;&gt;Node5 -->
<g id="edge4" class="edge">
<title>Node3&#45;&gt;Node5</title>
<path fill="none" stroke="midnightblue" d="M153.57,-86C138.16,-86 119.88,-86 103.13,-86"/>
<polygon fill="midnightblue" stroke="midnightblue" points="153.73,-89.5 163.73,-86 153.73,-82.5 153.73,-89.5"/>
</g>
<!-- Node7 -->
<g id="node7" class="node">
<title>Node7</title>
<g id="a_node7"><a xlink:href="group__spi.html#ga0304f6c421db748182386f3dc4547916" target="_top" xlink:title="Write data to the SPI bus and ignore data sent from peripherals on the bus then read data from the SP...">
<polygon fill="white" stroke="black" points="0,-38.5 0,-57.5 103,-57.5 103,-38.5 0,-38.5"/>
<text text-anchor="middle" x="51.5" y="-45.5" font-family="Helvetica,sans-Serif" font-size="10.00">hal::write_then_read</text>
</a>
</g>
</g>
<!-- Node6&#45;&gt;Node7 -->
<g id="edge6" class="edge">
<title>Node6&#45;&gt;Node7</title>
<path fill="none" stroke="midnightblue" d="M152.68,-48C137.42,-48 119.48,-48 103.02,-48"/>
<polygon fill="midnightblue" stroke="midnightblue" points="152.76,-51.5 162.76,-48 152.76,-44.5 152.76,-51.5"/>
</g>
<!-- Node9 -->
<g id="node9" class="node">
<title>Node9</title>
<g id="a_node9"><a xlink:href="group__i2c.html#ga3dd61760afda4a75284d67f433a2fa50" target="_top" xlink:title="write and then return an array of read bytes from target device on i2c bus">
<polygon fill="white" stroke="black" points="0,-0.5 0,-19.5 103,-19.5 103,-0.5 0,-0.5"/>
<text text-anchor="middle" x="51.5" y="-7.5" font-family="Helvetica,sans-Serif" font-size="10.00">hal::write_then_read</text>
</a>
</g>
</g>
<!-- Node8&#45;&gt;Node9 -->
<g id="edge8" class="edge">
<title>Node8&#45;&gt;Node9</title>
<path fill="none" stroke="midnightblue" d="M128.68,-10C120.23,-10 111.62,-10 103.37,-10"/>
<polygon fill="midnightblue" stroke="midnightblue" points="128.88,-13.5 138.88,-10 128.88,-6.5 128.88,-13.5"/>
</g>
</g>
</svg>
