<?xml version="1.0" encoding="UTF-8" standalone="no"?>
<!DOCTYPE svg PUBLIC "-//W3C//DTD SVG 1.1//EN"
 "http://www.w3.org/Graphics/SVG/1.1/DTD/svg11.dtd">
<!-- Generated by graphviz version 3.0.0 (20220413.0242)
 -->
<!-- Title: hal::rc_servo::create Pages: 1 -->
<svg width="346pt" height="66pt"
 viewBox="0.00 0.00 346.00 66.00" xmlns="http://www.w3.org/2000/svg" xmlns:xlink="http://www.w3.org/1999/xlink">
<g id="graph0" class="graph" transform="scale(1 1) rotate(0) translate(4 62)">
<title>hal::rc_servo::create</title>
<polygon fill="white" stroke="transparent" points="-4,4 -4,-62 342,-62 342,4 -4,4"/>
<!-- Node1 -->
<g id="node1" class="node">
<title>Node1</title>
<g id="a_node1"><a xlink:title="Factory function to create a rc_servo object.">
<polygon fill="#bfbfbf" stroke="black" points="0,-19.5 0,-38.5 103,-38.5 103,-19.5 0,-19.5"/>
<text text-anchor="middle" x="51.5" y="-26.5" font-family="Helvetica,sans-Serif" font-size="10.00">hal::rc_servo::create</text>
</a>
</g>
</g>
<!-- Node2 -->
<g id="node2" class="node">
<title>Node2</title>
<g id="a_node2"><a xlink:href="classhal_1_1pwm.html#a64c8e392db6e0fd690f02d02566fbb55" target="_top" xlink:title="Set the pwm waveform frequency.">
<polygon fill="white" stroke="black" points="139,-38.5 139,-57.5 240,-57.5 240,-38.5 139,-38.5"/>
<text text-anchor="middle" x="189.5" y="-45.5" font-family="Helvetica,sans-Serif" font-size="10.00">hal::pwm::frequency</text>
</a>
</g>
</g>
<!-- Node1&#45;&gt;Node2 -->
<g id="edge1" class="edge">
<title>Node1&#45;&gt;Node2</title>
<path fill="none" stroke="midnightblue" d="M103.14,-36.07C111.5,-37.24 120.23,-38.46 128.79,-39.66"/>
<polygon fill="midnightblue" stroke="midnightblue" points="128.33,-43.13 138.72,-41.05 129.3,-36.2 128.33,-43.13"/>
</g>
<!-- Node3 -->
<g id="node3" class="node">
<title>Node3</title>
<g id="a_node3"><a xlink:href="group__utility.html#ga80ad6db29189e74fcb1a49dc801897b3" target="_top" xlink:title="Calculates and returns the wavelength in seconds.">
<polygon fill="white" stroke="black" points="148,-0.5 148,-19.5 231,-19.5 231,-0.5 148,-0.5"/>
<text text-anchor="middle" x="189.5" y="-7.5" font-family="Helvetica,sans-Serif" font-size="10.00">hal::wavelength</text>
</a>
</g>
</g>
<!-- Node1&#45;&gt;Node3 -->
<g id="edge2" class="edge">
<title>Node1&#45;&gt;Node3</title>
<path fill="none" stroke="midnightblue" d="M103.14,-21.93C114.36,-20.36 126.25,-18.7 137.48,-17.13"/>
<polygon fill="midnightblue" stroke="midnightblue" points="138.15,-20.57 147.57,-15.72 137.19,-13.63 138.15,-20.57"/>
</g>
<!-- Node4 -->
<g id="node4" class="node">
<title>Node4</title>
<g id="a_node4"><a xlink:href="group__utility.html#ga0edbd3360d379f8c1864447f60a79271" target="_top" xlink:title="Determines if two values are equal within a relative error.">
<polygon fill="white" stroke="black" points="276,-0.5 276,-19.5 338,-19.5 338,-0.5 276,-0.5"/>
<text text-anchor="middle" x="307" y="-7.5" font-family="Helvetica,sans-Serif" font-size="10.00">hal::equals</text>
</a>
</g>
</g>
<!-- Node3&#45;&gt;Node4 -->
<g id="edge3" class="edge">
<title>Node3&#45;&gt;Node4</title>
<path fill="none" stroke="midnightblue" d="M231.22,-10C242.34,-10 254.39,-10 265.5,-10"/>
<polygon fill="midnightblue" stroke="midnightblue" points="265.81,-13.5 275.81,-10 265.81,-6.5 265.81,-13.5"/>
</g>
</g>
</svg>
