<?xml version="1.0" encoding="UTF-8" standalone="no"?>
<!DOCTYPE svg PUBLIC "-//W3C//DTD SVG 1.1//EN"
 "http://www.w3.org/Graphics/SVG/1.1/DTD/svg11.dtd">
<!-- Generated by graphviz version 3.0.0 (20220413.0242)
 -->
<!-- Title: hal::spy_handler::reset Pages: 1 -->
<svg width="266pt" height="264pt"
 viewBox="0.00 0.00 266.00 263.50" xmlns="http://www.w3.org/2000/svg" xmlns:xlink="http://www.w3.org/1999/xlink">
<g id="graph0" class="graph" transform="scale(1 1) rotate(0) translate(4 259.5)">
<title>hal::spy_handler::reset</title>
<polygon fill="white" stroke="transparent" points="-4,4 -4,-259.5 262,-259.5 262,4 -4,4"/>
<!-- Node1 -->
<g id="node1" class="node">
<title>Node1</title>
<g id="a_node1"><a xlink:title="Reset call recordings and turns off error trigger.">
<polygon fill="#bfbfbf" stroke="black" points="146,-110.5 146,-129.5 258,-129.5 258,-110.5 146,-110.5"/>
<text text-anchor="middle" x="202" y="-117.5" font-family="Helvetica,sans-Serif" font-size="10.00">hal::spy_handler::reset</text>
</a>
</g>
</g>
<!-- Node2 -->
<g id="node2" class="node">
<title>Node2</title>
<g id="a_node2"><a xlink:href="structhal_1_1mock_1_1input__pin.html#a3b21009c4c58b20b27e2d2a4cc72947e" target="_top" xlink:title="Reset spy information for configure()">
<polygon fill="white" stroke="black" points="4.5,-225 4.5,-255 105.5,-255 105.5,-225 4.5,-225"/>
<text text-anchor="start" x="12.5" y="-243" font-family="Helvetica,sans-Serif" font-size="10.00">hal::mock::input_pin</text>
<text text-anchor="middle" x="55" y="-232" font-family="Helvetica,sans-Serif" font-size="10.00">::reset</text>
</a>
</g>
</g>
<!-- Node1&#45;&gt;Node2 -->
<g id="edge1" class="edge">
<title>Node1&#45;&gt;Node2</title>
<path fill="none" stroke="midnightblue" d="M187.81,-137.69C171.46,-158.63 141.84,-193.5 110,-216 105.39,-219.26 100.27,-222.22 95.07,-224.87"/>
<polygon fill="midnightblue" stroke="midnightblue" points="190.67,-139.71 193.97,-129.64 185.12,-135.45 190.67,-139.71"/>
</g>
<!-- Node3 -->
<g id="node3" class="node">
<title>Node3</title>
<g id="a_node3"><a xlink:href="structhal_1_1mock_1_1interrupt__pin.html#a2803396fafebececf62276e236a2fd25" target="_top" xlink:title="Reset spy information for configure(), on_trigger(), and disable()">
<polygon fill="white" stroke="black" points="6,-176 6,-206 104,-206 104,-176 6,-176"/>
<text text-anchor="start" x="14" y="-194" font-family="Helvetica,sans-Serif" font-size="10.00">hal::mock::interrupt</text>
<text text-anchor="middle" x="55" y="-183" font-family="Helvetica,sans-Serif" font-size="10.00">_pin::reset</text>
</a>
</g>
</g>
<!-- Node1&#45;&gt;Node3 -->
<g id="edge2" class="edge">
<title>Node1&#45;&gt;Node3</title>
<path fill="none" stroke="midnightblue" d="M173.73,-134.61C155.76,-144.11 131.64,-156.61 110,-167 103.8,-169.97 97.15,-173.04 90.71,-175.93"/>
<polygon fill="midnightblue" stroke="midnightblue" points="175.84,-137.46 183.03,-129.68 172.55,-131.28 175.84,-137.46"/>
</g>
<!-- Node4 -->
<g id="node4" class="node">
<title>Node4</title>
<g id="a_node4"><a xlink:href="structhal_1_1mock_1_1output__pin.html#a7ca18ce52efdac4c61d8c56a38ee1a93" target="_top" xlink:title="Reset spy information for configure() and level()">
<polygon fill="white" stroke="black" points="1.5,-127 1.5,-157 108.5,-157 108.5,-127 1.5,-127"/>
<text text-anchor="start" x="9.5" y="-145" font-family="Helvetica,sans-Serif" font-size="10.00">hal::mock::output_pin</text>
<text text-anchor="middle" x="55" y="-134" font-family="Helvetica,sans-Serif" font-size="10.00">::reset</text>
</a>
</g>
</g>
<!-- Node1&#45;&gt;Node4 -->
<g id="edge3" class="edge">
<title>Node1&#45;&gt;Node4</title>
<path fill="none" stroke="midnightblue" d="M135.66,-129.91C126.63,-131.28 117.45,-132.68 108.69,-134.01"/>
<polygon fill="midnightblue" stroke="midnightblue" points="136.41,-133.34 145.77,-128.38 135.36,-126.42 136.41,-133.34"/>
</g>
<!-- Node5 -->
<g id="node5" class="node">
<title>Node5</title>
<g id="a_node5"><a xlink:href="structhal_1_1mock_1_1pwm.html#ad4c4c645b6698791d34a3f8a78c96b17" target="_top" xlink:title="Reset spy information for both frequency() and duty_cycle()">
<polygon fill="white" stroke="black" points="0,-88.5 0,-107.5 110,-107.5 110,-88.5 0,-88.5"/>
<text text-anchor="middle" x="55" y="-95.5" font-family="Helvetica,sans-Serif" font-size="10.00">hal::mock::pwm::reset</text>
</a>
</g>
</g>
<!-- Node1&#45;&gt;Node5 -->
<g id="edge4" class="edge">
<title>Node1&#45;&gt;Node5</title>
<path fill="none" stroke="midnightblue" d="M135.79,-110.11C127.21,-108.8 118.49,-107.48 110.12,-106.21"/>
<polygon fill="midnightblue" stroke="midnightblue" points="135.36,-113.58 145.77,-111.62 136.41,-106.66 135.36,-113.58"/>
</g>
<!-- Node6 -->
<g id="node6" class="node">
<title>Node6</title>
<g id="a_node6"><a xlink:href="structhal_1_1mock_1_1write__only__spi.html#a9be71a9e85a7fc15eef00839781eef73" target="_top" xlink:title="Reset spy information for both configure() and transfer()">
<polygon fill="white" stroke="black" points="2,-39 2,-69 108,-69 108,-39 2,-39"/>
<text text-anchor="start" x="10" y="-57" font-family="Helvetica,sans-Serif" font-size="10.00">hal::mock::write_only</text>
<text text-anchor="middle" x="55" y="-46" font-family="Helvetica,sans-Serif" font-size="10.00">_spi::reset</text>
</a>
</g>
</g>
<!-- Node1&#45;&gt;Node6 -->
<g id="edge5" class="edge">
<title>Node1&#45;&gt;Node6</title>
<path fill="none" stroke="midnightblue" d="M170.65,-106.18C146.83,-95.34 113.71,-80.27 89.19,-69.11"/>
<polygon fill="midnightblue" stroke="midnightblue" points="169.36,-109.45 179.92,-110.4 172.26,-103.07 169.36,-109.45"/>
</g>
<!-- Node7 -->
<g id="node7" class="node">
<title>Node7</title>
<g id="a_node7"><a xlink:href="structhal_1_1mock_1_1timer.html#a9d3f61fc844e2939b380e887c4f9bdd4" target="_top" xlink:title="Reset spy information for schedule(), clear(), and is_running()">
<polygon fill="white" stroke="black" points="0,-0.5 0,-19.5 110,-19.5 110,-0.5 0,-0.5"/>
<text text-anchor="middle" x="55" y="-7.5" font-family="Helvetica,sans-Serif" font-size="10.00">hal::mock::timer::reset</text>
</a>
</g>
</g>
<!-- Node1&#45;&gt;Node7 -->
<g id="edge6" class="edge">
<title>Node1&#45;&gt;Node7</title>
<path fill="none" stroke="midnightblue" d="M187.07,-102.25C170.57,-82.26 141.34,-49.97 110,-30 103.51,-25.86 96.04,-22.41 88.76,-19.59"/>
<polygon fill="midnightblue" stroke="midnightblue" points="184.52,-104.66 193.53,-110.24 189.96,-100.26 184.52,-104.66"/>
</g>
</g>
</svg>
