<?xml version="1.0" encoding="UTF-8" standalone="no"?>
<!DOCTYPE svg PUBLIC "-//W3C//DTD SVG 1.1//EN"
 "http://www.w3.org/Graphics/SVG/1.1/DTD/svg11.dtd">
<!-- Generated by graphviz version 3.0.0 (20220413.0242)
 -->
<!-- Title: hal::uptime_counter::uptime Pages: 1 -->
<svg width="358pt" height="90pt"
 viewBox="0.00 0.00 358.00 90.00" xmlns="http://www.w3.org/2000/svg" xmlns:xlink="http://www.w3.org/1999/xlink">
<g id="graph0" class="graph" transform="scale(1 1) rotate(0) translate(4 86)">
<title>hal::uptime_counter::uptime</title>
<polygon fill="white" stroke="transparent" points="-4,4 -4,-86 354,-86 354,4 -4,4"/>
<!-- Node1 -->
<g id="node1" class="node">
<title>Node1</title>
<g id="a_node1"><a xlink:title="Calculates the number of nanoseconds since the counter has started.">
<polygon fill="#bfbfbf" stroke="black" points="0,-17 0,-47 101,-47 101,-17 0,-17"/>
<text text-anchor="start" x="8" y="-35" font-family="Helvetica,sans-Serif" font-size="10.00">hal::uptime_counter</text>
<text text-anchor="middle" x="50.5" y="-24" font-family="Helvetica,sans-Serif" font-size="10.00">::uptime</text>
</a>
</g>
</g>
<!-- Node2 -->
<g id="node2" class="node">
<title>Node2</title>
<g id="a_node2"><a xlink:href="group__utility.html#gad3e3226fbdfad6db38eb093f1420489c" target="_top" xlink:title="Calculate the amount of time it takes a frequency to oscillate a number of cycles.">
<polygon fill="white" stroke="black" points="140.5,-39 140.5,-69 233.5,-69 233.5,-39 140.5,-39"/>
<text text-anchor="start" x="148.5" y="-57" font-family="Helvetica,sans-Serif" font-size="10.00">hal::duration_from</text>
<text text-anchor="middle" x="187" y="-46" font-family="Helvetica,sans-Serif" font-size="10.00">_cycles</text>
</a>
</g>
</g>
<!-- Node1&#45;&gt;Node2 -->
<g id="edge1" class="edge">
<title>Node1&#45;&gt;Node2</title>
<path fill="none" stroke="midnightblue" d="M101.2,-40.13C110.64,-41.67 120.58,-43.3 130.2,-44.87"/>
<polygon fill="midnightblue" stroke="midnightblue" points="129.63,-48.33 140.07,-46.49 130.76,-41.42 129.63,-48.33"/>
</g>
<!-- Node4 -->
<g id="node4" class="node">
<title>Node4</title>
<g id="a_node4"><a xlink:href="classhal_1_1counter.html#a1b99ef1f3847e5f24e2cb69e5988e54f" target="_top" xlink:title="Get the uptime of the counter since it has started.">
<polygon fill="white" stroke="black" points="137,-0.5 137,-19.5 237,-19.5 237,-0.5 137,-0.5"/>
<text text-anchor="middle" x="187" y="-7.5" font-family="Helvetica,sans-Serif" font-size="10.00">hal::counter::uptime</text>
</a>
</g>
</g>
<!-- Node1&#45;&gt;Node4 -->
<g id="edge4" class="edge">
<title>Node1&#45;&gt;Node4</title>
<path fill="none" stroke="midnightblue" d="M101.2,-23.87C109.59,-22.5 118.37,-21.06 126.97,-19.65"/>
<polygon fill="midnightblue" stroke="midnightblue" points="127.65,-23.09 136.95,-18.02 126.52,-16.18 127.65,-23.09"/>
</g>
<!-- Node3 -->
<g id="node3" class="node">
<title>Node3</title>
<g id="a_node3"><a xlink:href="namespacehal.html#a09499a696428213091b196699563099f" target="_top" xlink:title=" ">
<polygon fill="white" stroke="black" points="273,-44.5 273,-63.5 350,-63.5 350,-44.5 273,-44.5"/>
<text text-anchor="middle" x="311.5" y="-51.5" font-family="Helvetica,sans-Serif" font-size="10.00">hal::new_error</text>
</a>
</g>
</g>
<!-- Node2&#45;&gt;Node3 -->
<g id="edge2" class="edge">
<title>Node2&#45;&gt;Node3</title>
<path fill="none" stroke="midnightblue" d="M233.61,-54C243.11,-54 253.13,-54 262.7,-54"/>
<polygon fill="midnightblue" stroke="midnightblue" points="262.86,-57.5 272.86,-54 262.86,-50.5 262.86,-57.5"/>
</g>
<!-- Node3&#45;&gt;Node3 -->
<g id="edge3" class="edge">
<title>Node3&#45;&gt;Node3</title>
<path fill="none" stroke="midnightblue" d="M292.39,-63.76C283.09,-72.57 289.46,-82 311.5,-82 325.62,-82 333.31,-78.13 334.57,-73.03"/>
<polygon fill="midnightblue" stroke="midnightblue" points="337.75,-71.58 330.61,-63.76 331.31,-74.33 337.75,-71.58"/>
</g>
</g>
</svg>
