<?xml version="1.0" encoding="UTF-8" standalone="no"?>
<!DOCTYPE svg PUBLIC "-//W3C//DTD SVG 1.1//EN"
 "http://www.w3.org/Graphics/SVG/1.1/DTD/svg11.dtd">
<!-- Generated by graphviz version 3.0.0 (20220413.0242)
 -->
<!-- Title: hal::counter::uptime Pages: 1 -->
<svg width="474pt" height="150pt"
 viewBox="0.00 0.00 474.00 149.50" xmlns="http://www.w3.org/2000/svg" xmlns:xlink="http://www.w3.org/1999/xlink">
<g id="graph0" class="graph" transform="scale(1 1) rotate(0) translate(4 145.5)">
<title>hal::counter::uptime</title>
<polygon fill="white" stroke="transparent" points="-4,4 -4,-145.5 470,-145.5 470,4 -4,4"/>
<!-- Node1 -->
<g id="node1" class="node">
<title>Node1</title>
<g id="a_node1"><a xlink:title="Get the uptime of the counter since it has started.">
<polygon fill="#bfbfbf" stroke="black" points="366,-55 366,-74 466,-74 466,-55 366,-55"/>
<text text-anchor="middle" x="416" y="-62" font-family="Helvetica,sans-Serif" font-size="10.00">hal::counter::uptime</text>
</a>
</g>
</g>
<!-- Node2 -->
<g id="node2" class="node">
<title>Node2</title>
<g id="a_node2"><a xlink:href="classhal_1_1counter__timeout.html#aca5b940f8e89106b393fb34cb61aff14" target="_top" xlink:title="Create a counter_timeout.">
<polygon fill="white" stroke="black" points="226,-98.5 226,-128.5 330,-128.5 330,-98.5 226,-98.5"/>
<text text-anchor="start" x="234" y="-116.5" font-family="Helvetica,sans-Serif" font-size="10.00">hal::counter_timeout</text>
<text text-anchor="middle" x="278" y="-105.5" font-family="Helvetica,sans-Serif" font-size="10.00">::create</text>
</a>
</g>
</g>
<!-- Node1&#45;&gt;Node2 -->
<g id="edge1" class="edge">
<title>Node1&#45;&gt;Node2</title>
<path fill="none" stroke="midnightblue" d="M378.95,-77.49C361.06,-83.93 339.35,-91.76 320.74,-98.46"/>
<polygon fill="midnightblue" stroke="midnightblue" points="380.23,-80.75 388.45,-74.06 377.86,-74.16 380.23,-80.75"/>
</g>
<!-- Node5 -->
<g id="node5" class="node">
<title>Node5</title>
<g id="a_node5"><a xlink:href="classhal_1_1counter__timeout.html#a7f1f5f55749d89dcc65d423cf702de3b" target="_top" xlink:title="Call this object to check if it has timed out.">
<polygon fill="white" stroke="black" points="226,-49.5 226,-79.5 330,-79.5 330,-49.5 226,-49.5"/>
<text text-anchor="start" x="234" y="-67.5" font-family="Helvetica,sans-Serif" font-size="10.00">hal::counter_timeout</text>
<text text-anchor="middle" x="278" y="-56.5" font-family="Helvetica,sans-Serif" font-size="10.00">::operator()</text>
</a>
</g>
</g>
<!-- Node1&#45;&gt;Node5 -->
<g id="edge5" class="edge">
<title>Node1&#45;&gt;Node5</title>
<path fill="none" stroke="midnightblue" d="M355.71,-64.5C347.25,-64.5 338.61,-64.5 330.32,-64.5"/>
<polygon fill="midnightblue" stroke="midnightblue" points="355.9,-68 365.9,-64.5 355.9,-61 355.9,-68"/>
</g>
<!-- Node6 -->
<g id="node6" class="node">
<title>Node6</title>
<g id="a_node6"><a xlink:href="classhal_1_1uptime__counter.html#a12132e48d7d61c26f3a2535d42d2692c" target="_top" xlink:title="Calculates the number of nanoseconds since the counter has started.">
<polygon fill="white" stroke="black" points="227.5,-0.5 227.5,-30.5 328.5,-30.5 328.5,-0.5 227.5,-0.5"/>
<text text-anchor="start" x="235.5" y="-18.5" font-family="Helvetica,sans-Serif" font-size="10.00">hal::uptime_counter</text>
<text text-anchor="middle" x="278" y="-7.5" font-family="Helvetica,sans-Serif" font-size="10.00">::uptime</text>
</a>
</g>
</g>
<!-- Node1&#45;&gt;Node6 -->
<g id="edge6" class="edge">
<title>Node1&#45;&gt;Node6</title>
<path fill="none" stroke="midnightblue" d="M378.95,-51.51C361.06,-45.07 339.35,-37.24 320.74,-30.54"/>
<polygon fill="midnightblue" stroke="midnightblue" points="377.86,-54.84 388.45,-54.94 380.23,-48.25 377.86,-54.84"/>
</g>
<!-- Node3 -->
<g id="node3" class="node">
<title>Node3</title>
<g id="a_node3"><a xlink:href="group__counter.html#ga0f73c780e3eb7b86be65a1746ccc1c95" target="_top" xlink:title="Create a timeout object based on hal::counter.">
<polygon fill="white" stroke="black" points="92,-104 92,-123 190,-123 190,-104 92,-104"/>
<text text-anchor="middle" x="141" y="-111" font-family="Helvetica,sans-Serif" font-size="10.00">hal::create_timeout</text>
</a>
</g>
</g>
<!-- Node2&#45;&gt;Node3 -->
<g id="edge2" class="edge">
<title>Node2&#45;&gt;Node3</title>
<path fill="none" stroke="midnightblue" d="M215.72,-113.5C207.25,-113.5 198.64,-113.5 190.43,-113.5"/>
<polygon fill="midnightblue" stroke="midnightblue" points="215.96,-117 225.96,-113.5 215.96,-110 215.96,-117"/>
</g>
<!-- Node4 -->
<g id="node4" class="node">
<title>Node4</title>
<g id="a_node4"><a xlink:href="group__counter.html#ga8b4d520b8fbf98436b255041f73b9a8d" target="_top" xlink:title="Delay execution for a duration of time using a hardware counter.">
<polygon fill="white" stroke="black" points="0,-104 0,-123 56,-123 56,-104 0,-104"/>
<text text-anchor="middle" x="28" y="-111" font-family="Helvetica,sans-Serif" font-size="10.00">hal::delay</text>
</a>
</g>
</g>
<!-- Node3&#45;&gt;Node4 -->
<g id="edge3" class="edge">
<title>Node3&#45;&gt;Node4</title>
<path fill="none" stroke="midnightblue" d="M81.8,-113.5C72.8,-113.5 63.89,-113.5 56.03,-113.5"/>
<polygon fill="midnightblue" stroke="midnightblue" points="81.96,-117 91.96,-113.5 81.96,-110 81.96,-117"/>
</g>
<!-- Node4&#45;&gt;Node4 -->
<g id="edge4" class="edge">
<title>Node4&#45;&gt;Node4</title>
<path fill="none" stroke="midnightblue" d="M48.74,-132.9C47.35,-137.81 40.44,-141.5 28,-141.5 8.09,-141.5 2.34,-132.07 10.74,-123.26"/>
<polygon fill="midnightblue" stroke="midnightblue" points="51.95,-131.48 45.26,-123.26 45.36,-133.85 51.95,-131.48"/>
</g>
</g>
</svg>
