<?xml version="1.0" encoding="UTF-8" standalone="no"?>
<!DOCTYPE svg PUBLIC "-//W3C//DTD SVG 1.1//EN"
 "http://www.w3.org/Graphics/SVG/1.1/DTD/svg11.dtd">
<!-- Generated by graphviz version 3.0.0 (20220413.0242)
 -->
<!-- Title: hal::steady_clock::frequency Pages: 1 -->
<svg width="493pt" height="52pt"
 viewBox="0.00 0.00 493.00 51.50" xmlns="http://www.w3.org/2000/svg" xmlns:xlink="http://www.w3.org/1999/xlink">
<g id="graph0" class="graph" transform="scale(1 1) rotate(0) translate(4 47.5)">
<title>hal::steady_clock::frequency</title>
<polygon fill="white" stroke="transparent" points="-4,4 -4,-47.5 489,-47.5 489,4 -4,4"/>
<!-- Node1 -->
<g id="node1" class="node">
<title>Node1</title>
<g id="a_node1"><a xlink:title=" ">
<polygon fill="#bfbfbf" stroke="black" points="390,-0.5 390,-30.5 485,-30.5 485,-0.5 390,-0.5"/>
<text text-anchor="start" x="398" y="-18.5" font-family="Helvetica,sans-Serif" font-size="10.00">hal::steady_clock::</text>
<text text-anchor="middle" x="437.5" y="-7.5" font-family="Helvetica,sans-Serif" font-size="10.00">frequency</text>
</a>
</g>
</g>
<!-- Node2 -->
<g id="node2" class="node">
<title>Node2</title>
<g id="a_node2"><a xlink:href="classhal_1_1steady__clock__timeout.html#a99c29478d0ba4dbe114bb644ae060398" target="_top" xlink:title="Create a steady_clock_timeout.">
<polygon fill="white" stroke="black" points="226,-0.5 226,-30.5 354,-30.5 354,-0.5 226,-0.5"/>
<text text-anchor="start" x="234" y="-18.5" font-family="Helvetica,sans-Serif" font-size="10.00">hal::steady_clock_timeout</text>
<text text-anchor="middle" x="290" y="-7.5" font-family="Helvetica,sans-Serif" font-size="10.00">::create</text>
</a>
</g>
</g>
<!-- Node1&#45;&gt;Node2 -->
<g id="edge1" class="edge">
<title>Node1&#45;&gt;Node2</title>
<path fill="none" stroke="midnightblue" d="M379.66,-15.5C371.31,-15.5 362.66,-15.5 354.2,-15.5"/>
<polygon fill="midnightblue" stroke="midnightblue" points="379.66,-19 389.66,-15.5 379.66,-12 379.66,-19"/>
</g>
<!-- Node3 -->
<g id="node3" class="node">
<title>Node3</title>
<g id="a_node3"><a xlink:href="group__steady__clock.html#ga8c92db3eb5ae3b8e67f16261a6f71d91" target="_top" xlink:title="Create a timeout object based on hal::steady_clock.">
<polygon fill="white" stroke="black" points="92,-6 92,-25 190,-25 190,-6 92,-6"/>
<text text-anchor="middle" x="141" y="-13" font-family="Helvetica,sans-Serif" font-size="10.00">hal::create_timeout</text>
</a>
</g>
</g>
<!-- Node2&#45;&gt;Node3 -->
<g id="edge2" class="edge">
<title>Node2&#45;&gt;Node3</title>
<path fill="none" stroke="midnightblue" d="M215.64,-15.5C206.95,-15.5 198.25,-15.5 190.04,-15.5"/>
<polygon fill="midnightblue" stroke="midnightblue" points="215.81,-19 225.81,-15.5 215.81,-12 215.81,-19"/>
</g>
<!-- Node4 -->
<g id="node4" class="node">
<title>Node4</title>
<g id="a_node4"><a xlink:href="group__steady__clock.html#ga80cd2610c280e615d52e03d83dad28f6" target="_top" xlink:title="Delay execution for a duration of time using a hardware steady_clock.">
<polygon fill="white" stroke="black" points="0,-6 0,-25 56,-25 56,-6 0,-6"/>
<text text-anchor="middle" x="28" y="-13" font-family="Helvetica,sans-Serif" font-size="10.00">hal::delay</text>
</a>
</g>
</g>
<!-- Node3&#45;&gt;Node4 -->
<g id="edge3" class="edge">
<title>Node3&#45;&gt;Node4</title>
<path fill="none" stroke="midnightblue" d="M81.8,-15.5C72.8,-15.5 63.89,-15.5 56.03,-15.5"/>
<polygon fill="midnightblue" stroke="midnightblue" points="81.96,-19 91.96,-15.5 81.96,-12 81.96,-19"/>
</g>
<!-- Node4&#45;&gt;Node4 -->
<g id="edge4" class="edge">
<title>Node4&#45;&gt;Node4</title>
<path fill="none" stroke="midnightblue" d="M48.74,-34.9C47.35,-39.81 40.44,-43.5 28,-43.5 8.09,-43.5 2.34,-34.07 10.74,-25.26"/>
<polygon fill="midnightblue" stroke="midnightblue" points="51.95,-33.48 45.26,-25.26 45.36,-35.85 51.95,-33.48"/>
</g>
</g>
</svg>
