<?xml version="1.0" encoding="UTF-8" standalone="no"?>
<!DOCTYPE svg PUBLIC "-//W3C//DTD SVG 1.1//EN"
 "http://www.w3.org/Graphics/SVG/1.1/DTD/svg11.dtd">
<!-- Generated by graphviz version 3.0.0 (20220413.0242)
 -->
<!-- Title: hal::spy_handler::reset Pages: 1 -->
<svg width="269pt" height="417pt"
 viewBox="0.00 0.00 269.00 417.00" xmlns="http://www.w3.org/2000/svg" xmlns:xlink="http://www.w3.org/1999/xlink">
<g id="graph0" class="graph" transform="scale(1 1) rotate(0) translate(4 413)">
<title>hal::spy_handler::reset</title>
<polygon fill="white" stroke="transparent" points="-4,4 -4,-413 265,-413 265,4 -4,4"/>
<!-- Node1 -->
<g id="node1" class="node">
<title>Node1</title>
<g id="a_node1"><a xlink:title="Reset call recordings and turns off error trigger.">
<polygon fill="#bfbfbf" stroke="black" points="149,-192.5 149,-211.5 261,-211.5 261,-192.5 149,-192.5"/>
<text text-anchor="middle" x="205" y="-199.5" font-family="Helvetica,sans-Serif" font-size="10.00">hal::spy_handler::reset</text>
</a>
</g>
</g>
<!-- Node2 -->
<g id="node2" class="node">
<title>Node2</title>
<g id="a_node2"><a xlink:href="structhal_1_1mock_1_1can.html#a234578234b8deacd0e3f3d1b563bbedf" target="_top" xlink:title="Reset spy information for functions.">
<polygon fill="white" stroke="black" points="4.5,-389.5 4.5,-408.5 108.5,-408.5 108.5,-389.5 4.5,-389.5"/>
<text text-anchor="middle" x="56.5" y="-396.5" font-family="Helvetica,sans-Serif" font-size="10.00">hal::mock::can::reset</text>
</a>
</g>
</g>
<!-- Node1&#45;&gt;Node2 -->
<g id="edge1" class="edge">
<title>Node1&#45;&gt;Node2</title>
<path fill="none" stroke="midnightblue" d="M199.24,-221.56C189.4,-257.95 163.39,-336.33 113,-380 108.54,-383.87 103.25,-386.96 97.73,-389.43"/>
<polygon fill="midnightblue" stroke="midnightblue" points="202.68,-222.25 201.79,-211.7 195.9,-220.51 202.68,-222.25"/>
</g>
<!-- Node3 -->
<g id="node3" class="node">
<title>Node3</title>
<g id="a_node3"><a xlink:href="structhal_1_1mock_1_1dac.html#a895ef11a9f64df6e406fc5fa88efb1e5" target="_top" xlink:title="Reset spy information for write()">
<polygon fill="white" stroke="black" points="4.5,-351.5 4.5,-370.5 108.5,-370.5 108.5,-351.5 4.5,-351.5"/>
<text text-anchor="middle" x="56.5" y="-358.5" font-family="Helvetica,sans-Serif" font-size="10.00">hal::mock::dac::reset</text>
</a>
</g>
</g>
<!-- Node1&#45;&gt;Node3 -->
<g id="edge2" class="edge">
<title>Node1&#45;&gt;Node3</title>
<path fill="none" stroke="midnightblue" d="M196.49,-221.08C183.76,-251.06 155.13,-309.16 113,-342 108.02,-345.88 102.2,-349 96.23,-351.49"/>
<polygon fill="midnightblue" stroke="midnightblue" points="199.77,-222.31 200.33,-211.73 193.29,-219.65 199.77,-222.31"/>
</g>
<!-- Node4 -->
<g id="node4" class="node">
<title>Node4</title>
<g id="a_node4"><a xlink:href="structhal_1_1mock_1_1input__pin.html#a3b21009c4c58b20b27e2d2a4cc72947e" target="_top" xlink:title="Reset spy information for configure()">
<polygon fill="white" stroke="black" points="6,-302 6,-332 107,-332 107,-302 6,-302"/>
<text text-anchor="start" x="14" y="-320" font-family="Helvetica,sans-Serif" font-size="10.00">hal::mock::input_pin</text>
<text text-anchor="middle" x="56.5" y="-309" font-family="Helvetica,sans-Serif" font-size="10.00">::reset</text>
</a>
</g>
</g>
<!-- Node1&#45;&gt;Node4 -->
<g id="edge3" class="edge">
<title>Node1&#45;&gt;Node4</title>
<path fill="none" stroke="midnightblue" d="M189.92,-219.66C173.27,-239.6 143.91,-272 113,-293 108.14,-296.3 102.75,-299.31 97.29,-301.99"/>
<polygon fill="midnightblue" stroke="midnightblue" points="192.81,-221.65 196.43,-211.7 187.39,-217.22 192.81,-221.65"/>
</g>
<!-- Node5 -->
<g id="node5" class="node">
<title>Node5</title>
<g id="a_node5"><a xlink:href="structhal_1_1mock_1_1interrupt__pin.html#a2803396fafebececf62276e236a2fd25" target="_top" xlink:title="Reset spy information for configure(), on_trigger(), and disable()">
<polygon fill="white" stroke="black" points="7.5,-253 7.5,-283 105.5,-283 105.5,-253 7.5,-253"/>
<text text-anchor="start" x="15.5" y="-271" font-family="Helvetica,sans-Serif" font-size="10.00">hal::mock::interrupt</text>
<text text-anchor="middle" x="56.5" y="-260" font-family="Helvetica,sans-Serif" font-size="10.00">_pin::reset</text>
</a>
</g>
</g>
<!-- Node1&#45;&gt;Node5 -->
<g id="edge4" class="edge">
<title>Node1&#45;&gt;Node5</title>
<path fill="none" stroke="midnightblue" d="M173.33,-215.82C149.27,-226.66 115.81,-241.73 91.03,-252.89"/>
<polygon fill="midnightblue" stroke="midnightblue" points="175.02,-218.9 182.7,-211.6 172.14,-212.51 175.02,-218.9"/>
</g>
<!-- Node6 -->
<g id="node6" class="node">
<title>Node6</title>
<g id="a_node6"><a xlink:href="structhal_1_1mock_1_1motor.html#a1374ffa020a2616544b598ef8cc1c500" target="_top" xlink:title="Reset spy information for power()">
<polygon fill="white" stroke="black" points="0,-214.5 0,-233.5 113,-233.5 113,-214.5 0,-214.5"/>
<text text-anchor="middle" x="56.5" y="-221.5" font-family="Helvetica,sans-Serif" font-size="10.00">hal::mock::motor::reset</text>
</a>
</g>
</g>
<!-- Node1&#45;&gt;Node6 -->
<g id="edge5" class="edge">
<title>Node1&#45;&gt;Node6</title>
<path fill="none" stroke="midnightblue" d="M138.51,-211.83C130.15,-213.09 121.64,-214.37 113.45,-215.6"/>
<polygon fill="midnightblue" stroke="midnightblue" points="139.25,-215.26 148.61,-210.32 138.21,-208.34 139.25,-215.26"/>
</g>
<!-- Node7 -->
<g id="node7" class="node">
<title>Node7</title>
<g id="a_node7"><a xlink:href="structhal_1_1mock_1_1output__pin.html#a7ca18ce52efdac4c61d8c56a38ee1a93" target="_top" xlink:title="Reset spy information for configure() and level()">
<polygon fill="white" stroke="black" points="3,-165 3,-195 110,-195 110,-165 3,-165"/>
<text text-anchor="start" x="11" y="-183" font-family="Helvetica,sans-Serif" font-size="10.00">hal::mock::output_pin</text>
<text text-anchor="middle" x="56.5" y="-172" font-family="Helvetica,sans-Serif" font-size="10.00">::reset</text>
</a>
</g>
</g>
<!-- Node1&#45;&gt;Node7 -->
<g id="edge6" class="edge">
<title>Node1&#45;&gt;Node7</title>
<path fill="none" stroke="midnightblue" d="M138.72,-192.2C129.13,-190.76 119.35,-189.29 110.06,-187.89"/>
<polygon fill="midnightblue" stroke="midnightblue" points="138.21,-195.66 148.61,-193.68 139.25,-188.74 138.21,-195.66"/>
</g>
<!-- Node8 -->
<g id="node8" class="node">
<title>Node8</title>
<g id="a_node8"><a xlink:href="structhal_1_1mock_1_1pwm.html#ad4c4c645b6698791d34a3f8a78c96b17" target="_top" xlink:title="Reset spy information for both frequency() and duty_cycle()">
<polygon fill="white" stroke="black" points="1.5,-126.5 1.5,-145.5 111.5,-145.5 111.5,-126.5 1.5,-126.5"/>
<text text-anchor="middle" x="56.5" y="-133.5" font-family="Helvetica,sans-Serif" font-size="10.00">hal::mock::pwm::reset</text>
</a>
</g>
</g>
<!-- Node1&#45;&gt;Node8 -->
<g id="edge7" class="edge">
<title>Node1&#45;&gt;Node8</title>
<path fill="none" stroke="midnightblue" d="M177.27,-187.4C159.35,-177.89 135.08,-165.52 113,-156 104.35,-152.27 94.75,-148.64 85.99,-145.52"/>
<polygon fill="midnightblue" stroke="midnightblue" points="176.05,-190.72 186.52,-192.36 179.36,-184.55 176.05,-190.72"/>
</g>
<!-- Node9 -->
<g id="node9" class="node">
<title>Node9</title>
<g id="a_node9"><a xlink:href="structhal_1_1mock_1_1servo.html#a70193593d8f691312fa80411980e752b" target="_top" xlink:title="Reset spy information for position()">
<polygon fill="white" stroke="black" points="0,-88.5 0,-107.5 113,-107.5 113,-88.5 0,-88.5"/>
<text text-anchor="middle" x="56.5" y="-95.5" font-family="Helvetica,sans-Serif" font-size="10.00">hal::mock::servo::reset</text>
</a>
</g>
</g>
<!-- Node1&#45;&gt;Node9 -->
<g id="edge8" class="edge">
<title>Node1&#45;&gt;Node9</title>
<path fill="none" stroke="midnightblue" d="M189.69,-184.85C173.03,-165.86 143.84,-135.51 113,-117 106.8,-113.28 99.77,-110.16 92.85,-107.6"/>
<polygon fill="midnightblue" stroke="midnightblue" points="187.05,-187.15 196.23,-192.45 192.36,-182.59 187.05,-187.15"/>
</g>
<!-- Node10 -->
<g id="node10" class="node">
<title>Node10</title>
<g id="a_node10"><a xlink:href="structhal_1_1mock_1_1write__only__spi.html#a9be71a9e85a7fc15eef00839781eef73" target="_top" xlink:title="Reset spy information for both configure() and transfer()">
<polygon fill="white" stroke="black" points="3.5,-39 3.5,-69 109.5,-69 109.5,-39 3.5,-39"/>
<text text-anchor="start" x="11.5" y="-57" font-family="Helvetica,sans-Serif" font-size="10.00">hal::mock::write_only</text>
<text text-anchor="middle" x="56.5" y="-46" font-family="Helvetica,sans-Serif" font-size="10.00">_spi::reset</text>
</a>
</g>
</g>
<!-- Node1&#45;&gt;Node10 -->
<g id="edge9" class="edge">
<title>Node1&#45;&gt;Node10</title>
<path fill="none" stroke="midnightblue" d="M194.33,-183.46C179.8,-157.15 150.04,-108.86 113,-79 108.39,-75.29 103.15,-72 97.76,-69.13"/>
<polygon fill="midnightblue" stroke="midnightblue" points="191.31,-185.24 199.14,-192.39 197.48,-181.92 191.31,-185.24"/>
</g>
<!-- Node11 -->
<g id="node11" class="node">
<title>Node11</title>
<g id="a_node11"><a xlink:href="structhal_1_1mock_1_1timer.html#a9d3f61fc844e2939b380e887c4f9bdd4" target="_top" xlink:title="Reset spy information for schedule(), clear(), and is_running()">
<polygon fill="white" stroke="black" points="1.5,-0.5 1.5,-19.5 111.5,-19.5 111.5,-0.5 1.5,-0.5"/>
<text text-anchor="middle" x="56.5" y="-7.5" font-family="Helvetica,sans-Serif" font-size="10.00">hal::mock::timer::reset</text>
</a>
</g>
</g>
<!-- Node1&#45;&gt;Node11 -->
<g id="edge10" class="edge">
<title>Node1&#45;&gt;Node11</title>
<path fill="none" stroke="midnightblue" d="M198.7,-182.21C188.23,-146.75 161.57,-72.17 113,-30 108.05,-25.7 102.11,-22.3 95.98,-19.62"/>
<polygon fill="midnightblue" stroke="midnightblue" points="195.45,-183.59 201.54,-192.26 202.19,-181.68 195.45,-183.59"/>
</g>
</g>
</svg>
