<?xml version="1.0" encoding="UTF-8" standalone="no"?>
<!DOCTYPE svg PUBLIC "-//W3C//DTD SVG 1.1//EN"
 "http://www.w3.org/Graphics/SVG/1.1/DTD/svg11.dtd">
<!-- Generated by graphviz version 3.0.0 (20220413.0242)
 -->
<!-- Title: hal::spy_handler::reset Pages: 1 -->
<svg width="269pt" height="379pt"
 viewBox="0.00 0.00 269.00 379.00" xmlns="http://www.w3.org/2000/svg" xmlns:xlink="http://www.w3.org/1999/xlink">
<g id="graph0" class="graph" transform="scale(1 1) rotate(0) translate(4 375)">
<title>hal::spy_handler::reset</title>
<polygon fill="white" stroke="transparent" points="-4,4 -4,-375 265,-375 265,4 -4,4"/>
<!-- Node1 -->
<g id="node1" class="node">
<title>Node1</title>
<g id="a_node1"><a xlink:title="Reset call recordings and turns off error trigger.">
<polygon fill="#bfbfbf" stroke="black" points="149,-170.5 149,-189.5 261,-189.5 261,-170.5 149,-170.5"/>
<text text-anchor="middle" x="205" y="-177.5" font-family="Helvetica,sans-Serif" font-size="10.00">hal::spy_handler::reset</text>
</a>
</g>
</g>
<!-- Node2 -->
<g id="node2" class="node">
<title>Node2</title>
<g id="a_node2"><a xlink:href="structhal_1_1mock_1_1dac.html#a895ef11a9f64df6e406fc5fa88efb1e5" target="_top" xlink:title="Reset spy information for write()">
<polygon fill="white" stroke="black" points="4.5,-351.5 4.5,-370.5 108.5,-370.5 108.5,-351.5 4.5,-351.5"/>
<text text-anchor="middle" x="56.5" y="-358.5" font-family="Helvetica,sans-Serif" font-size="10.00">hal::mock::dac::reset</text>
</a>
</g>
</g>
<!-- Node1&#45;&gt;Node2 -->
<g id="edge1" class="edge">
<title>Node1&#45;&gt;Node2</title>
<path fill="none" stroke="midnightblue" d="M198.28,-199.2C187.27,-232.91 159.97,-302.88 113,-342 108.38,-345.85 102.95,-348.93 97.31,-351.39"/>
<polygon fill="midnightblue" stroke="midnightblue" points="201.63,-200.2 201.28,-189.61 194.95,-198.11 201.63,-200.2"/>
</g>
<!-- Node3 -->
<g id="node3" class="node">
<title>Node3</title>
<g id="a_node3"><a xlink:href="structhal_1_1mock_1_1input__pin.html#a3b21009c4c58b20b27e2d2a4cc72947e" target="_top" xlink:title="Reset spy information for configure()">
<polygon fill="white" stroke="black" points="6,-302 6,-332 107,-332 107,-302 6,-302"/>
<text text-anchor="start" x="14" y="-320" font-family="Helvetica,sans-Serif" font-size="10.00">hal::mock::input_pin</text>
<text text-anchor="middle" x="56.5" y="-309" font-family="Helvetica,sans-Serif" font-size="10.00">::reset</text>
</a>
</g>
</g>
<!-- Node1&#45;&gt;Node3 -->
<g id="edge2" class="edge">
<title>Node1&#45;&gt;Node3</title>
<path fill="none" stroke="midnightblue" d="M193.15,-198.48C177.95,-222.97 148.21,-266.2 113,-293 108.66,-296.31 103.79,-299.26 98.78,-301.87"/>
<polygon fill="midnightblue" stroke="midnightblue" points="196.22,-200.16 198.41,-189.8 190.23,-196.53 196.22,-200.16"/>
</g>
<!-- Node4 -->
<g id="node4" class="node">
<title>Node4</title>
<g id="a_node4"><a xlink:href="structhal_1_1mock_1_1interrupt__pin.html#a2803396fafebececf62276e236a2fd25" target="_top" xlink:title="Reset spy information for configure(), on_trigger(), and disable()">
<polygon fill="white" stroke="black" points="7.5,-253 7.5,-283 105.5,-283 105.5,-253 7.5,-253"/>
<text text-anchor="start" x="15.5" y="-271" font-family="Helvetica,sans-Serif" font-size="10.00">hal::mock::interrupt</text>
<text text-anchor="middle" x="56.5" y="-260" font-family="Helvetica,sans-Serif" font-size="10.00">_pin::reset</text>
</a>
</g>
</g>
<!-- Node1&#45;&gt;Node4 -->
<g id="edge3" class="edge">
<title>Node1&#45;&gt;Node4</title>
<path fill="none" stroke="midnightblue" d="M183.78,-195.6C165.78,-209.09 138.45,-228.62 113,-243 106.84,-246.48 100.1,-249.86 93.51,-252.94"/>
<polygon fill="midnightblue" stroke="midnightblue" points="185.95,-198.34 191.81,-189.52 181.73,-192.76 185.95,-198.34"/>
</g>
<!-- Node5 -->
<g id="node5" class="node">
<title>Node5</title>
<g id="a_node5"><a xlink:href="structhal_1_1mock_1_1motor.html#a1374ffa020a2616544b598ef8cc1c500" target="_top" xlink:title="Reset spy information for power()">
<polygon fill="white" stroke="black" points="0,-214.5 0,-233.5 113,-233.5 113,-214.5 0,-214.5"/>
<text text-anchor="middle" x="56.5" y="-221.5" font-family="Helvetica,sans-Serif" font-size="10.00">hal::mock::motor::reset</text>
</a>
</g>
</g>
<!-- Node1&#45;&gt;Node5 -->
<g id="edge4" class="edge">
<title>Node1&#45;&gt;Node5</title>
<path fill="none" stroke="midnightblue" d="M162.6,-192.43C139.32,-199.43 110.71,-208.02 89.23,-214.47"/>
<polygon fill="midnightblue" stroke="midnightblue" points="163.64,-195.78 172.21,-189.55 161.63,-189.07 163.64,-195.78"/>
</g>
<!-- Node6 -->
<g id="node6" class="node">
<title>Node6</title>
<g id="a_node6"><a xlink:href="structhal_1_1mock_1_1output__pin.html#a7ca18ce52efdac4c61d8c56a38ee1a93" target="_top" xlink:title="Reset spy information for configure() and level()">
<polygon fill="white" stroke="black" points="3,-165 3,-195 110,-195 110,-165 3,-165"/>
<text text-anchor="start" x="11" y="-183" font-family="Helvetica,sans-Serif" font-size="10.00">hal::mock::output_pin</text>
<text text-anchor="middle" x="56.5" y="-172" font-family="Helvetica,sans-Serif" font-size="10.00">::reset</text>
</a>
</g>
</g>
<!-- Node1&#45;&gt;Node6 -->
<g id="edge5" class="edge">
<title>Node1&#45;&gt;Node6</title>
<path fill="none" stroke="midnightblue" d="M138.41,-180C128.92,-180 119.25,-180 110.06,-180"/>
<polygon fill="midnightblue" stroke="midnightblue" points="138.61,-183.5 148.61,-180 138.61,-176.5 138.61,-183.5"/>
</g>
<!-- Node7 -->
<g id="node7" class="node">
<title>Node7</title>
<g id="a_node7"><a xlink:href="structhal_1_1mock_1_1pwm.html#ad4c4c645b6698791d34a3f8a78c96b17" target="_top" xlink:title="Reset spy information for both frequency() and duty_cycle()">
<polygon fill="white" stroke="black" points="1.5,-126.5 1.5,-145.5 111.5,-145.5 111.5,-126.5 1.5,-126.5"/>
<text text-anchor="middle" x="56.5" y="-133.5" font-family="Helvetica,sans-Serif" font-size="10.00">hal::mock::pwm::reset</text>
</a>
</g>
</g>
<!-- Node1&#45;&gt;Node7 -->
<g id="edge6" class="edge">
<title>Node1&#45;&gt;Node7</title>
<path fill="none" stroke="midnightblue" d="M162.6,-167.57C139.32,-160.57 110.71,-151.98 89.23,-145.53"/>
<polygon fill="midnightblue" stroke="midnightblue" points="161.63,-170.93 172.21,-170.45 163.64,-164.22 161.63,-170.93"/>
</g>
<!-- Node8 -->
<g id="node8" class="node">
<title>Node8</title>
<g id="a_node8"><a xlink:href="structhal_1_1mock_1_1servo.html#a70193593d8f691312fa80411980e752b" target="_top" xlink:title="Reset spy information for position()">
<polygon fill="white" stroke="black" points="0,-88.5 0,-107.5 113,-107.5 113,-88.5 0,-88.5"/>
<text text-anchor="middle" x="56.5" y="-95.5" font-family="Helvetica,sans-Serif" font-size="10.00">hal::mock::servo::reset</text>
</a>
</g>
</g>
<!-- Node1&#45;&gt;Node8 -->
<g id="edge7" class="edge">
<title>Node1&#45;&gt;Node8</title>
<path fill="none" stroke="midnightblue" d="M184.39,-164.04C166.61,-150.16 139.24,-130.25 113,-117 105.91,-113.42 97.99,-110.26 90.4,-107.59"/>
<polygon fill="midnightblue" stroke="midnightblue" points="182.3,-166.84 192.31,-170.31 186.65,-161.36 182.3,-166.84"/>
</g>
<!-- Node9 -->
<g id="node9" class="node">
<title>Node9</title>
<g id="a_node9"><a xlink:href="structhal_1_1mock_1_1write__only__spi.html#a9be71a9e85a7fc15eef00839781eef73" target="_top" xlink:title="Reset spy information for both configure() and transfer()">
<polygon fill="white" stroke="black" points="3.5,-39 3.5,-69 109.5,-69 109.5,-39 3.5,-39"/>
<text text-anchor="start" x="11.5" y="-57" font-family="Helvetica,sans-Serif" font-size="10.00">hal::mock::write_only</text>
<text text-anchor="middle" x="56.5" y="-46" font-family="Helvetica,sans-Serif" font-size="10.00">_spi::reset</text>
</a>
</g>
</g>
<!-- Node1&#45;&gt;Node9 -->
<g id="edge8" class="edge">
<title>Node1&#45;&gt;Node9</title>
<path fill="none" stroke="midnightblue" d="M191.49,-162.05C175.43,-140.08 145.7,-102.86 113,-79 107.96,-75.32 102.3,-72.02 96.57,-69.1"/>
<polygon fill="midnightblue" stroke="midnightblue" points="188.84,-164.36 197.51,-170.45 194.53,-160.28 188.84,-164.36"/>
</g>
<!-- Node10 -->
<g id="node10" class="node">
<title>Node10</title>
<g id="a_node10"><a xlink:href="structhal_1_1mock_1_1timer.html#a9d3f61fc844e2939b380e887c4f9bdd4" target="_top" xlink:title="Reset spy information for schedule(), clear(), and is_running()">
<polygon fill="white" stroke="black" points="1.5,-0.5 1.5,-19.5 111.5,-19.5 111.5,-0.5 1.5,-0.5"/>
<text text-anchor="middle" x="56.5" y="-7.5" font-family="Helvetica,sans-Serif" font-size="10.00">hal::mock::timer::reset</text>
</a>
</g>
</g>
<!-- Node1&#45;&gt;Node10 -->
<g id="edge9" class="edge">
<title>Node1&#45;&gt;Node10</title>
<path fill="none" stroke="midnightblue" d="M197.31,-160.98C185.28,-129.39 157.06,-66.04 113,-30 107.69,-25.65 101.36,-22.21 94.9,-19.5"/>
<polygon fill="midnightblue" stroke="midnightblue" points="194.04,-162.21 200.77,-170.39 200.61,-159.79 194.04,-162.21"/>
</g>
</g>
</svg>
