<?xml version="1.0" encoding="UTF-8" standalone="no"?>
<!DOCTYPE svg PUBLIC "-//W3C//DTD SVG 1.1//EN"
 "http://www.w3.org/Graphics/SVG/1.1/DTD/svg11.dtd">
<!-- Generated by graphviz version 3.0.0 (20220413.0242)
 -->
<!-- Title: hal::counter_timeout::create Pages: 1 -->
<svg width="338pt" height="52pt"
 viewBox="0.00 0.00 338.00 51.50" xmlns="http://www.w3.org/2000/svg" xmlns:xlink="http://www.w3.org/1999/xlink">
<g id="graph0" class="graph" transform="scale(1 1) rotate(0) translate(4 47.5)">
<title>hal::counter_timeout::create</title>
<polygon fill="white" stroke="transparent" points="-4,4 -4,-47.5 334,-47.5 334,4 -4,4"/>
<!-- Node1 -->
<g id="node1" class="node">
<title>Node1</title>
<g id="a_node1"><a xlink:title="Create a counter_timeout.">
<polygon fill="#bfbfbf" stroke="black" points="226,-0.5 226,-30.5 330,-30.5 330,-0.5 226,-0.5"/>
<text text-anchor="start" x="234" y="-18.5" font-family="Helvetica,sans-Serif" font-size="10.00">hal::counter_timeout</text>
<text text-anchor="middle" x="278" y="-7.5" font-family="Helvetica,sans-Serif" font-size="10.00">::create</text>
</a>
</g>
</g>
<!-- Node2 -->
<g id="node2" class="node">
<title>Node2</title>
<g id="a_node2"><a xlink:href="group__counter.html#ga0f73c780e3eb7b86be65a1746ccc1c95" target="_top" xlink:title="Create a timeout object based on hal::counter.">
<polygon fill="white" stroke="black" points="92,-6 92,-25 190,-25 190,-6 92,-6"/>
<text text-anchor="middle" x="141" y="-13" font-family="Helvetica,sans-Serif" font-size="10.00">hal::create_timeout</text>
</a>
</g>
</g>
<!-- Node1&#45;&gt;Node2 -->
<g id="edge1" class="edge">
<title>Node1&#45;&gt;Node2</title>
<path fill="none" stroke="midnightblue" d="M215.72,-15.5C207.25,-15.5 198.64,-15.5 190.43,-15.5"/>
<polygon fill="midnightblue" stroke="midnightblue" points="215.96,-19 225.96,-15.5 215.96,-12 215.96,-19"/>
</g>
<!-- Node3 -->
<g id="node3" class="node">
<title>Node3</title>
<g id="a_node3"><a xlink:href="group__counter.html#ga8b4d520b8fbf98436b255041f73b9a8d" target="_top" xlink:title="Delay execution for a duration of time using a hardware counter.">
<polygon fill="white" stroke="black" points="0,-6 0,-25 56,-25 56,-6 0,-6"/>
<text text-anchor="middle" x="28" y="-13" font-family="Helvetica,sans-Serif" font-size="10.00">hal::delay</text>
</a>
</g>
</g>
<!-- Node2&#45;&gt;Node3 -->
<g id="edge2" class="edge">
<title>Node2&#45;&gt;Node3</title>
<path fill="none" stroke="midnightblue" d="M81.8,-15.5C72.8,-15.5 63.89,-15.5 56.03,-15.5"/>
<polygon fill="midnightblue" stroke="midnightblue" points="81.96,-19 91.96,-15.5 81.96,-12 81.96,-19"/>
</g>
<!-- Node3&#45;&gt;Node3 -->
<g id="edge3" class="edge">
<title>Node3&#45;&gt;Node3</title>
<path fill="none" stroke="midnightblue" d="M48.74,-34.9C47.35,-39.81 40.44,-43.5 28,-43.5 8.09,-43.5 2.34,-34.07 10.74,-25.26"/>
<polygon fill="midnightblue" stroke="midnightblue" points="51.95,-33.48 45.26,-25.26 45.36,-35.85 51.95,-33.48"/>
</g>
</g>
</svg>
