<?xml version="1.0" encoding="UTF-8" standalone="no"?>
<!DOCTYPE svg PUBLIC "-//W3C//DTD SVG 1.1//EN"
 "http://www.w3.org/Graphics/SVG/1.1/DTD/svg11.dtd">
<!-- Generated by graphviz version 3.0.0 (20220413.0242)
 -->
<!-- Title: hal::percentage_t::equals Pages: 1 -->
<svg width="234pt" height="78pt"
 viewBox="0.00 0.00 234.00 77.50" xmlns="http://www.w3.org/2000/svg" xmlns:xlink="http://www.w3.org/1999/xlink">
<g id="graph0" class="graph" transform="scale(1 1) rotate(0) translate(4 73.5)">
<title>hal::percentage_t::equals</title>
<polygon fill="white" stroke="transparent" points="-4,4 -4,-73.5 230,-73.5 230,4 -4,4"/>
<!-- Node1 -->
<g id="node1" class="node">
<title>Node1</title>
<g id="a_node1"><a xlink:title=" ">
<polygon fill="#bfbfbf" stroke="black" points="0,-22.5 0,-52.5 95,-52.5 95,-22.5 0,-22.5"/>
<text text-anchor="start" x="8" y="-40.5" font-family="Helvetica,sans-Serif" font-size="10.00">hal::percentage_t::</text>
<text text-anchor="middle" x="47.5" y="-29.5" font-family="Helvetica,sans-Serif" font-size="10.00">equals</text>
</a>
</g>
</g>
<!-- Node2 -->
<g id="node2" class="node">
<title>Node2</title>
<g id="a_node2"><a xlink:href="group__utility.html#ga0edbd3360d379f8c1864447f60a79271" target="_top" xlink:title="Determines if two values are equal within a relative error.">
<polygon fill="white" stroke="black" points="147.5,-50 147.5,-69 209.5,-69 209.5,-50 147.5,-50"/>
<text text-anchor="middle" x="178.5" y="-57" font-family="Helvetica,sans-Serif" font-size="10.00">hal::equals</text>
</a>
</g>
</g>
<!-- Node1&#45;&gt;Node2 -->
<g id="edge1" class="edge">
<title>Node1&#45;&gt;Node2</title>
<path fill="none" stroke="midnightblue" d="M95.07,-45.44C108.99,-47.82 124.12,-50.4 137.57,-52.69"/>
<polygon fill="midnightblue" stroke="midnightblue" points="137.03,-56.15 147.48,-54.38 138.21,-49.25 137.03,-56.15"/>
</g>
<!-- Node3 -->
<g id="node3" class="node">
<title>Node3</title>
<g id="a_node3"><a xlink:href="classhal_1_1percentage__t.html#a4f4980f87874d213c4e4887df6979fc2" target="_top" xlink:title=" ">
<polygon fill="white" stroke="black" points="131,-0.5 131,-30.5 226,-30.5 226,-0.5 131,-0.5"/>
<text text-anchor="start" x="139" y="-18.5" font-family="Helvetica,sans-Serif" font-size="10.00">hal::percentage_t::</text>
<text text-anchor="middle" x="178.5" y="-7.5" font-family="Helvetica,sans-Serif" font-size="10.00">value</text>
</a>
</g>
</g>
<!-- Node1&#45;&gt;Node3 -->
<g id="edge2" class="edge">
<title>Node1&#45;&gt;Node3</title>
<path fill="none" stroke="midnightblue" d="M95.07,-29.56C103.48,-28.12 112.32,-26.62 120.97,-25.14"/>
<polygon fill="midnightblue" stroke="midnightblue" points="121.73,-28.56 131,-23.43 120.55,-21.66 121.73,-28.56"/>
</g>
</g>
</svg>
