<?xml version="1.0" encoding="UTF-8" standalone="no"?>
<!DOCTYPE svg PUBLIC "-//W3C//DTD SVG 1.1//EN"
 "http://www.w3.org/Graphics/SVG/1.1/DTD/svg11.dtd">
<!-- Generated by graphviz version 3.0.0 (20220413.0242)
 -->
<!-- Title: /github/workspace/include/libhal/servo Pages: 1 -->
<svg width="94pt" height="167pt"
 viewBox="0.00 0.00 94.00 167.00" xmlns="http://www.w3.org/2000/svg" xmlns:xlink="http://www.w3.org/1999/xlink">
<g id="graph0" class="graph" transform="scale(1 1) rotate(0) translate(4 163)">
<title>/github/workspace/include/libhal/servo</title>
<polygon fill="white" stroke="transparent" points="-4,4 -4,-163 90,-163 90,4 -4,4"/>
<g id="clust1" class="cluster">
<title>clusterdir_6f6138918d4430761755642443839fe1</title>
<g id="a_clust1"><a xlink:href="dir_6f6138918d4430761755642443839fe1.html" target="_top" xlink:title="libhal">
<polygon fill="#edf0f7" stroke="#7f7f7f" stroke-dasharray="5,2" points="8,-8 8,-151 78,-151 78,-8 8,-8"/>
<text text-anchor="middle" x="43" y="-139" font-family="Helvetica,sans-Serif" font-size="10.00">libhal</text>
</a>
</g>
</g>
<!-- dir_682b10d87ee4d63011575fde6658375d -->
<g id="node1" class="node">
<title>dir_682b10d87ee4d63011575fde6658375d</title>
<g id="a_node1"><a xlink:href="dir_682b10d87ee4d63011575fde6658375d.html" target="_top" xlink:title="pwm">
<polygon fill="#a2b4d6" stroke="#404040" points="70,-52 16,-52 16,-16 70,-16 70,-52"/>
<text text-anchor="middle" x="43" y="-31.5" font-family="Helvetica,sans-Serif" font-size="10.00">pwm</text>
</a>
</g>
</g>
<!-- dir_39b37ccde8b9e5cc002bbe6ba530bb6e -->
<g id="node2" class="node">
<title>dir_39b37ccde8b9e5cc002bbe6ba530bb6e</title>
<g id="a_node2"><a xlink:href="dir_39b37ccde8b9e5cc002bbe6ba530bb6e.html" target="_top" xlink:title="servo">
<polygon fill="#edf0f7" stroke="#404040" stroke-width="2" points="70,-124 16,-124 16,-88 70,-88 70,-124"/>
<text text-anchor="middle" x="43" y="-103.5" font-family="Helvetica,sans-Serif" font-size="10.00">servo</text>
</a>
</g>
</g>
<!-- dir_39b37ccde8b9e5cc002bbe6ba530bb6e&#45;&gt;dir_682b10d87ee4d63011575fde6658375d -->
<g id="edge1" class="edge">
<title>dir_39b37ccde8b9e5cc002bbe6ba530bb6e&#45;&gt;dir_682b10d87ee4d63011575fde6658375d</title>
<path fill="none" stroke="black" d="M43,-87.7C43,-79.98 43,-70.71 43,-62.11"/>
<polygon fill="black" stroke="black" points="46.5,-62.1 43,-52.1 39.5,-62.1 46.5,-62.1"/>
<g id="a_edge1&#45;headlabel"><a xlink:href="dir_000013_000011.html" target="_top" xlink:title="1">
<text text-anchor="middle" x="49.34" y="-63.2" font-family="Helvetica,sans-Serif" font-size="10.00">1</text>
</a>
</g>
</g>
</g>
</svg>
