<?xml version="1.0" encoding="UTF-8" standalone="no"?>
<!DOCTYPE svg PUBLIC "-//W3C//DTD SVG 1.1//EN"
 "http://www.w3.org/Graphics/SVG/1.1/DTD/svg11.dtd">
<!-- Generated by graphviz version 3.0.0 (20220413.0242)
 -->
<!-- Title: /github/workspace/include/libhal Pages: 1 -->
<svg width="1018pt" height="183pt"
 viewBox="0.00 0.00 1018.00 183.00" xmlns="http://www.w3.org/2000/svg" xmlns:xlink="http://www.w3.org/1999/xlink">
<g id="graph0" class="graph" transform="scale(1 1) rotate(0) translate(4 179)">
<title>/github/workspace/include/libhal</title>
<polygon fill="white" stroke="transparent" points="-4,4 -4,-179 1014,-179 1014,4 -4,4"/>
<g id="clust1" class="cluster">
<title>clusterdir_d44c64559bbebec7f509842c48db8b23</title>
<g id="a_clust1"><a xlink:href="dir_d44c64559bbebec7f509842c48db8b23.html" target="_top" xlink:title="include">
<polygon fill="#edf0f7" stroke="#404040" stroke-dasharray="5,2" points="8,-8 8,-167 1002,-167 1002,-8 8,-8"/>
<text text-anchor="middle" x="505" y="-155" font-family="Helvetica,sans-Serif" font-size="10.00">include</text>
</a>
</g>
</g>
<g id="clust2" class="cluster">
<title>clusterdir_6f6138918d4430761755642443839fe1</title>
<g id="a_clust2"><a xlink:href="dir_6f6138918d4430761755642443839fe1.html" target="_top">
<polygon fill="#edf0f7" stroke="#404040" stroke-width="2" points="16,-16 16,-140 994,-140 994,-16 16,-16"/>
</a>
</g>
</g>
<!-- dir_6f6138918d4430761755642443839fe1 -->
<g id="node1" class="node">
<title>dir_6f6138918d4430761755642443839fe1</title>
<text text-anchor="middle" x="959" y="-111.5" font-family="Helvetica,sans-Serif" font-size="10.00">libhal</text>
</g>
<!-- dir_760cf9f2e29fdfaf39859eff3eda63b7 -->
<g id="node2" class="node">
<title>dir_760cf9f2e29fdfaf39859eff3eda63b7</title>
<g id="a_node2"><a xlink:href="dir_760cf9f2e29fdfaf39859eff3eda63b7.html" target="_top" xlink:title="adc">
<polygon fill="#a2b4d6" stroke="#404040" points="914,-132 860,-132 860,-96 914,-96 914,-132"/>
<text text-anchor="middle" x="887" y="-111.5" font-family="Helvetica,sans-Serif" font-size="10.00">adc</text>
</a>
</g>
</g>
<!-- dir_2f5068785988f516822d761fe16d825f -->
<g id="node3" class="node">
<title>dir_2f5068785988f516822d761fe16d825f</title>
<g id="a_node3"><a xlink:href="dir_2f5068785988f516822d761fe16d825f.html" target="_top" xlink:title="can">
<polygon fill="#a2b4d6" stroke="#404040" points="842,-132 788,-132 788,-96 842,-96 842,-132"/>
<text text-anchor="middle" x="815" y="-111.5" font-family="Helvetica,sans-Serif" font-size="10.00">can</text>
</a>
</g>
</g>
<!-- dir_98d4b174cb46c6ac17649649dfdb4b33 -->
<g id="node4" class="node">
<title>dir_98d4b174cb46c6ac17649649dfdb4b33</title>
<g id="a_node4"><a xlink:href="dir_98d4b174cb46c6ac17649649dfdb4b33.html" target="_top" xlink:title="dac">
<polygon fill="#a2b4d6" stroke="#404040" points="770,-132 716,-132 716,-96 770,-96 770,-132"/>
<text text-anchor="middle" x="743" y="-111.5" font-family="Helvetica,sans-Serif" font-size="10.00">dac</text>
</a>
</g>
</g>
<!-- dir_6f76471a93761b4e094be6eeb81723a9 -->
<g id="node5" class="node">
<title>dir_6f76471a93761b4e094be6eeb81723a9</title>
<g id="a_node5"><a xlink:href="dir_6f76471a93761b4e094be6eeb81723a9.html" target="_top" xlink:title="i2c">
<polygon fill="#a2b4d6" stroke="#404040" points="698,-132 644,-132 644,-96 698,-96 698,-132"/>
<text text-anchor="middle" x="671" y="-111.5" font-family="Helvetica,sans-Serif" font-size="10.00">i2c</text>
</a>
</g>
</g>
<!-- dir_db2548d0b28832a13bb2343f2aacd6e9 -->
<g id="node6" class="node">
<title>dir_db2548d0b28832a13bb2343f2aacd6e9</title>
<g id="a_node6"><a xlink:href="dir_db2548d0b28832a13bb2343f2aacd6e9.html" target="_top" xlink:title="input_pin">
<polygon fill="#a2b4d6" stroke="#404040" points="541,-60 485,-60 485,-24 541,-24 541,-60"/>
<text text-anchor="middle" x="513" y="-39.5" font-family="Helvetica,sans-Serif" font-size="10.00">input_pin</text>
</a>
</g>
</g>
<!-- dir_5b2c9e9d78f68f88c2fc294cf0766c78 -->
<g id="node7" class="node">
<title>dir_5b2c9e9d78f68f88c2fc294cf0766c78</title>
<g id="a_node7"><a xlink:href="dir_5b2c9e9d78f68f88c2fc294cf0766c78.html" target="_top" xlink:title="interrupt_pin">
<polygon fill="#a2b4d6" stroke="#404040" points="626,-132 556,-132 556,-96 626,-96 626,-132"/>
<text text-anchor="middle" x="591" y="-111.5" font-family="Helvetica,sans-Serif" font-size="10.00">interrupt_pin</text>
</a>
</g>
</g>
<!-- dir_5b2c9e9d78f68f88c2fc294cf0766c78&#45;&gt;dir_db2548d0b28832a13bb2343f2aacd6e9 -->
<g id="edge1" class="edge">
<title>dir_5b2c9e9d78f68f88c2fc294cf0766c78&#45;&gt;dir_db2548d0b28832a13bb2343f2aacd6e9</title>
<path fill="none" stroke="black" d="M571.72,-95.7C562.08,-87.05 550.27,-76.45 539.77,-67.03"/>
<polygon fill="black" stroke="black" points="541.84,-64.18 532.06,-60.1 537.16,-69.39 541.84,-64.18"/>
<g id="a_edge1&#45;headlabel"><a xlink:href="dir_000007_000006.html" target="_top" xlink:title="1">
<text text-anchor="middle" x="546.41" y="-61.97" font-family="Helvetica,sans-Serif" font-size="10.00">1</text>
</a>
</g>
</g>
<!-- dir_fcd238e3841b1690f4c3a80c89919e4e -->
<g id="node8" class="node">
<title>dir_fcd238e3841b1690f4c3a80c89919e4e</title>
<g id="a_node8"><a xlink:href="dir_fcd238e3841b1690f4c3a80c89919e4e.html" target="_top" xlink:title="motor">
<polygon fill="#a2b4d6" stroke="#404040" points="538,-132 484,-132 484,-96 538,-96 538,-132"/>
<text text-anchor="middle" x="511" y="-111.5" font-family="Helvetica,sans-Serif" font-size="10.00">motor</text>
</a>
</g>
</g>
<!-- dir_e096103ef1381f9eab03149936094d80 -->
<g id="node9" class="node">
<title>dir_e096103ef1381f9eab03149936094d80</title>
<g id="a_node9"><a xlink:href="dir_e096103ef1381f9eab03149936094d80.html" target="_top" xlink:title="output_pin">
<polygon fill="#a2b4d6" stroke="#404040" points="466,-132 404,-132 404,-96 466,-96 466,-132"/>
<text text-anchor="middle" x="435" y="-111.5" font-family="Helvetica,sans-Serif" font-size="10.00">output_pin</text>
</a>
</g>
</g>
<!-- dir_e096103ef1381f9eab03149936094d80&#45;&gt;dir_db2548d0b28832a13bb2343f2aacd6e9 -->
<g id="edge2" class="edge">
<title>dir_e096103ef1381f9eab03149936094d80&#45;&gt;dir_db2548d0b28832a13bb2343f2aacd6e9</title>
<path fill="none" stroke="black" d="M454.28,-95.7C463.92,-87.05 475.73,-76.45 486.23,-67.03"/>
<polygon fill="black" stroke="black" points="488.84,-69.39 493.94,-60.1 484.16,-64.18 488.84,-69.39"/>
<g id="a_edge2&#45;headlabel"><a xlink:href="dir_000010_000006.html" target="_top" xlink:title="1">
<text text-anchor="middle" x="488.06" y="-71.4" font-family="Helvetica,sans-Serif" font-size="10.00">1</text>
</a>
</g>
</g>
<!-- dir_682b10d87ee4d63011575fde6658375d -->
<g id="node10" class="node">
<title>dir_682b10d87ee4d63011575fde6658375d</title>
<g id="a_node10"><a xlink:href="dir_682b10d87ee4d63011575fde6658375d.html" target="_top" xlink:title="pwm">
<polygon fill="#a2b4d6" stroke="#404040" points="314,-60 260,-60 260,-24 314,-24 314,-60"/>
<text text-anchor="middle" x="287" y="-39.5" font-family="Helvetica,sans-Serif" font-size="10.00">pwm</text>
</a>
</g>
</g>
<!-- dir_ae7f3d9437384d5d0cf8a0d75335f597 -->
<g id="node11" class="node">
<title>dir_ae7f3d9437384d5d0cf8a0d75335f597</title>
<g id="a_node11"><a xlink:href="dir_ae7f3d9437384d5d0cf8a0d75335f597.html" target="_top" xlink:title="serial">
<polygon fill="#a2b4d6" stroke="#404040" points="386,-132 332,-132 332,-96 386,-96 386,-132"/>
<text text-anchor="middle" x="359" y="-111.5" font-family="Helvetica,sans-Serif" font-size="10.00">serial</text>
</a>
</g>
</g>
<!-- dir_39b37ccde8b9e5cc002bbe6ba530bb6e -->
<g id="node12" class="node">
<title>dir_39b37ccde8b9e5cc002bbe6ba530bb6e</title>
<g id="a_node12"><a xlink:href="dir_39b37ccde8b9e5cc002bbe6ba530bb6e.html" target="_top" xlink:title="servo">
<polygon fill="#a2b4d6" stroke="#404040" points="314,-132 260,-132 260,-96 314,-96 314,-132"/>
<text text-anchor="middle" x="287" y="-111.5" font-family="Helvetica,sans-Serif" font-size="10.00">servo</text>
</a>
</g>
</g>
<!-- dir_39b37ccde8b9e5cc002bbe6ba530bb6e&#45;&gt;dir_682b10d87ee4d63011575fde6658375d -->
<g id="edge3" class="edge">
<title>dir_39b37ccde8b9e5cc002bbe6ba530bb6e&#45;&gt;dir_682b10d87ee4d63011575fde6658375d</title>
<path fill="none" stroke="black" d="M287,-95.7C287,-87.98 287,-78.71 287,-70.11"/>
<polygon fill="black" stroke="black" points="290.5,-70.1 287,-60.1 283.5,-70.1 290.5,-70.1"/>
<g id="a_edge3&#45;headlabel"><a xlink:href="dir_000013_000011.html" target="_top" xlink:title="1">
<text text-anchor="middle" x="293.34" y="-71.2" font-family="Helvetica,sans-Serif" font-size="10.00">1</text>
</a>
</g>
</g>
<!-- dir_bd7c36f4df99d4c2b92bd82d9a68b893 -->
<g id="node13" class="node">
<title>dir_bd7c36f4df99d4c2b92bd82d9a68b893</title>
<g id="a_node13"><a xlink:href="dir_bd7c36f4df99d4c2b92bd82d9a68b893.html" target="_top" xlink:title="spi">
<polygon fill="#a2b4d6" stroke="#404040" points="242,-132 188,-132 188,-96 242,-96 242,-132"/>
<text text-anchor="middle" x="215" y="-111.5" font-family="Helvetica,sans-Serif" font-size="10.00">spi</text>
</a>
</g>
</g>
<!-- dir_ade55ffdd4604fb559c18178634a20fb -->
<g id="node14" class="node">
<title>dir_ade55ffdd4604fb559c18178634a20fb</title>
<g id="a_node14"><a xlink:href="dir_ade55ffdd4604fb559c18178634a20fb.html" target="_top" xlink:title="steady_clock">
<polygon fill="#a2b4d6" stroke="#404040" points="170,-132 96,-132 96,-96 170,-96 170,-132"/>
<text text-anchor="middle" x="133" y="-111.5" font-family="Helvetica,sans-Serif" font-size="10.00">steady_clock</text>
</a>
</g>
</g>
<!-- dir_81e5849e9c890799da201f6a87e8f4ff -->
<g id="node15" class="node">
<title>dir_81e5849e9c890799da201f6a87e8f4ff</title>
<g id="a_node15"><a xlink:href="dir_81e5849e9c890799da201f6a87e8f4ff.html" target="_top" xlink:title="timer">
<polygon fill="#a2b4d6" stroke="#404040" points="78,-132 24,-132 24,-96 78,-96 78,-132"/>
<text text-anchor="middle" x="51" y="-111.5" font-family="Helvetica,sans-Serif" font-size="10.00">timer</text>
</a>
</g>
</g>
</g>
</svg>
