<?xml version="1.0" encoding="UTF-8" standalone="no"?>
<!DOCTYPE svg PUBLIC "-//W3C//DTD SVG 1.1//EN"
 "http://www.w3.org/Graphics/SVG/1.1/DTD/svg11.dtd">
<!-- Generated by graphviz version 3.0.0 (20220413.0242)
 -->
<!-- Title: /github/workspace/include/libhal/output_pin Pages: 1 -->
<svg width="102pt" height="167pt"
 viewBox="0.00 0.00 102.00 167.00" xmlns="http://www.w3.org/2000/svg" xmlns:xlink="http://www.w3.org/1999/xlink">
<g id="graph0" class="graph" transform="scale(1 1) rotate(0) translate(4 163)">
<title>/github/workspace/include/libhal/output_pin</title>
<polygon fill="white" stroke="transparent" points="-4,4 -4,-163 98,-163 98,4 -4,4"/>
<g id="clust1" class="cluster">
<title>clusterdir_6f6138918d4430761755642443839fe1</title>
<g id="a_clust1"><a xlink:href="dir_6f6138918d4430761755642443839fe1.html" target="_top" xlink:title="libhal">
<polygon fill="#edf0f7" stroke="#7f7f7f" stroke-dasharray="5,2" points="8,-8 8,-151 86,-151 86,-8 8,-8"/>
<text text-anchor="middle" x="47" y="-139" font-family="Helvetica,sans-Serif" font-size="10.00">libhal</text>
</a>
</g>
</g>
<!-- dir_db2548d0b28832a13bb2343f2aacd6e9 -->
<g id="node1" class="node">
<title>dir_db2548d0b28832a13bb2343f2aacd6e9</title>
<g id="a_node1"><a xlink:href="dir_db2548d0b28832a13bb2343f2aacd6e9.html" target="_top" xlink:title="input_pin">
<polygon fill="#a2b4d6" stroke="#404040" points="75,-52 19,-52 19,-16 75,-16 75,-52"/>
<text text-anchor="middle" x="47" y="-31.5" font-family="Helvetica,sans-Serif" font-size="10.00">input_pin</text>
</a>
</g>
</g>
<!-- dir_e096103ef1381f9eab03149936094d80 -->
<g id="node2" class="node">
<title>dir_e096103ef1381f9eab03149936094d80</title>
<g id="a_node2"><a xlink:href="dir_e096103ef1381f9eab03149936094d80.html" target="_top" xlink:title="output_pin">
<polygon fill="#edf0f7" stroke="#404040" stroke-width="2" points="78,-124 16,-124 16,-88 78,-88 78,-124"/>
<text text-anchor="middle" x="47" y="-103.5" font-family="Helvetica,sans-Serif" font-size="10.00">output_pin</text>
</a>
</g>
</g>
<!-- dir_e096103ef1381f9eab03149936094d80&#45;&gt;dir_db2548d0b28832a13bb2343f2aacd6e9 -->
<g id="edge1" class="edge">
<title>dir_e096103ef1381f9eab03149936094d80&#45;&gt;dir_db2548d0b28832a13bb2343f2aacd6e9</title>
<path fill="none" stroke="black" d="M47,-87.7C47,-79.98 47,-70.71 47,-62.11"/>
<polygon fill="black" stroke="black" points="50.5,-62.1 47,-52.1 43.5,-62.1 50.5,-62.1"/>
<g id="a_edge1&#45;headlabel"><a xlink:href="dir_000011_000007.html" target="_top" xlink:title="1">
<text text-anchor="middle" x="53.34" y="-63.2" font-family="Helvetica,sans-Serif" font-size="10.00">1</text>
</a>
</g>
</g>
</g>
</svg>
