<?xml version="1.0" encoding="UTF-8" standalone="no"?>
<!DOCTYPE svg PUBLIC "-//W3C//DTD SVG 1.1//EN"
 "http://www.w3.org/Graphics/SVG/1.1/DTD/svg11.dtd">
<!-- Generated by graphviz version 3.0.0 (20220413.0242)
 -->
<!-- Title: /github/workspace/include/libhal/interrupt_pin Pages: 1 -->
<svg width="110pt" height="167pt"
 viewBox="0.00 0.00 110.00 167.00" xmlns="http://www.w3.org/2000/svg" xmlns:xlink="http://www.w3.org/1999/xlink">
<g id="graph0" class="graph" transform="scale(1 1) rotate(0) translate(4 163)">
<title>/github/workspace/include/libhal/interrupt_pin</title>
<polygon fill="white" stroke="transparent" points="-4,4 -4,-163 106,-163 106,4 -4,4"/>
<g id="clust1" class="cluster">
<title>clusterdir_6f6138918d4430761755642443839fe1</title>
<g id="a_clust1"><a xlink:href="dir_6f6138918d4430761755642443839fe1.html" target="_top" xlink:title="libhal">
<polygon fill="#edf0f7" stroke="#7f7f7f" stroke-dasharray="5,2" points="8,-8 8,-151 94,-151 94,-8 8,-8"/>
<text text-anchor="middle" x="51" y="-139" font-family="Helvetica,sans-Serif" font-size="10.00">libhal</text>
</a>
</g>
</g>
<!-- dir_db2548d0b28832a13bb2343f2aacd6e9 -->
<g id="node1" class="node">
<title>dir_db2548d0b28832a13bb2343f2aacd6e9</title>
<g id="a_node1"><a xlink:href="dir_db2548d0b28832a13bb2343f2aacd6e9.html" target="_top" xlink:title="input_pin">
<polygon fill="#a2b4d6" stroke="#404040" points="79,-52 23,-52 23,-16 79,-16 79,-52"/>
<text text-anchor="middle" x="51" y="-31.5" font-family="Helvetica,sans-Serif" font-size="10.00">input_pin</text>
</a>
</g>
</g>
<!-- dir_5b2c9e9d78f68f88c2fc294cf0766c78 -->
<g id="node2" class="node">
<title>dir_5b2c9e9d78f68f88c2fc294cf0766c78</title>
<g id="a_node2"><a xlink:href="dir_5b2c9e9d78f68f88c2fc294cf0766c78.html" target="_top" xlink:title="interrupt_pin">
<polygon fill="#edf0f7" stroke="#404040" stroke-width="2" points="86,-124 16,-124 16,-88 86,-88 86,-124"/>
<text text-anchor="middle" x="51" y="-103.5" font-family="Helvetica,sans-Serif" font-size="10.00">interrupt_pin</text>
</a>
</g>
</g>
<!-- dir_5b2c9e9d78f68f88c2fc294cf0766c78&#45;&gt;dir_db2548d0b28832a13bb2343f2aacd6e9 -->
<g id="edge1" class="edge">
<title>dir_5b2c9e9d78f68f88c2fc294cf0766c78&#45;&gt;dir_db2548d0b28832a13bb2343f2aacd6e9</title>
<path fill="none" stroke="black" d="M51,-87.7C51,-79.98 51,-70.71 51,-62.11"/>
<polygon fill="black" stroke="black" points="54.5,-62.1 51,-52.1 47.5,-62.1 54.5,-62.1"/>
<g id="a_edge1&#45;headlabel"><a xlink:href="dir_000007_000006.html" target="_top" xlink:title="1">
<text text-anchor="middle" x="57.34" y="-63.2" font-family="Helvetica,sans-Serif" font-size="10.00">1</text>
</a>
</g>
</g>
</g>
</svg>
