<?xml version="1.0" encoding="UTF-8" standalone="no"?>
<!DOCTYPE svg PUBLIC "-//W3C//DTD SVG 1.1//EN"
 "http://www.w3.org/Graphics/SVG/1.1/DTD/svg11.dtd">
<!-- Generated by graphviz version 3.0.0 (20220413.0242)
 -->
<!-- Title: hal::write Pages: 1 -->
<svg width="202pt" height="66pt"
 viewBox="0.00 0.00 202.00 66.00" xmlns="http://www.w3.org/2000/svg" xmlns:xlink="http://www.w3.org/1999/xlink">
<g id="graph0" class="graph" transform="scale(1 1) rotate(0) translate(4 62)">
<title>hal::write</title>
<polygon fill="white" stroke="transparent" points="-4,4 -4,-62 198,-62 198,4 -4,4"/>
<!-- Node1 -->
<g id="node1" class="node">
<title>Node1</title>
<g id="a_node1"><a xlink:title="write data to a target device on the i2c bus">
<polygon fill="#bfbfbf" stroke="black" points="139,-19.5 139,-38.5 194,-38.5 194,-19.5 139,-19.5"/>
<text text-anchor="middle" x="166.5" y="-26.5" font-family="Helvetica,sans-Serif" font-size="10.00">hal::write</text>
</a>
</g>
</g>
<!-- Node2 -->
<g id="node2" class="node">
<title>Node2</title>
<g id="a_node2"><a xlink:href="group__serial.html#ga2952837cd8d503a962e7edf748737925" target="_top" xlink:title="Write std::span of const char to a serial port.">
<polygon fill="white" stroke="black" points="24,-38.5 24,-57.5 79,-57.5 79,-38.5 24,-38.5"/>
<text text-anchor="middle" x="51.5" y="-45.5" font-family="Helvetica,sans-Serif" font-size="10.00">hal::write</text>
</a>
</g>
</g>
<!-- Node1&#45;&gt;Node2 -->
<g id="edge1" class="edge">
<title>Node1&#45;&gt;Node2</title>
<path fill="none" stroke="midnightblue" d="M128.53,-35.22C112.39,-37.93 93.83,-41.05 79.09,-43.53"/>
<polygon fill="midnightblue" stroke="midnightblue" points="129.44,-38.61 138.72,-33.5 128.28,-31.71 129.44,-38.61"/>
</g>
<!-- Node3 -->
<g id="node3" class="node">
<title>Node3</title>
<g id="a_node3"><a xlink:href="group__spi.html#ga0304f6c421db748182386f3dc4547916" target="_top" xlink:title="Write data to the SPI bus and ignore data sent from peripherals on the bus then read data from the SP...">
<polygon fill="white" stroke="black" points="0,-0.5 0,-19.5 103,-19.5 103,-0.5 0,-0.5"/>
<text text-anchor="middle" x="51.5" y="-7.5" font-family="Helvetica,sans-Serif" font-size="10.00">hal::write_then_read</text>
</a>
</g>
</g>
<!-- Node1&#45;&gt;Node3 -->
<g id="edge2" class="edge">
<title>Node1&#45;&gt;Node3</title>
<path fill="none" stroke="midnightblue" d="M128.72,-22.82C120.51,-21.44 111.67,-19.95 103.01,-18.49"/>
<polygon fill="midnightblue" stroke="midnightblue" points="128.28,-26.29 138.72,-24.5 129.44,-19.39 128.28,-26.29"/>
</g>
</g>
</svg>
