<?xml version="1.0" encoding="UTF-8" standalone="no"?>
<!DOCTYPE svg PUBLIC "-//W3C//DTD SVG 1.1//EN"
 "http://www.w3.org/Graphics/SVG/1.1/DTD/svg11.dtd">
<!-- Generated by graphviz version 3.0.0 (20220413.0242)
 -->
<!-- Title: hal::equals Pages: 1 -->
<svg width="341pt" height="274pt"
 viewBox="0.00 0.00 341.00 273.50" xmlns="http://www.w3.org/2000/svg" xmlns:xlink="http://www.w3.org/1999/xlink">
<g id="graph0" class="graph" transform="scale(1 1) rotate(0) translate(4 269.5)">
<title>hal::equals</title>
<polygon fill="white" stroke="transparent" points="-4,4 -4,-269.5 337,-269.5 337,4 -4,4"/>
<!-- Node1 -->
<g id="node1" class="node">
<title>Node1</title>
<g id="a_node1"><a xlink:title="Determines if two values are equal within a relative error.">
<polygon fill="#bfbfbf" stroke="black" points="271,-117.5 271,-136.5 333,-136.5 333,-117.5 271,-117.5"/>
<text text-anchor="middle" x="302" y="-124.5" font-family="Helvetica,sans-Serif" font-size="10.00">hal::equals</text>
</a>
</g>
</g>
<!-- Node2 -->
<g id="node2" class="node">
<title>Node2</title>
<g id="a_node2"><a xlink:href="classhal_1_1percentage__t.html#a8ced119c33c374397afc799002c4fdda" target="_top" xlink:title=" ">
<polygon fill="white" stroke="black" points="139.5,-235 139.5,-265 234.5,-265 234.5,-235 139.5,-235"/>
<text text-anchor="start" x="147.5" y="-253" font-family="Helvetica,sans-Serif" font-size="10.00">hal::percentage_t::</text>
<text text-anchor="middle" x="187" y="-242" font-family="Helvetica,sans-Serif" font-size="10.00">equals</text>
</a>
</g>
</g>
<!-- Node1&#45;&gt;Node2 -->
<g id="edge1" class="edge">
<title>Node1&#45;&gt;Node2</title>
<path fill="none" stroke="midnightblue" d="M292.22,-145.74C281.33,-167.36 260.97,-202.88 235,-226 231.3,-229.29 227.08,-232.26 222.71,-234.9"/>
<polygon fill="midnightblue" stroke="midnightblue" points="295.43,-147.14 296.67,-136.62 289.14,-144.07 295.43,-147.14"/>
</g>
<!-- Node4 -->
<g id="node4" class="node">
<title>Node4</title>
<g id="a_node4"><a xlink:href="structhal_1_1can_1_1settings.html#a469ea305bf23ad2bf66931880e118d6f" target="_top" xlink:title="Operators ==.">
<polygon fill="white" stroke="black" points="142.5,-186 142.5,-216 231.5,-216 231.5,-186 142.5,-186"/>
<text text-anchor="start" x="150.5" y="-204" font-family="Helvetica,sans-Serif" font-size="10.00">hal::can::settings</text>
<text text-anchor="middle" x="187" y="-193" font-family="Helvetica,sans-Serif" font-size="10.00">::operator==</text>
</a>
</g>
</g>
<!-- Node1&#45;&gt;Node4 -->
<g id="edge3" class="edge">
<title>Node1&#45;&gt;Node4</title>
<path fill="none" stroke="midnightblue" d="M281.22,-143.44C268.44,-153.69 251.23,-166.82 235,-177 230.11,-180.07 224.78,-183.08 219.52,-185.87"/>
<polygon fill="midnightblue" stroke="midnightblue" points="283.74,-145.9 289.29,-136.88 279.33,-140.47 283.74,-145.9"/>
</g>
<!-- Node5 -->
<g id="node5" class="node">
<title>Node5</title>
<g id="a_node5"><a xlink:href="structhal_1_1i2c_1_1settings.html#a14d2a0afad4c6c449af7b844da807427" target="_top" xlink:title="Operators ==.">
<polygon fill="white" stroke="black" points="144,-137 144,-167 230,-167 230,-137 144,-137"/>
<text text-anchor="start" x="152" y="-155" font-family="Helvetica,sans-Serif" font-size="10.00">hal::i2c::settings</text>
<text text-anchor="middle" x="187" y="-144" font-family="Helvetica,sans-Serif" font-size="10.00">::operator==</text>
</a>
</g>
</g>
<!-- Node1&#45;&gt;Node5 -->
<g id="edge4" class="edge">
<title>Node1&#45;&gt;Node5</title>
<path fill="none" stroke="midnightblue" d="M260.73,-135.91C250.85,-138.1 240.24,-140.44 230.26,-142.65"/>
<polygon fill="midnightblue" stroke="midnightblue" points="261.71,-139.28 270.72,-133.7 260.2,-132.44 261.71,-139.28"/>
</g>
<!-- Node6 -->
<g id="node6" class="node">
<title>Node6</title>
<g id="a_node6"><a xlink:href="structhal_1_1serial_1_1settings.html#acbf8c6ea25f2304cd3a669844b5bc69f" target="_top" xlink:title="Operators ==.">
<polygon fill="white" stroke="black" points="139,-88 139,-118 235,-118 235,-88 139,-88"/>
<text text-anchor="start" x="147" y="-106" font-family="Helvetica,sans-Serif" font-size="10.00">hal::serial::settings</text>
<text text-anchor="middle" x="187" y="-95" font-family="Helvetica,sans-Serif" font-size="10.00">::operator==</text>
</a>
</g>
</g>
<!-- Node1&#45;&gt;Node6 -->
<g id="edge5" class="edge">
<title>Node1&#45;&gt;Node6</title>
<path fill="none" stroke="midnightblue" d="M260.67,-118.43C252.49,-116.7 243.81,-114.85 235.4,-113.07"/>
<polygon fill="midnightblue" stroke="midnightblue" points="260.21,-121.91 270.72,-120.57 261.66,-115.07 260.21,-121.91"/>
</g>
<!-- Node7 -->
<g id="node7" class="node">
<title>Node7</title>
<g id="a_node7"><a xlink:href="structhal_1_1spi_1_1settings.html#ad109043fce765ae6c8d6a70c6e6460ec" target="_top" xlink:title="Operators ==.">
<polygon fill="white" stroke="black" points="144,-39 144,-69 230,-69 230,-39 144,-39"/>
<text text-anchor="start" x="152" y="-57" font-family="Helvetica,sans-Serif" font-size="10.00">hal::spi::settings</text>
<text text-anchor="middle" x="187" y="-46" font-family="Helvetica,sans-Serif" font-size="10.00">::operator==</text>
</a>
</g>
</g>
<!-- Node1&#45;&gt;Node7 -->
<g id="edge6" class="edge">
<title>Node1&#45;&gt;Node7</title>
<path fill="none" stroke="midnightblue" d="M280.6,-111.02C267.81,-101.3 250.81,-88.89 235,-79 229.67,-75.67 223.86,-72.34 218.19,-69.25"/>
<polygon fill="midnightblue" stroke="midnightblue" points="278.65,-113.94 288.71,-117.26 282.92,-108.39 278.65,-113.94"/>
</g>
<!-- Node8 -->
<g id="node8" class="node">
<title>Node8</title>
<g id="a_node8"><a xlink:href="group__utility.html#ga80ad6db29189e74fcb1a49dc801897b3" target="_top" xlink:title="Calculates and returns the wavelength in seconds.">
<polygon fill="white" stroke="black" points="145.5,-0.5 145.5,-19.5 228.5,-19.5 228.5,-0.5 145.5,-0.5"/>
<text text-anchor="middle" x="187" y="-7.5" font-family="Helvetica,sans-Serif" font-size="10.00">hal::wavelength</text>
</a>
</g>
</g>
<!-- Node1&#45;&gt;Node8 -->
<g id="edge7" class="edge">
<title>Node1&#45;&gt;Node8</title>
<path fill="none" stroke="midnightblue" d="M292.52,-108.05C281.91,-86.27 261.83,-50.74 235,-29 230.35,-25.23 224.86,-22.12 219.29,-19.59"/>
<polygon fill="midnightblue" stroke="midnightblue" points="289.42,-109.68 296.84,-117.25 295.76,-106.71 289.42,-109.68"/>
</g>
<!-- Node3 -->
<g id="node3" class="node">
<title>Node3</title>
<g id="a_node3"><a xlink:href="classhal_1_1percentage__t.html#abbd93a131984685995ecd6e50aecd8f6" target="_top" xlink:title=" ">
<polygon fill="white" stroke="black" points="4,-235 4,-265 99,-265 99,-235 4,-235"/>
<text text-anchor="start" x="12" y="-253" font-family="Helvetica,sans-Serif" font-size="10.00">hal::percentage_t::</text>
<text text-anchor="middle" x="51.5" y="-242" font-family="Helvetica,sans-Serif" font-size="10.00">operator==</text>
</a>
</g>
</g>
<!-- Node2&#45;&gt;Node3 -->
<g id="edge2" class="edge">
<title>Node2&#45;&gt;Node3</title>
<path fill="none" stroke="midnightblue" d="M129.12,-250C119.21,-250 109,-250 99.39,-250"/>
<polygon fill="midnightblue" stroke="midnightblue" points="129.31,-253.5 139.31,-250 129.31,-246.5 129.31,-253.5"/>
</g>
<!-- Node9 -->
<g id="node9" class="node">
<title>Node9</title>
<g id="a_node9"><a xlink:href="classhal_1_1rc__servo.html#a4b6b2863a7ea2f9e426f32c89a29c8c5" target="_top" xlink:title="Factory function to create a rc_servo object.">
<polygon fill="white" stroke="black" points="0,-0.5 0,-19.5 103,-19.5 103,-0.5 0,-0.5"/>
<text text-anchor="middle" x="51.5" y="-7.5" font-family="Helvetica,sans-Serif" font-size="10.00">hal::rc_servo::create</text>
</a>
</g>
</g>
<!-- Node8&#45;&gt;Node9 -->
<g id="edge8" class="edge">
<title>Node8&#45;&gt;Node9</title>
<path fill="none" stroke="midnightblue" d="M135.07,-10C124.7,-10 113.78,-10 103.41,-10"/>
<polygon fill="midnightblue" stroke="midnightblue" points="135.22,-13.5 145.22,-10 135.22,-6.5 135.22,-13.5"/>
</g>
</g>
</svg>
