<?xml version="1.0" encoding="UTF-8" standalone="no"?>
<!DOCTYPE svg PUBLIC "-//W3C//DTD SVG 1.1//EN"
 "http://www.w3.org/Graphics/SVG/1.1/DTD/svg11.dtd">
<!-- Generated by graphviz version 3.0.0 (20220413.0242)
 -->
<!-- Title: hal::write Pages: 1 -->
<svg width="307pt" height="66pt"
 viewBox="0.00 0.00 307.00 66.00" xmlns="http://www.w3.org/2000/svg" xmlns:xlink="http://www.w3.org/1999/xlink">
<g id="graph0" class="graph" transform="scale(1 1) rotate(0) translate(4 62)">
<title>hal::write</title>
<polygon fill="white" stroke="transparent" points="-4,4 -4,-62 303,-62 303,4 -4,4"/>
<!-- Node1 -->
<g id="node1" class="node">
<title>Node1</title>
<g id="a_node1"><a xlink:title="Write std::span of const char to a serial port.">
<polygon fill="#bfbfbf" stroke="black" points="0,-19.5 0,-38.5 55,-38.5 55,-19.5 0,-19.5"/>
<text text-anchor="middle" x="27.5" y="-26.5" font-family="Helvetica,sans-Serif" font-size="10.00">hal::write</text>
</a>
</g>
</g>
<!-- Node2 -->
<g id="node2" class="node">
<title>Node2</title>
<g id="a_node2"><a xlink:href="namespacehal.html#a7facad0d80497e875c8fcb9a764ae278" target="_top" xlink:title=" ">
<polygon fill="white" stroke="black" points="91,-38.5 91,-57.5 164,-57.5 164,-38.5 91,-38.5"/>
<text text-anchor="middle" x="127.5" y="-45.5" font-family="Helvetica,sans-Serif" font-size="10.00">hal::as_bytes</text>
</a>
</g>
</g>
<!-- Node1&#45;&gt;Node2 -->
<g id="edge1" class="edge">
<title>Node1&#45;&gt;Node2</title>
<path fill="none" stroke="midnightblue" d="M55.02,-34.14C63.01,-35.69 72.02,-37.44 80.88,-39.16"/>
<polygon fill="midnightblue" stroke="midnightblue" points="80.27,-42.6 90.76,-41.07 81.61,-35.73 80.27,-42.6"/>
</g>
<!-- Node3 -->
<g id="node3" class="node">
<title>Node3</title>
<g id="a_node3"><a xlink:href="group__i2c.html#ga602272331e4e2f84843e2fe34e83cca6" target="_top" xlink:title="write data to a target device on the i2c bus">
<polygon fill="white" stroke="black" points="100,-0.5 100,-19.5 155,-19.5 155,-0.5 100,-0.5"/>
<text text-anchor="middle" x="127.5" y="-7.5" font-family="Helvetica,sans-Serif" font-size="10.00">hal::write</text>
</a>
</g>
</g>
<!-- Node1&#45;&gt;Node3 -->
<g id="edge2" class="edge">
<title>Node1&#45;&gt;Node3</title>
<path fill="none" stroke="midnightblue" d="M55.02,-23.86C65.81,-21.77 78.45,-19.32 90.07,-17.06"/>
<polygon fill="midnightblue" stroke="midnightblue" points="90.81,-20.49 99.96,-15.15 89.48,-13.61 90.81,-20.49"/>
</g>
<!-- Node4 -->
<g id="node4" class="node">
<title>Node4</title>
<g id="a_node4"><a xlink:href="classhal_1_1i2c.html#a6fdda0db9f4e4aaa48750914d02b4a73" target="_top" xlink:title="perform an i2c transaction with another device on the bus. The type of transaction depends on values ...">
<polygon fill="white" stroke="black" points="200,-0.5 200,-19.5 299,-19.5 299,-0.5 200,-0.5"/>
<text text-anchor="middle" x="249.5" y="-7.5" font-family="Helvetica,sans-Serif" font-size="10.00">hal::i2c::transaction</text>
</a>
</g>
</g>
<!-- Node3&#45;&gt;Node4 -->
<g id="edge3" class="edge">
<title>Node3&#45;&gt;Node4</title>
<path fill="none" stroke="midnightblue" d="M155.13,-10C165.38,-10 177.54,-10 189.63,-10"/>
<polygon fill="midnightblue" stroke="midnightblue" points="189.73,-13.5 199.73,-10 189.73,-6.5 189.73,-13.5"/>
</g>
</g>
</svg>
