<?xml version="1.0" encoding="UTF-8" standalone="no"?>
<!DOCTYPE svg PUBLIC "-//W3C//DTD SVG 1.1//EN"
 "http://www.w3.org/Graphics/SVG/1.1/DTD/svg11.dtd">
<!-- Generated by graphviz version 3.0.0 (20220413.0242)
 -->
<!-- Title: hal::duration_from_cycles Pages: 1 -->
<svg width="214pt" height="52pt"
 viewBox="0.00 0.00 214.00 51.50" xmlns="http://www.w3.org/2000/svg" xmlns:xlink="http://www.w3.org/1999/xlink">
<g id="graph0" class="graph" transform="scale(1 1) rotate(0) translate(4 47.5)">
<title>hal::duration_from_cycles</title>
<polygon fill="white" stroke="transparent" points="-4,4 -4,-47.5 210,-47.5 210,4 -4,4"/>
<!-- Node1 -->
<g id="node1" class="node">
<title>Node1</title>
<g id="a_node1"><a xlink:title="Calculate the amount of time it takes a frequency to oscillate a number of cycles.">
<polygon fill="#bfbfbf" stroke="black" points="0,-0.5 0,-30.5 93,-30.5 93,-0.5 0,-0.5"/>
<text text-anchor="start" x="8" y="-18.5" font-family="Helvetica,sans-Serif" font-size="10.00">hal::duration_from</text>
<text text-anchor="middle" x="46.5" y="-7.5" font-family="Helvetica,sans-Serif" font-size="10.00">_cycles</text>
</a>
</g>
</g>
<!-- Node2 -->
<g id="node2" class="node">
<title>Node2</title>
<g id="a_node2"><a xlink:href="namespacehal.html#a09499a696428213091b196699563099f" target="_top" xlink:title=" ">
<polygon fill="white" stroke="black" points="129,-6 129,-25 206,-25 206,-6 129,-6"/>
<text text-anchor="middle" x="167.5" y="-13" font-family="Helvetica,sans-Serif" font-size="10.00">hal::new_error</text>
</a>
</g>
</g>
<!-- Node1&#45;&gt;Node2 -->
<g id="edge1" class="edge">
<title>Node1&#45;&gt;Node2</title>
<path fill="none" stroke="midnightblue" d="M93.17,-15.5C101.56,-15.5 110.33,-15.5 118.78,-15.5"/>
<polygon fill="midnightblue" stroke="midnightblue" points="118.87,-19 128.87,-15.5 118.87,-12 118.87,-19"/>
</g>
<!-- Node2&#45;&gt;Node2 -->
<g id="edge2" class="edge">
<title>Node2&#45;&gt;Node2</title>
<path fill="none" stroke="midnightblue" d="M149,-25.26C140.01,-34.07 146.17,-43.5 167.5,-43.5 181.16,-43.5 188.6,-39.63 189.82,-34.53"/>
<polygon fill="midnightblue" stroke="midnightblue" points="193.05,-33.17 186,-25.26 186.57,-35.84 193.05,-33.17"/>
</g>
</g>
</svg>
