<?xml version="1.0" encoding="UTF-8" standalone="no"?>
<!DOCTYPE svg PUBLIC "-//W3C//DTD SVG 1.1//EN"
 "http://www.w3.org/Graphics/SVG/1.1/DTD/svg11.dtd">
<!-- Generated by graphviz version 3.0.0 (20220413.0242)
 -->
<!-- Title: hal::delay Pages: 1 -->
<svg width="526pt" height="137pt"
 viewBox="0.00 0.00 526.00 137.00" xmlns="http://www.w3.org/2000/svg" xmlns:xlink="http://www.w3.org/1999/xlink">
<g id="graph0" class="graph" transform="scale(1 1) rotate(0) translate(4 133)">
<title>hal::delay</title>
<polygon fill="white" stroke="transparent" points="-4,4 -4,-133 522,-133 522,4 -4,4"/>
<!-- Node1 -->
<g id="node1" class="node">
<title>Node1</title>
<g id="a_node1"><a xlink:title="Delay execution for a duration of time using a hardware steady_clock.">
<polygon fill="#bfbfbf" stroke="black" points="0,-55 0,-74 56,-74 56,-55 0,-55"/>
<text text-anchor="middle" x="28" y="-62" font-family="Helvetica,sans-Serif" font-size="10.00">hal::delay</text>
</a>
</g>
</g>
<!-- Node1&#45;&gt;Node1 -->
<g id="edge6" class="edge">
<title>Node1&#45;&gt;Node1</title>
<path fill="none" stroke="midnightblue" d="M10.74,-74.26C2.34,-83.07 8.09,-92.5 28,-92.5 40.44,-92.5 47.35,-88.81 48.74,-83.9"/>
<polygon fill="midnightblue" stroke="midnightblue" points="51.95,-82.48 45.26,-74.26 45.36,-84.85 51.95,-82.48"/>
</g>
<!-- Node2 -->
<g id="node2" class="node">
<title>Node2</title>
<g id="a_node2"><a xlink:href="group__steady__clock.html#ga8c92db3eb5ae3b8e67f16261a6f71d91" target="_top" xlink:title="Create a timeout object based on hal::steady_clock.">
<polygon fill="white" stroke="black" points="92,-55 92,-74 190,-74 190,-55 92,-55"/>
<text text-anchor="middle" x="141" y="-62" font-family="Helvetica,sans-Serif" font-size="10.00">hal::create_timeout</text>
</a>
</g>
</g>
<!-- Node1&#45;&gt;Node2 -->
<g id="edge1" class="edge">
<title>Node1&#45;&gt;Node2</title>
<path fill="none" stroke="midnightblue" d="M56.15,-64.5C63.99,-64.5 72.85,-64.5 81.81,-64.5"/>
<polygon fill="midnightblue" stroke="midnightblue" points="81.91,-68 91.91,-64.5 81.91,-61 81.91,-68"/>
</g>
<!-- Node3 -->
<g id="node3" class="node">
<title>Node3</title>
<g id="a_node3"><a xlink:href="classhal_1_1steady__clock__timeout.html#a99c29478d0ba4dbe114bb644ae060398" target="_top" xlink:title="Create a steady_clock_timeout.">
<polygon fill="white" stroke="black" points="226,-49.5 226,-79.5 354,-79.5 354,-49.5 226,-49.5"/>
<text text-anchor="start" x="234" y="-67.5" font-family="Helvetica,sans-Serif" font-size="10.00">hal::steady_clock_timeout</text>
<text text-anchor="middle" x="290" y="-56.5" font-family="Helvetica,sans-Serif" font-size="10.00">::create</text>
</a>
</g>
</g>
<!-- Node2&#45;&gt;Node3 -->
<g id="edge2" class="edge">
<title>Node2&#45;&gt;Node3</title>
<path fill="none" stroke="midnightblue" d="M190.13,-64.5C198.32,-64.5 206.98,-64.5 215.64,-64.5"/>
<polygon fill="midnightblue" stroke="midnightblue" points="215.78,-68 225.78,-64.5 215.78,-61 215.78,-68"/>
</g>
<!-- Node4 -->
<g id="node4" class="node">
<title>Node4</title>
<g id="a_node4"><a xlink:href="classhal_1_1steady__clock.html#a1649f15f2c141378cb37ed3b5c5e9819" target="_top" xlink:title=" ">
<polygon fill="white" stroke="black" points="406.5,-98.5 406.5,-128.5 501.5,-128.5 501.5,-98.5 406.5,-98.5"/>
<text text-anchor="start" x="414.5" y="-116.5" font-family="Helvetica,sans-Serif" font-size="10.00">hal::steady_clock::</text>
<text text-anchor="middle" x="454" y="-105.5" font-family="Helvetica,sans-Serif" font-size="10.00">frequency</text>
</a>
</g>
</g>
<!-- Node3&#45;&gt;Node4 -->
<g id="edge3" class="edge">
<title>Node3&#45;&gt;Node4</title>
<path fill="none" stroke="midnightblue" d="M340.93,-79.6C358.58,-84.94 378.55,-90.98 396.7,-96.47"/>
<polygon fill="midnightblue" stroke="midnightblue" points="395.69,-99.82 406.28,-99.37 397.72,-93.12 395.69,-99.82"/>
</g>
<!-- Node5 -->
<g id="node5" class="node">
<title>Node5</title>
<g id="a_node5"><a xlink:href="classhal_1_1steady__clock__timeout.html#aa508fa6272c371739ecca4ff69babe41" target="_top" xlink:title="Construct a new counter timeout object.">
<polygon fill="white" stroke="black" points="390,-49.5 390,-79.5 518,-79.5 518,-49.5 390,-49.5"/>
<text text-anchor="start" x="398" y="-67.5" font-family="Helvetica,sans-Serif" font-size="10.00">hal::steady_clock_timeout</text>
<text text-anchor="middle" x="454" y="-56.5" font-family="Helvetica,sans-Serif" font-size="10.00">::steady_clock_timeout</text>
</a>
</g>
</g>
<!-- Node3&#45;&gt;Node5 -->
<g id="edge4" class="edge">
<title>Node3&#45;&gt;Node5</title>
<path fill="none" stroke="midnightblue" d="M354.1,-64.5C362.43,-64.5 371.04,-64.5 379.53,-64.5"/>
<polygon fill="midnightblue" stroke="midnightblue" points="379.81,-68 389.81,-64.5 379.81,-61 379.81,-68"/>
</g>
<!-- Node6 -->
<g id="node6" class="node">
<title>Node6</title>
<g id="a_node6"><a xlink:href="classhal_1_1steady__clock.html#acfb741df8313f6b67b9cbe5b425014b4" target="_top" xlink:title=" ">
<polygon fill="white" stroke="black" points="406.5,-0.5 406.5,-30.5 501.5,-30.5 501.5,-0.5 406.5,-0.5"/>
<text text-anchor="start" x="414.5" y="-18.5" font-family="Helvetica,sans-Serif" font-size="10.00">hal::steady_clock::</text>
<text text-anchor="middle" x="454" y="-7.5" font-family="Helvetica,sans-Serif" font-size="10.00">uptime</text>
</a>
</g>
</g>
<!-- Node3&#45;&gt;Node6 -->
<g id="edge5" class="edge">
<title>Node3&#45;&gt;Node6</title>
<path fill="none" stroke="midnightblue" d="M340.93,-49.4C358.58,-44.06 378.55,-38.02 396.7,-32.53"/>
<polygon fill="midnightblue" stroke="midnightblue" points="397.72,-35.88 406.28,-29.63 395.69,-29.18 397.72,-35.88"/>
</g>
</g>
</svg>
