<?xml version="1.0" encoding="UTF-8" standalone="no"?>
<!DOCTYPE svg PUBLIC "-//W3C//DTD SVG 1.1//EN"
 "http://www.w3.org/Graphics/SVG/1.1/DTD/svg11.dtd">
<!-- Generated by graphviz version 3.0.0 (20220413.0242)
 -->
<!-- Title: hal::create_timeout Pages: 1 -->
<svg width="434pt" height="137pt"
 viewBox="0.00 0.00 434.00 137.00" xmlns="http://www.w3.org/2000/svg" xmlns:xlink="http://www.w3.org/1999/xlink">
<g id="graph0" class="graph" transform="scale(1 1) rotate(0) translate(4 133)">
<title>hal::create_timeout</title>
<polygon fill="white" stroke="transparent" points="-4,4 -4,-133 430,-133 430,4 -4,4"/>
<!-- Node1 -->
<g id="node1" class="node">
<title>Node1</title>
<g id="a_node1"><a xlink:title="Create a timeout object based on hal::steady_clock.">
<polygon fill="#bfbfbf" stroke="black" points="0,-55 0,-74 98,-74 98,-55 0,-55"/>
<text text-anchor="middle" x="49" y="-62" font-family="Helvetica,sans-Serif" font-size="10.00">hal::create_timeout</text>
</a>
</g>
</g>
<!-- Node2 -->
<g id="node2" class="node">
<title>Node2</title>
<g id="a_node2"><a xlink:href="classhal_1_1steady__clock__timeout.html#a99c29478d0ba4dbe114bb644ae060398" target="_top" xlink:title="Create a steady_clock_timeout.">
<polygon fill="white" stroke="black" points="134,-49.5 134,-79.5 262,-79.5 262,-49.5 134,-49.5"/>
<text text-anchor="start" x="142" y="-67.5" font-family="Helvetica,sans-Serif" font-size="10.00">hal::steady_clock_timeout</text>
<text text-anchor="middle" x="198" y="-56.5" font-family="Helvetica,sans-Serif" font-size="10.00">::create</text>
</a>
</g>
</g>
<!-- Node1&#45;&gt;Node2 -->
<g id="edge1" class="edge">
<title>Node1&#45;&gt;Node2</title>
<path fill="none" stroke="midnightblue" d="M98.13,-64.5C106.32,-64.5 114.98,-64.5 123.64,-64.5"/>
<polygon fill="midnightblue" stroke="midnightblue" points="123.78,-68 133.78,-64.5 123.78,-61 123.78,-68"/>
</g>
<!-- Node3 -->
<g id="node3" class="node">
<title>Node3</title>
<g id="a_node3"><a xlink:href="classhal_1_1steady__clock.html#a1649f15f2c141378cb37ed3b5c5e9819" target="_top" xlink:title=" ">
<polygon fill="white" stroke="black" points="314.5,-98.5 314.5,-128.5 409.5,-128.5 409.5,-98.5 314.5,-98.5"/>
<text text-anchor="start" x="322.5" y="-116.5" font-family="Helvetica,sans-Serif" font-size="10.00">hal::steady_clock::</text>
<text text-anchor="middle" x="362" y="-105.5" font-family="Helvetica,sans-Serif" font-size="10.00">frequency</text>
</a>
</g>
</g>
<!-- Node2&#45;&gt;Node3 -->
<g id="edge2" class="edge">
<title>Node2&#45;&gt;Node3</title>
<path fill="none" stroke="midnightblue" d="M248.93,-79.6C266.58,-84.94 286.55,-90.98 304.7,-96.47"/>
<polygon fill="midnightblue" stroke="midnightblue" points="303.69,-99.82 314.28,-99.37 305.72,-93.12 303.69,-99.82"/>
</g>
<!-- Node4 -->
<g id="node4" class="node">
<title>Node4</title>
<g id="a_node4"><a xlink:href="classhal_1_1steady__clock__timeout.html#aa508fa6272c371739ecca4ff69babe41" target="_top" xlink:title="Construct a new counter timeout object.">
<polygon fill="white" stroke="black" points="298,-49.5 298,-79.5 426,-79.5 426,-49.5 298,-49.5"/>
<text text-anchor="start" x="306" y="-67.5" font-family="Helvetica,sans-Serif" font-size="10.00">hal::steady_clock_timeout</text>
<text text-anchor="middle" x="362" y="-56.5" font-family="Helvetica,sans-Serif" font-size="10.00">::steady_clock_timeout</text>
</a>
</g>
</g>
<!-- Node2&#45;&gt;Node4 -->
<g id="edge3" class="edge">
<title>Node2&#45;&gt;Node4</title>
<path fill="none" stroke="midnightblue" d="M262.1,-64.5C270.43,-64.5 279.04,-64.5 287.53,-64.5"/>
<polygon fill="midnightblue" stroke="midnightblue" points="287.81,-68 297.81,-64.5 287.81,-61 287.81,-68"/>
</g>
<!-- Node5 -->
<g id="node5" class="node">
<title>Node5</title>
<g id="a_node5"><a xlink:href="classhal_1_1steady__clock.html#acfb741df8313f6b67b9cbe5b425014b4" target="_top" xlink:title=" ">
<polygon fill="white" stroke="black" points="314.5,-0.5 314.5,-30.5 409.5,-30.5 409.5,-0.5 314.5,-0.5"/>
<text text-anchor="start" x="322.5" y="-18.5" font-family="Helvetica,sans-Serif" font-size="10.00">hal::steady_clock::</text>
<text text-anchor="middle" x="362" y="-7.5" font-family="Helvetica,sans-Serif" font-size="10.00">uptime</text>
</a>
</g>
</g>
<!-- Node2&#45;&gt;Node5 -->
<g id="edge4" class="edge">
<title>Node2&#45;&gt;Node5</title>
<path fill="none" stroke="midnightblue" d="M248.93,-49.4C266.58,-44.06 286.55,-38.02 304.7,-32.53"/>
<polygon fill="midnightblue" stroke="midnightblue" points="305.72,-35.88 314.28,-29.63 303.69,-29.18 305.72,-35.88"/>
</g>
</g>
</svg>
