<?xml version="1.0" encoding="UTF-8" standalone="no"?>
<!DOCTYPE svg PUBLIC "-//W3C//DTD SVG 1.1//EN"
 "http://www.w3.org/Graphics/SVG/1.1/DTD/svg11.dtd">
<!-- Generated by graphviz version 3.0.0 (20220413.0242)
 -->
<!-- Title: hal::create_timeout Pages: 1 -->
<svg width="198pt" height="46pt"
 viewBox="0.00 0.00 198.00 46.00" xmlns="http://www.w3.org/2000/svg" xmlns:xlink="http://www.w3.org/1999/xlink">
<g id="graph0" class="graph" transform="scale(1 1) rotate(0) translate(4 42)">
<title>hal::create_timeout</title>
<polygon fill="white" stroke="transparent" points="-4,4 -4,-42 194,-42 194,4 -4,4"/>
<!-- Node1 -->
<g id="node1" class="node">
<title>Node1</title>
<g id="a_node1"><a xlink:title="Create a timeout object based on hal::steady_clock.">
<polygon fill="#bfbfbf" stroke="black" points="92,-0.5 92,-19.5 190,-19.5 190,-0.5 92,-0.5"/>
<text text-anchor="middle" x="141" y="-7.5" font-family="Helvetica,sans-Serif" font-size="10.00">hal::create_timeout</text>
</a>
</g>
</g>
<!-- Node2 -->
<g id="node2" class="node">
<title>Node2</title>
<g id="a_node2"><a xlink:href="group__steady__clock.html#ga80cd2610c280e615d52e03d83dad28f6" target="_top" xlink:title="Delay execution for a duration of time using a hardware steady_clock.">
<polygon fill="white" stroke="black" points="0,-0.5 0,-19.5 56,-19.5 56,-0.5 0,-0.5"/>
<text text-anchor="middle" x="28" y="-7.5" font-family="Helvetica,sans-Serif" font-size="10.00">hal::delay</text>
</a>
</g>
</g>
<!-- Node1&#45;&gt;Node2 -->
<g id="edge1" class="edge">
<title>Node1&#45;&gt;Node2</title>
<path fill="none" stroke="midnightblue" d="M81.8,-10C72.8,-10 63.89,-10 56.03,-10"/>
<polygon fill="midnightblue" stroke="midnightblue" points="81.96,-13.5 91.96,-10 81.96,-6.5 81.96,-13.5"/>
</g>
<!-- Node2&#45;&gt;Node2 -->
<g id="edge2" class="edge">
<title>Node2&#45;&gt;Node2</title>
<path fill="none" stroke="midnightblue" d="M48.74,-29.4C47.35,-34.31 40.44,-38 28,-38 8.09,-38 2.34,-28.57 10.74,-19.76"/>
<polygon fill="midnightblue" stroke="midnightblue" points="51.95,-27.98 45.26,-19.76 45.36,-30.35 51.95,-27.98"/>
</g>
</g>
</svg>
