<?xml version="1.0" encoding="UTF-8" standalone="no"?>
<!DOCTYPE svg PUBLIC "-//W3C//DTD SVG 1.1//EN"
 "http://www.w3.org/Graphics/SVG/1.1/DTD/svg11.dtd">
<!-- Generated by graphviz version 3.0.0 (20220413.0242)
 -->
<!-- Title: hal::write_then_read Pages: 1 -->
<svg width="368pt" height="66pt"
 viewBox="0.00 0.00 368.00 66.00" xmlns="http://www.w3.org/2000/svg" xmlns:xlink="http://www.w3.org/1999/xlink">
<g id="graph0" class="graph" transform="scale(1 1) rotate(0) translate(4 62)">
<title>hal::write_then_read</title>
<polygon fill="white" stroke="transparent" points="-4,4 -4,-62 364,-62 364,4 -4,4"/>
<!-- Node1 -->
<g id="node1" class="node">
<title>Node1</title>
<g id="a_node1"><a xlink:title="Perform a write then read transaction over serial.">
<polygon fill="#bfbfbf" stroke="black" points="0,-19.5 0,-38.5 103,-38.5 103,-19.5 0,-19.5"/>
<text text-anchor="middle" x="51.5" y="-26.5" font-family="Helvetica,sans-Serif" font-size="10.00">hal::write_then_read</text>
</a>
</g>
</g>
<!-- Node2 -->
<g id="node2" class="node">
<title>Node2</title>
<g id="a_node2"><a xlink:href="group__i2c.html#ga00694e558039dbf0a2e4f2a438754e10" target="_top" xlink:title="read bytes from target device on i2c bus">
<polygon fill="white" stroke="black" points="155.5,-38.5 155.5,-57.5 208.5,-57.5 208.5,-38.5 155.5,-38.5"/>
<text text-anchor="middle" x="182" y="-45.5" font-family="Helvetica,sans-Serif" font-size="10.00">hal::read</text>
</a>
</g>
</g>
<!-- Node1&#45;&gt;Node2 -->
<g id="edge1" class="edge">
<title>Node1&#45;&gt;Node2</title>
<path fill="none" stroke="midnightblue" d="M103.29,-36.51C117.35,-38.59 132.31,-40.8 145.31,-42.72"/>
<polygon fill="midnightblue" stroke="midnightblue" points="144.86,-46.19 155.26,-44.19 145.88,-39.27 144.86,-46.19"/>
</g>
<!-- Node4 -->
<g id="node4" class="node">
<title>Node4</title>
<g id="a_node4"><a xlink:href="group__serial.html#gaaa5b03ce12092b1d95e5fc426c3bbf6d" target="_top" xlink:title="Write bytes to a serial port.">
<polygon fill="white" stroke="black" points="139,-0.5 139,-19.5 225,-19.5 225,-0.5 139,-0.5"/>
<text text-anchor="middle" x="182" y="-7.5" font-family="Helvetica,sans-Serif" font-size="10.00">hal::write_partial</text>
</a>
</g>
</g>
<!-- Node1&#45;&gt;Node4 -->
<g id="edge3" class="edge">
<title>Node1&#45;&gt;Node4</title>
<path fill="none" stroke="midnightblue" d="M103.29,-21.49C111.67,-20.25 120.36,-18.97 128.78,-17.72"/>
<polygon fill="midnightblue" stroke="midnightblue" points="129.48,-21.16 138.86,-16.23 128.45,-14.23 129.48,-21.16"/>
</g>
<!-- Node3 -->
<g id="node3" class="node">
<title>Node3</title>
<g id="a_node3"><a xlink:href="classhal_1_1i2c.html#a6fdda0db9f4e4aaa48750914d02b4a73" target="_top" xlink:title="perform an i2c transaction with another device on the bus. The type of transaction depends on values ...">
<polygon fill="white" stroke="black" points="261,-38.5 261,-57.5 360,-57.5 360,-38.5 261,-38.5"/>
<text text-anchor="middle" x="310.5" y="-45.5" font-family="Helvetica,sans-Serif" font-size="10.00">hal::i2c::transaction</text>
</a>
</g>
</g>
<!-- Node2&#45;&gt;Node3 -->
<g id="edge2" class="edge">
<title>Node2&#45;&gt;Node3</title>
<path fill="none" stroke="midnightblue" d="M208.6,-48C220.8,-48 235.94,-48 250.75,-48"/>
<polygon fill="midnightblue" stroke="midnightblue" points="250.91,-51.5 260.91,-48 250.91,-44.5 250.91,-51.5"/>
</g>
</g>
</svg>
