<?xml version="1.0" encoding="UTF-8" standalone="no"?>
<!DOCTYPE svg PUBLIC "-//W3C//DTD SVG 1.1//EN"
 "http://www.w3.org/Graphics/SVG/1.1/DTD/svg11.dtd">
<!-- Generated by graphviz version 3.0.0 (20220413.0242)
 -->
<!-- Title: hal::equals Pages: 1 -->
<svg width="202pt" height="225pt"
 viewBox="0.00 0.00 202.00 224.50" xmlns="http://www.w3.org/2000/svg" xmlns:xlink="http://www.w3.org/1999/xlink">
<g id="graph0" class="graph" transform="scale(1 1) rotate(0) translate(4 220.5)">
<title>hal::equals</title>
<polygon fill="white" stroke="transparent" points="-4,4 -4,-220.5 198,-220.5 198,4 -4,4"/>
<!-- Node1 -->
<g id="node1" class="node">
<title>Node1</title>
<g id="a_node1"><a xlink:title="Determines if two values are equal within a relative error.">
<polygon fill="#bfbfbf" stroke="black" points="132,-93.5 132,-112.5 194,-112.5 194,-93.5 132,-93.5"/>
<text text-anchor="middle" x="163" y="-100.5" font-family="Helvetica,sans-Serif" font-size="10.00">hal::equals</text>
</a>
</g>
</g>
<!-- Node2 -->
<g id="node2" class="node">
<title>Node2</title>
<g id="a_node2"><a xlink:href="structhal_1_1can_1_1settings.html#a469ea305bf23ad2bf66931880e118d6f" target="_top" xlink:title="Operators ==.">
<polygon fill="white" stroke="black" points="3.5,-186 3.5,-216 92.5,-216 92.5,-186 3.5,-186"/>
<text text-anchor="start" x="11.5" y="-204" font-family="Helvetica,sans-Serif" font-size="10.00">hal::can::settings</text>
<text text-anchor="middle" x="48" y="-193" font-family="Helvetica,sans-Serif" font-size="10.00">::operator==</text>
</a>
</g>
</g>
<!-- Node1&#45;&gt;Node2 -->
<g id="edge1" class="edge">
<title>Node1&#45;&gt;Node2</title>
<path fill="none" stroke="midnightblue" d="M149.21,-120.78C136.93,-136.93 117.16,-160.67 96,-177 91.79,-180.25 87.08,-183.25 82.31,-185.96"/>
<polygon fill="midnightblue" stroke="midnightblue" points="152.07,-122.79 155.23,-112.68 146.45,-118.62 152.07,-122.79"/>
</g>
<!-- Node3 -->
<g id="node3" class="node">
<title>Node3</title>
<g id="a_node3"><a xlink:href="structhal_1_1i2c_1_1settings.html#a14d2a0afad4c6c449af7b844da807427" target="_top" xlink:title="Operators ==.">
<polygon fill="white" stroke="black" points="5,-137 5,-167 91,-167 91,-137 5,-137"/>
<text text-anchor="start" x="13" y="-155" font-family="Helvetica,sans-Serif" font-size="10.00">hal::i2c::settings</text>
<text text-anchor="middle" x="48" y="-144" font-family="Helvetica,sans-Serif" font-size="10.00">::operator==</text>
</a>
</g>
</g>
<!-- Node1&#45;&gt;Node3 -->
<g id="edge2" class="edge">
<title>Node1&#45;&gt;Node3</title>
<path fill="none" stroke="midnightblue" d="M130.42,-116.69C115.95,-122.97 98.75,-130.43 83.9,-136.87"/>
<polygon fill="midnightblue" stroke="midnightblue" points="132.16,-119.75 139.94,-112.56 129.38,-113.33 132.16,-119.75"/>
</g>
<!-- Node4 -->
<g id="node4" class="node">
<title>Node4</title>
<g id="a_node4"><a xlink:href="structhal_1_1serial_1_1settings.html#acbf8c6ea25f2304cd3a669844b5bc69f" target="_top" xlink:title="Operators ==.">
<polygon fill="white" stroke="black" points="0,-88 0,-118 96,-118 96,-88 0,-88"/>
<text text-anchor="start" x="8" y="-106" font-family="Helvetica,sans-Serif" font-size="10.00">hal::serial::settings</text>
<text text-anchor="middle" x="48" y="-95" font-family="Helvetica,sans-Serif" font-size="10.00">::operator==</text>
</a>
</g>
</g>
<!-- Node1&#45;&gt;Node4 -->
<g id="edge3" class="edge">
<title>Node1&#45;&gt;Node4</title>
<path fill="none" stroke="midnightblue" d="M121.67,-103C113.49,-103 104.81,-103 96.4,-103"/>
<polygon fill="midnightblue" stroke="midnightblue" points="121.72,-106.5 131.72,-103 121.72,-99.5 121.72,-106.5"/>
</g>
<!-- Node5 -->
<g id="node5" class="node">
<title>Node5</title>
<g id="a_node5"><a xlink:href="structhal_1_1spi_1_1settings.html#ad109043fce765ae6c8d6a70c6e6460ec" target="_top" xlink:title="Operators ==.">
<polygon fill="white" stroke="black" points="5,-39 5,-69 91,-69 91,-39 5,-39"/>
<text text-anchor="start" x="13" y="-57" font-family="Helvetica,sans-Serif" font-size="10.00">hal::spi::settings</text>
<text text-anchor="middle" x="48" y="-46" font-family="Helvetica,sans-Serif" font-size="10.00">::operator==</text>
</a>
</g>
</g>
<!-- Node1&#45;&gt;Node5 -->
<g id="edge4" class="edge">
<title>Node1&#45;&gt;Node5</title>
<path fill="none" stroke="midnightblue" d="M130.42,-89.31C115.95,-83.03 98.75,-75.57 83.9,-69.13"/>
<polygon fill="midnightblue" stroke="midnightblue" points="129.38,-92.67 139.94,-93.44 132.16,-86.25 129.38,-92.67"/>
</g>
<!-- Node6 -->
<g id="node6" class="node">
<title>Node6</title>
<g id="a_node6"><a xlink:href="group__utility.html#gac884b3e7857a710a51651bf449c5dd86" target="_top" xlink:title="Calculates and returns the wavelength in seconds as a float.">
<polygon fill="white" stroke="black" points="6.5,-0.5 6.5,-19.5 89.5,-19.5 89.5,-0.5 6.5,-0.5"/>
<text text-anchor="middle" x="48" y="-7.5" font-family="Helvetica,sans-Serif" font-size="10.00">hal::wavelength</text>
</a>
</g>
</g>
<!-- Node1&#45;&gt;Node6 -->
<g id="edge5" class="edge">
<title>Node1&#45;&gt;Node6</title>
<path fill="none" stroke="midnightblue" d="M149.42,-85.13C137.28,-68.96 117.6,-45.39 96,-30 90.22,-25.88 83.47,-22.39 76.91,-19.52"/>
<polygon fill="midnightblue" stroke="midnightblue" points="146.63,-87.24 155.35,-93.25 152.28,-83.11 146.63,-87.24"/>
</g>
</g>
</svg>
