<?xml version="1.0" encoding="UTF-8" standalone="no"?>
<!DOCTYPE svg PUBLIC "-//W3C//DTD SVG 1.1//EN"
 "http://www.w3.org/Graphics/SVG/1.1/DTD/svg11.dtd">
<!-- Generated by graphviz version 3.0.0 (20220413.0242)
 -->
<!-- Title: hal::new_error Pages: 1 -->
<svg width="249pt" height="215pt"
 viewBox="0.00 0.00 249.00 215.00" xmlns="http://www.w3.org/2000/svg" xmlns:xlink="http://www.w3.org/1999/xlink">
<g id="graph0" class="graph" transform="scale(1 1) rotate(0) translate(4 211)">
<title>hal::new_error</title>
<polygon fill="white" stroke="transparent" points="-4,4 -4,-211 245,-211 245,4 -4,4"/>
<!-- Node1 -->
<g id="node1" class="node">
<title>Node1</title>
<g id="a_node1"><a xlink:title=" ">
<polygon fill="#bfbfbf" stroke="black" points="164,-94 164,-113 241,-113 241,-94 164,-94"/>
<text text-anchor="middle" x="202.5" y="-101" font-family="Helvetica,sans-Serif" font-size="10.00">hal::new_error</text>
</a>
</g>
</g>
<!-- Node1&#45;&gt;Node1 -->
<g id="edge3" class="edge">
<title>Node1&#45;&gt;Node1</title>
<path fill="none" stroke="midnightblue" d="M228.17,-122.53C226.77,-127.63 218.21,-131.5 202.5,-131.5 177.97,-131.5 170.88,-122.07 181.23,-113.26"/>
<polygon fill="midnightblue" stroke="midnightblue" points="231.22,-120.79 223.77,-113.26 224.89,-123.79 231.22,-120.79"/>
</g>
<!-- Node2 -->
<g id="node2" class="node">
<title>Node2</title>
<g id="a_node2"><a xlink:href="group__utility.html#gad3e3226fbdfad6db38eb093f1420489c" target="_top" xlink:title="Calculate the amount of time it takes a frequency to oscillate a number of cycles.">
<polygon fill="white" stroke="black" points="17.5,-176.5 17.5,-206.5 110.5,-206.5 110.5,-176.5 17.5,-176.5"/>
<text text-anchor="start" x="25.5" y="-194.5" font-family="Helvetica,sans-Serif" font-size="10.00">hal::duration_from</text>
<text text-anchor="middle" x="64" y="-183.5" font-family="Helvetica,sans-Serif" font-size="10.00">_cycles</text>
</a>
</g>
</g>
<!-- Node1&#45;&gt;Node2 -->
<g id="edge1" class="edge">
<title>Node1&#45;&gt;Node2</title>
<path fill="none" stroke="midnightblue" d="M184.89,-120.59C170.76,-134.39 149.41,-153.57 128,-166.5 121.96,-170.15 115.28,-173.46 108.61,-176.39"/>
<polygon fill="midnightblue" stroke="midnightblue" points="187.71,-122.72 192.32,-113.18 182.77,-117.76 187.71,-122.72"/>
</g>
<!-- Node3 -->
<g id="node3" class="node">
<title>Node3</title>
<g id="a_node3"><a xlink:href="group__utility.html#ga43fd2fa3493be5292dc4ea824e944d90" target="_top" xlink:title="Perform multiply operation and return an error code std::errc::result_out_of_range if the two values ...">
<polygon fill="white" stroke="black" points="30.5,-138 30.5,-157 97.5,-157 97.5,-138 30.5,-138"/>
<text text-anchor="middle" x="64" y="-145" font-family="Helvetica,sans-Serif" font-size="10.00">hal::multiply</text>
</a>
</g>
</g>
<!-- Node1&#45;&gt;Node3 -->
<g id="edge2" class="edge">
<title>Node1&#45;&gt;Node3</title>
<path fill="none" stroke="midnightblue" d="M164.21,-116.47C152.63,-120.42 139.81,-124.71 128,-128.5 118.1,-131.68 107.28,-134.99 97.44,-137.95"/>
<polygon fill="midnightblue" stroke="midnightblue" points="165.68,-119.66 174,-113.11 163.41,-113.04 165.68,-119.66"/>
</g>
<!-- Node4 -->
<g id="node4" class="node">
<title>Node4</title>
<g id="a_node4"><a xlink:href="classhal_1_1steady__clock__timeout.html#a32ed45d3e33492a6c5c9370edf97ac1d" target="_top" xlink:title="Call this object to check if it has timed out.">
<polygon fill="white" stroke="black" points="0,-88.5 0,-118.5 128,-118.5 128,-88.5 0,-88.5"/>
<text text-anchor="start" x="8" y="-106.5" font-family="Helvetica,sans-Serif" font-size="10.00">hal::steady_clock_timeout</text>
<text text-anchor="middle" x="64" y="-95.5" font-family="Helvetica,sans-Serif" font-size="10.00">::operator()</text>
</a>
</g>
</g>
<!-- Node1&#45;&gt;Node4 -->
<g id="edge4" class="edge">
<title>Node1&#45;&gt;Node4</title>
<path fill="none" stroke="midnightblue" d="M153.68,-103.5C145.45,-103.5 136.78,-103.5 128.21,-103.5"/>
<polygon fill="midnightblue" stroke="midnightblue" points="153.84,-107 163.84,-103.5 153.84,-100 153.84,-107"/>
</g>
<!-- Node5 -->
<g id="node5" class="node">
<title>Node5</title>
<g id="a_node5"><a xlink:href="classhal_1_1spy__handler.html#ab2ed5f0197c8aa76f896815225779b0a" target="_top" xlink:title="Record the arguments of a function being spied on.">
<polygon fill="white" stroke="black" points="5.5,-50 5.5,-69 122.5,-69 122.5,-50 5.5,-50"/>
<text text-anchor="middle" x="64" y="-57" font-family="Helvetica,sans-Serif" font-size="10.00">hal::spy_handler::record</text>
</a>
</g>
</g>
<!-- Node1&#45;&gt;Node5 -->
<g id="edge5" class="edge">
<title>Node1&#45;&gt;Node5</title>
<path fill="none" stroke="midnightblue" d="M162.97,-90.85C151.71,-87.17 139.36,-83.16 128,-79.5 117.3,-76.05 105.55,-72.31 95.14,-69.01"/>
<polygon fill="midnightblue" stroke="midnightblue" points="161.95,-94.2 172.54,-93.98 164.13,-87.55 161.95,-94.2"/>
</g>
<!-- Node6 -->
<g id="node6" class="node">
<title>Node6</title>
<g id="a_node6"><a xlink:href="classhal_1_1can__network.html#a05e6dc010a762511bb4d459ee55d42ac" target="_top" xlink:title="Associate a can id with a node in the can network.">
<polygon fill="white" stroke="black" points="1,-0.5 1,-30.5 127,-30.5 127,-0.5 1,-0.5"/>
<text text-anchor="start" x="9" y="-18.5" font-family="Helvetica,sans-Serif" font-size="10.00">hal::can_network::register</text>
<text text-anchor="middle" x="64" y="-7.5" font-family="Helvetica,sans-Serif" font-size="10.00">_message_id</text>
</a>
</g>
</g>
<!-- Node1&#45;&gt;Node6 -->
<g id="edge6" class="edge">
<title>Node1&#45;&gt;Node6</title>
<path fill="none" stroke="midnightblue" d="M184.89,-86.41C170.76,-72.61 149.41,-53.43 128,-40.5 121.96,-36.85 115.28,-33.54 108.61,-30.61"/>
<polygon fill="midnightblue" stroke="midnightblue" points="182.77,-89.24 192.32,-93.82 187.71,-84.28 182.77,-89.24"/>
</g>
</g>
</svg>
