<?xml version="1.0" encoding="UTF-8" standalone="no"?>
<!DOCTYPE svg PUBLIC "-//W3C//DTD SVG 1.1//EN"
 "http://www.w3.org/Graphics/SVG/1.1/DTD/svg11.dtd">
<!-- Generated by graphviz version 3.0.0 (20220413.0242)
 -->
<!-- Title: hal::new_error Pages: 1 -->
<svg width="476pt" height="303pt"
 viewBox="0.00 0.00 476.00 303.00" xmlns="http://www.w3.org/2000/svg" xmlns:xlink="http://www.w3.org/1999/xlink">
<g id="graph0" class="graph" transform="scale(1 1) rotate(0) translate(4 299)">
<title>hal::new_error</title>
<polygon fill="white" stroke="transparent" points="-4,4 -4,-299 472,-299 472,4 -4,4"/>
<!-- Node1 -->
<g id="node1" class="node">
<title>Node1</title>
<g id="a_node1"><a xlink:title=" ">
<polygon fill="#bfbfbf" stroke="black" points="391,-138 391,-157 468,-157 468,-138 391,-138"/>
<text text-anchor="middle" x="429.5" y="-145" font-family="Helvetica,sans-Serif" font-size="10.00">hal::new_error</text>
</a>
</g>
</g>
<!-- Node1&#45;&gt;Node1 -->
<g id="edge9" class="edge">
<title>Node1&#45;&gt;Node1</title>
<path fill="none" stroke="midnightblue" d="M454.8,-166.53C453.42,-171.63 444.99,-175.5 429.5,-175.5 405.33,-175.5 398.34,-166.07 408.54,-157.26"/>
<polygon fill="midnightblue" stroke="midnightblue" points="457.87,-164.83 450.46,-157.26 451.53,-167.8 457.87,-164.83"/>
</g>
<!-- Node2 -->
<g id="node2" class="node">
<title>Node2</title>
<g id="a_node2"><a xlink:href="classhal_1_1counter__timeout.html#aca5b940f8e89106b393fb34cb61aff14" target="_top" xlink:title="Create a counter_timeout.">
<polygon fill="white" stroke="black" points="240,-264.5 240,-294.5 344,-294.5 344,-264.5 240,-264.5"/>
<text text-anchor="start" x="248" y="-282.5" font-family="Helvetica,sans-Serif" font-size="10.00">hal::counter_timeout</text>
<text text-anchor="middle" x="292" y="-271.5" font-family="Helvetica,sans-Serif" font-size="10.00">::create</text>
</a>
</g>
</g>
<!-- Node1&#45;&gt;Node2 -->
<g id="edge1" class="edge">
<title>Node1&#45;&gt;Node2</title>
<path fill="none" stroke="midnightblue" d="M418.8,-166.23C406.49,-188.5 383.41,-225.64 355,-249.5 348.13,-255.27 339.97,-260.23 331.85,-264.37"/>
<polygon fill="midnightblue" stroke="midnightblue" points="422.03,-167.62 423.68,-157.15 415.87,-164.3 422.03,-167.62"/>
</g>
<!-- Node4 -->
<g id="node4" class="node">
<title>Node4</title>
<g id="a_node4"><a xlink:href="group__counter.html#ga8b4d520b8fbf98436b255041f73b9a8d" target="_top" xlink:title="Delay execution for a duration of time using a hardware counter.">
<polygon fill="white" stroke="black" points="0,-246 0,-265 56,-265 56,-246 0,-246"/>
<text text-anchor="middle" x="28" y="-253" font-family="Helvetica,sans-Serif" font-size="10.00">hal::delay</text>
</a>
</g>
</g>
<!-- Node1&#45;&gt;Node4 -->
<g id="edge5" class="edge">
<title>Node1&#45;&gt;Node4</title>
<path fill="none" stroke="midnightblue" d="M414.68,-165.53C401.3,-181.55 379.48,-204.14 355,-215.5 301.98,-240.09 124.83,-250.95 56.35,-254.3"/>
<polygon fill="midnightblue" stroke="midnightblue" points="417.67,-167.4 421.21,-157.42 412.22,-163.01 417.67,-167.4"/>
</g>
<!-- Node5 -->
<g id="node5" class="node">
<title>Node5</title>
<g id="a_node5"><a xlink:href="group__utility.html#gad3e3226fbdfad6db38eb093f1420489c" target="_top" xlink:title="Calculate the amount of time it takes a frequency to oscillate a number of cycles.">
<polygon fill="white" stroke="black" points="245.5,-176.5 245.5,-206.5 338.5,-206.5 338.5,-176.5 245.5,-176.5"/>
<text text-anchor="start" x="253.5" y="-194.5" font-family="Helvetica,sans-Serif" font-size="10.00">hal::duration_from</text>
<text text-anchor="middle" x="292" y="-183.5" font-family="Helvetica,sans-Serif" font-size="10.00">_cycles</text>
</a>
</g>
</g>
<!-- Node1&#45;&gt;Node5 -->
<g id="edge6" class="edge">
<title>Node1&#45;&gt;Node5</title>
<path fill="none" stroke="midnightblue" d="M389.57,-160.14C373.66,-165.31 355.14,-171.32 338.6,-176.69"/>
<polygon fill="midnightblue" stroke="midnightblue" points="390.67,-163.46 399.1,-157.05 388.51,-156.81 390.67,-163.46"/>
</g>
<!-- Node7 -->
<g id="node7" class="node">
<title>Node7</title>
<g id="a_node7"><a xlink:href="group__utility.html#ga43fd2fa3493be5292dc4ea824e944d90" target="_top" xlink:title="Perform multiply operation and return an error code std::errc::result_out_of_range if the two values ...">
<polygon fill="white" stroke="black" points="258.5,-138 258.5,-157 325.5,-157 325.5,-138 258.5,-138"/>
<text text-anchor="middle" x="292" y="-145" font-family="Helvetica,sans-Serif" font-size="10.00">hal::multiply</text>
</a>
</g>
</g>
<!-- Node1&#45;&gt;Node7 -->
<g id="edge8" class="edge">
<title>Node1&#45;&gt;Node7</title>
<path fill="none" stroke="midnightblue" d="M380.67,-147.5C362.56,-147.5 342.37,-147.5 325.94,-147.5"/>
<polygon fill="midnightblue" stroke="midnightblue" points="380.76,-151 390.76,-147.5 380.76,-144 380.76,-151"/>
</g>
<!-- Node8 -->
<g id="node8" class="node">
<title>Node8</title>
<g id="a_node8"><a xlink:href="classhal_1_1counter__timeout.html#a7f1f5f55749d89dcc65d423cf702de3b" target="_top" xlink:title="Call this object to check if it has timed out.">
<polygon fill="white" stroke="black" points="240,-88.5 240,-118.5 344,-118.5 344,-88.5 240,-88.5"/>
<text text-anchor="start" x="248" y="-106.5" font-family="Helvetica,sans-Serif" font-size="10.00">hal::counter_timeout</text>
<text text-anchor="middle" x="292" y="-95.5" font-family="Helvetica,sans-Serif" font-size="10.00">::operator()</text>
</a>
</g>
</g>
<!-- Node1&#45;&gt;Node8 -->
<g id="edge10" class="edge">
<title>Node1&#45;&gt;Node8</title>
<path fill="none" stroke="midnightblue" d="M389.26,-134.76C373.67,-129.7 355.62,-123.83 339.39,-118.57"/>
<polygon fill="midnightblue" stroke="midnightblue" points="388.51,-138.19 399.1,-137.95 390.67,-131.54 388.51,-138.19"/>
</g>
<!-- Node9 -->
<g id="node9" class="node">
<title>Node9</title>
<g id="a_node9"><a xlink:href="classhal_1_1spy__handler.html#ab2ed5f0197c8aa76f896815225779b0a" target="_top" xlink:title="Record the arguments of a function being spied on.">
<polygon fill="white" stroke="black" points="233.5,-50 233.5,-69 350.5,-69 350.5,-50 233.5,-50"/>
<text text-anchor="middle" x="292" y="-57" font-family="Helvetica,sans-Serif" font-size="10.00">hal::spy_handler::record</text>
</a>
</g>
</g>
<!-- Node1&#45;&gt;Node9 -->
<g id="edge11" class="edge">
<title>Node1&#45;&gt;Node9</title>
<path fill="none" stroke="midnightblue" d="M413.78,-129.67C400.05,-114.12 378.25,-91.98 355,-78.5 348.48,-74.72 341.12,-71.61 333.81,-69.09"/>
<polygon fill="midnightblue" stroke="midnightblue" points="411.36,-132.23 420.53,-137.54 416.68,-127.68 411.36,-132.23"/>
</g>
<!-- Node10 -->
<g id="node10" class="node">
<title>Node10</title>
<g id="a_node10"><a xlink:href="classhal_1_1can__network.html#a05e6dc010a762511bb4d459ee55d42ac" target="_top" xlink:title="Associate a can id with a node in the can network.">
<polygon fill="white" stroke="black" points="229,-0.5 229,-30.5 355,-30.5 355,-0.5 229,-0.5"/>
<text text-anchor="start" x="237" y="-18.5" font-family="Helvetica,sans-Serif" font-size="10.00">hal::can_network::register</text>
<text text-anchor="middle" x="292" y="-7.5" font-family="Helvetica,sans-Serif" font-size="10.00">_message_id</text>
</a>
</g>
</g>
<!-- Node1&#45;&gt;Node10 -->
<g id="edge12" class="edge">
<title>Node1&#45;&gt;Node10</title>
<path fill="none" stroke="midnightblue" d="M419.82,-128.53C408.15,-104.94 385.32,-64.82 355,-40.5 350.29,-36.72 344.94,-33.45 339.4,-30.63"/>
<polygon fill="midnightblue" stroke="midnightblue" points="416.78,-130.3 424.25,-137.81 423.1,-127.28 416.78,-130.3"/>
</g>
<!-- Node3 -->
<g id="node3" class="node">
<title>Node3</title>
<g id="a_node3"><a xlink:href="group__counter.html#ga0f73c780e3eb7b86be65a1746ccc1c95" target="_top" xlink:title="Create a timeout object based on hal::counter.">
<polygon fill="white" stroke="black" points="93.5,-267 93.5,-286 191.5,-286 191.5,-267 93.5,-267"/>
<text text-anchor="middle" x="142.5" y="-274" font-family="Helvetica,sans-Serif" font-size="10.00">hal::create_timeout</text>
</a>
</g>
</g>
<!-- Node2&#45;&gt;Node3 -->
<g id="edge2" class="edge">
<title>Node2&#45;&gt;Node3</title>
<path fill="none" stroke="midnightblue" d="M229.76,-278.25C217.03,-278 203.79,-277.73 191.61,-277.48"/>
<polygon fill="midnightblue" stroke="midnightblue" points="229.76,-281.75 239.83,-278.46 229.9,-274.76 229.76,-281.75"/>
</g>
<!-- Node3&#45;&gt;Node4 -->
<g id="edge3" class="edge">
<title>Node3&#45;&gt;Node4</title>
<path fill="none" stroke="midnightblue" d="M83.51,-265.68C73.94,-263.89 64.43,-262.11 56.1,-260.56"/>
<polygon fill="midnightblue" stroke="midnightblue" points="82.99,-269.14 93.46,-267.53 84.28,-262.26 82.99,-269.14"/>
</g>
<!-- Node4&#45;&gt;Node4 -->
<g id="edge4" class="edge">
<title>Node4&#45;&gt;Node4</title>
<path fill="none" stroke="midnightblue" d="M49.11,-274.9C47.7,-279.81 40.66,-283.5 28,-283.5 7.74,-283.5 1.88,-274.07 10.43,-265.26"/>
<polygon fill="midnightblue" stroke="midnightblue" points="52.3,-273.44 45.57,-265.26 45.73,-275.85 52.3,-273.44"/>
</g>
<!-- Node6 -->
<g id="node6" class="node">
<title>Node6</title>
<g id="a_node6"><a xlink:href="classhal_1_1uptime__counter.html#a12132e48d7d61c26f3a2535d42d2692c" target="_top" xlink:title="Calculates the number of nanoseconds since the counter has started.">
<polygon fill="white" stroke="black" points="92,-176.5 92,-206.5 193,-206.5 193,-176.5 92,-176.5"/>
<text text-anchor="start" x="100" y="-194.5" font-family="Helvetica,sans-Serif" font-size="10.00">hal::uptime_counter</text>
<text text-anchor="middle" x="142.5" y="-183.5" font-family="Helvetica,sans-Serif" font-size="10.00">::uptime</text>
</a>
</g>
</g>
<!-- Node5&#45;&gt;Node6 -->
<g id="edge7" class="edge">
<title>Node5&#45;&gt;Node6</title>
<path fill="none" stroke="midnightblue" d="M234.85,-191.5C221.14,-191.5 206.56,-191.5 193.17,-191.5"/>
<polygon fill="midnightblue" stroke="midnightblue" points="235.14,-195 245.14,-191.5 235.14,-188 235.14,-195"/>
</g>
</g>
</svg>
