<?xml version="1.0" encoding="UTF-8" standalone="no"?>
<!DOCTYPE svg PUBLIC "-//W3C//DTD SVG 1.1//EN"
 "http://www.w3.org/Graphics/SVG/1.1/DTD/svg11.dtd">
<!-- Generated by graphviz version 3.0.0 (20220413.0242)
 -->
<!-- Title: hal::new_error Pages: 1 -->
<svg width="249pt" height="166pt"
 viewBox="0.00 0.00 249.00 165.50" xmlns="http://www.w3.org/2000/svg" xmlns:xlink="http://www.w3.org/1999/xlink">
<g id="graph0" class="graph" transform="scale(1 1) rotate(0) translate(4 161.5)">
<title>hal::new_error</title>
<polygon fill="white" stroke="transparent" points="-4,4 -4,-161.5 245,-161.5 245,4 -4,4"/>
<!-- Node1 -->
<g id="node1" class="node">
<title>Node1</title>
<g id="a_node1"><a xlink:title=" ">
<polygon fill="#bfbfbf" stroke="black" points="164,-66.5 164,-85.5 241,-85.5 241,-66.5 164,-66.5"/>
<text text-anchor="middle" x="202.5" y="-73.5" font-family="Helvetica,sans-Serif" font-size="10.00">hal::new_error</text>
</a>
</g>
</g>
<!-- Node1&#45;&gt;Node1 -->
<g id="edge3" class="edge">
<title>Node1&#45;&gt;Node1</title>
<path fill="none" stroke="midnightblue" d="M228.17,-95.03C226.77,-100.13 218.21,-104 202.5,-104 177.97,-104 170.88,-94.57 181.23,-85.76"/>
<polygon fill="midnightblue" stroke="midnightblue" points="231.22,-93.29 223.77,-85.76 224.89,-96.29 231.22,-93.29"/>
</g>
<!-- Node2 -->
<g id="node2" class="node">
<title>Node2</title>
<g id="a_node2"><a xlink:href="group__utility.html#gad3e3226fbdfad6db38eb093f1420489c" target="_top" xlink:title="Calculate the amount of time it takes a frequency to oscillate a number of cycles.">
<polygon fill="white" stroke="black" points="17.5,-127 17.5,-157 110.5,-157 110.5,-127 17.5,-127"/>
<text text-anchor="start" x="25.5" y="-145" font-family="Helvetica,sans-Serif" font-size="10.00">hal::duration_from</text>
<text text-anchor="middle" x="64" y="-134" font-family="Helvetica,sans-Serif" font-size="10.00">_cycles</text>
</a>
</g>
</g>
<!-- Node1&#45;&gt;Node2 -->
<g id="edge1" class="edge">
<title>Node1&#45;&gt;Node2</title>
<path fill="none" stroke="midnightblue" d="M177.14,-90.65C163.03,-98.86 144.78,-109.03 128,-117 120.77,-120.43 112.94,-123.8 105.33,-126.91"/>
<polygon fill="midnightblue" stroke="midnightblue" points="178.92,-93.66 185.76,-85.57 175.37,-87.63 178.92,-93.66"/>
</g>
<!-- Node3 -->
<g id="node3" class="node">
<title>Node3</title>
<g id="a_node3"><a xlink:href="group__utility.html#ga43fd2fa3493be5292dc4ea824e944d90" target="_top" xlink:title="Perform multiply operation and return an error code std::errc::result_out_of_range if the two values ...">
<polygon fill="white" stroke="black" points="30.5,-88.5 30.5,-107.5 97.5,-107.5 97.5,-88.5 30.5,-88.5"/>
<text text-anchor="middle" x="64" y="-95.5" font-family="Helvetica,sans-Serif" font-size="10.00">hal::multiply</text>
</a>
</g>
</g>
<!-- Node1&#45;&gt;Node3 -->
<g id="edge2" class="edge">
<title>Node1&#45;&gt;Node3</title>
<path fill="none" stroke="midnightblue" d="M153.84,-83.68C135.36,-86.66 114.66,-90 97.89,-92.7"/>
<polygon fill="midnightblue" stroke="midnightblue" points="154.52,-87.12 163.84,-82.07 153.41,-80.21 154.52,-87.12"/>
</g>
<!-- Node4 -->
<g id="node4" class="node">
<title>Node4</title>
<g id="a_node4"><a xlink:href="classhal_1_1steady__clock__timeout.html#a32ed45d3e33492a6c5c9370edf97ac1d" target="_top" xlink:title="Call this object to check if it has timed out.">
<polygon fill="white" stroke="black" points="0,-39 0,-69 128,-69 128,-39 0,-39"/>
<text text-anchor="start" x="8" y="-57" font-family="Helvetica,sans-Serif" font-size="10.00">hal::steady_clock_timeout</text>
<text text-anchor="middle" x="64" y="-46" font-family="Helvetica,sans-Serif" font-size="10.00">::operator()</text>
</a>
</g>
</g>
<!-- Node1&#45;&gt;Node4 -->
<g id="edge4" class="edge">
<title>Node1&#45;&gt;Node4</title>
<path fill="none" stroke="midnightblue" d="M153.96,-68.34C145.64,-67 136.87,-65.58 128.21,-64.19"/>
<polygon fill="midnightblue" stroke="midnightblue" points="153.41,-71.79 163.84,-69.93 154.52,-64.88 153.41,-71.79"/>
</g>
<!-- Node5 -->
<g id="node5" class="node">
<title>Node5</title>
<g id="a_node5"><a xlink:href="classhal_1_1spy__handler.html#ab2ed5f0197c8aa76f896815225779b0a" target="_top" xlink:title="Record the arguments of a function being spied on.">
<polygon fill="white" stroke="black" points="5.5,-0.5 5.5,-19.5 122.5,-19.5 122.5,-0.5 5.5,-0.5"/>
<text text-anchor="middle" x="64" y="-7.5" font-family="Helvetica,sans-Serif" font-size="10.00">hal::spy_handler::record</text>
</a>
</g>
</g>
<!-- Node1&#45;&gt;Node5 -->
<g id="edge5" class="edge">
<title>Node1&#45;&gt;Node5</title>
<path fill="none" stroke="midnightblue" d="M179.97,-60.5C165.74,-50.77 146.38,-38.5 128,-30 119.36,-26 109.69,-22.49 100.58,-19.58"/>
<polygon fill="midnightblue" stroke="midnightblue" points="178.32,-63.62 188.53,-66.46 182.32,-57.87 178.32,-63.62"/>
</g>
</g>
</svg>
