<?xml version="1.0" encoding="UTF-8" standalone="no"?>
<!DOCTYPE svg PUBLIC "-//W3C//DTD SVG 1.1//EN"
 "http://www.w3.org/Graphics/SVG/1.1/DTD/svg11.dtd">
<!-- Generated by graphviz version 3.0.0 (20220413.0242)
 -->
<!-- Title: hal::success Pages: 1 -->
<svg width="243pt" height="78pt"
 viewBox="0.00 0.00 243.00 77.50" xmlns="http://www.w3.org/2000/svg" xmlns:xlink="http://www.w3.org/1999/xlink">
<g id="graph0" class="graph" transform="scale(1 1) rotate(0) translate(4 73.5)">
<title>hal::success</title>
<polygon fill="white" stroke="transparent" points="-4,4 -4,-73.5 239,-73.5 239,4 -4,4"/>
<!-- Node1 -->
<g id="node1" class="node">
<title>Node1</title>
<g id="a_node1"><a xlink:title="a readability function for returning successful results;">
<polygon fill="#bfbfbf" stroke="black" points="164,-22.5 164,-41.5 235,-41.5 235,-22.5 164,-22.5"/>
<text text-anchor="middle" x="199.5" y="-29.5" font-family="Helvetica,sans-Serif" font-size="10.00">hal::success</text>
</a>
</g>
</g>
<!-- Node2 -->
<g id="node2" class="node">
<title>Node2</title>
<g id="a_node2"><a xlink:href="classhal_1_1steady__clock__timeout.html#a32ed45d3e33492a6c5c9370edf97ac1d" target="_top" xlink:title="Call this object to check if it has timed out.">
<polygon fill="white" stroke="black" points="0,-39 0,-69 128,-69 128,-39 0,-39"/>
<text text-anchor="start" x="8" y="-57" font-family="Helvetica,sans-Serif" font-size="10.00">hal::steady_clock_timeout</text>
<text text-anchor="middle" x="64" y="-46" font-family="Helvetica,sans-Serif" font-size="10.00">::operator()</text>
</a>
</g>
</g>
<!-- Node1&#45;&gt;Node2 -->
<g id="edge1" class="edge">
<title>Node1&#45;&gt;Node2</title>
<path fill="none" stroke="midnightblue" d="M153.65,-39.39C145.41,-40.75 136.66,-42.19 128.01,-43.62"/>
<polygon fill="midnightblue" stroke="midnightblue" points="154.48,-42.8 163.77,-37.72 153.34,-35.9 154.48,-42.8"/>
</g>
<!-- Node3 -->
<g id="node3" class="node">
<title>Node3</title>
<g id="a_node3"><a xlink:href="group__serial.html#ga9686cb634f86ed068a43ea5bb5224073" target="_top" xlink:title="Write bytes to a serial port.">
<polygon fill="white" stroke="black" points="36.5,-0.5 36.5,-19.5 91.5,-19.5 91.5,-0.5 36.5,-0.5"/>
<text text-anchor="middle" x="64" y="-7.5" font-family="Helvetica,sans-Serif" font-size="10.00">hal::write</text>
</a>
</g>
</g>
<!-- Node1&#45;&gt;Node3 -->
<g id="edge2" class="edge">
<title>Node1&#45;&gt;Node3</title>
<path fill="none" stroke="midnightblue" d="M153.63,-24.61C133.02,-21.21 109.27,-17.29 91.54,-14.37"/>
<polygon fill="midnightblue" stroke="midnightblue" points="153.34,-28.1 163.77,-26.28 154.48,-21.2 153.34,-28.1"/>
</g>
</g>
</svg>
