<?xml version="1.0" encoding="UTF-8" standalone="no"?>
<!DOCTYPE svg PUBLIC "-//W3C//DTD SVG 1.1//EN"
 "http://www.w3.org/Graphics/SVG/1.1/DTD/svg11.dtd">
<!-- Generated by graphviz version 3.0.0 (20220413.0242)
 -->
<!-- Title: hal::mock::pwm Pages: 1 -->
<svg width="329pt" height="106pt"
 viewBox="0.00 0.00 329.00 106.00" xmlns="http://www.w3.org/2000/svg" xmlns:xlink="http://www.w3.org/1999/xlink">
<g id="graph0" class="graph" transform="scale(1 1) rotate(0) translate(4 102)">
<title>hal::mock::pwm</title>
<polygon fill="white" stroke="transparent" points="-4,4 -4,-102 325,-102 325,4 -4,4"/>
<!-- Node1 -->
<g id="node1" class="node">
<title>Node1</title>
<g id="a_node1"><a xlink:title="Mock pwm implementation for use in unit tests and simulations with spy functions for frequency() and ...">
<polygon fill="#bfbfbf" stroke="black" points="93,-0.5 93,-19.5 176,-19.5 176,-0.5 93,-0.5"/>
<text text-anchor="middle" x="134.5" y="-7.5" font-family="Helvetica,sans-Serif" font-size="10.00">hal::mock::pwm</text>
</a>
</g>
</g>
<!-- Node2 -->
<g id="node2" class="node">
<title>Node2</title>
<g id="a_node2"><a xlink:href="classhal_1_1pwm.html" target="_top" xlink:title="Pulse Width Modulation (PWM) channel hardware abstraction.">
<polygon fill="white" stroke="black" points="0,-73 0,-92 55,-92 55,-73 0,-73"/>
<text text-anchor="middle" x="27.5" y="-80" font-family="Helvetica,sans-Serif" font-size="10.00">hal::pwm</text>
</a>
</g>
</g>
<!-- Node2&#45;&gt;Node1 -->
<g id="edge1" class="edge">
<title>Node2&#45;&gt;Node1</title>
<path fill="none" stroke="midnightblue" d="M49.14,-67.24C70.74,-53.01 103.25,-31.59 121.27,-19.72"/>
<polygon fill="midnightblue" stroke="midnightblue" points="47.05,-64.43 40.62,-72.86 50.9,-70.28 47.05,-64.43"/>
</g>
<!-- Node3 -->
<g id="node3" class="node">
<title>Node3</title>
<g id="a_node3"><a xlink:href="classhal_1_1spy__handler.html" target="_top" xlink:title=" ">
<polygon fill="white" stroke="black" points="73,-73 73,-92 196,-92 196,-73 73,-73"/>
<text text-anchor="middle" x="134.5" y="-80" font-family="Helvetica,sans-Serif" font-size="10.00">hal::spy_handler&lt; hertz &gt;</text>
</a>
</g>
</g>
<!-- Node3&#45;&gt;Node1 -->
<g id="edge2" class="edge">
<title>Node3&#45;&gt;Node1</title>
<path fill="none" stroke="#9a32cd" stroke-dasharray="5,2" d="M134.5,-62.44C134.5,-48.53 134.5,-30.32 134.5,-19.72"/>
<polygon fill="#9a32cd" stroke="#9a32cd" points="131,-62.86 134.5,-72.86 138,-62.86 131,-62.86"/>
<text text-anchor="middle" x="167" y="-41" font-family="Helvetica,sans-Serif" font-size="10.00"> spy_frequency</text>
</g>
<!-- Node4 -->
<g id="node4" class="node">
<title>Node4</title>
<g id="a_node4"><a xlink:href="classhal_1_1spy__handler.html" target="_top" xlink:title=" ">
<polygon fill="white" stroke="black" points="214,-67.5 214,-97.5 321,-97.5 321,-67.5 214,-67.5"/>
<text text-anchor="start" x="222" y="-85.5" font-family="Helvetica,sans-Serif" font-size="10.00">hal::spy_handler&lt; hal</text>
<text text-anchor="middle" x="267.5" y="-74.5" font-family="Helvetica,sans-Serif" font-size="10.00">::percentage_t &gt;</text>
</a>
</g>
</g>
<!-- Node4&#45;&gt;Node1 -->
<g id="edge3" class="edge">
<title>Node4&#45;&gt;Node1</title>
<path fill="none" stroke="#9a32cd" stroke-dasharray="5,2" d="M240.72,-61.32C229.56,-53.45 216.25,-44.72 203.5,-38 189.73,-30.74 173.56,-24.32 160.34,-19.55"/>
<polygon fill="#9a32cd" stroke="#9a32cd" points="238.99,-64.4 249.15,-67.4 243.08,-58.72 238.99,-64.4"/>
<text text-anchor="middle" x="256" y="-41" font-family="Helvetica,sans-Serif" font-size="10.00"> spy_duty_cycle</text>
</g>
</g>
</svg>
