<?xml version="1.0" encoding="UTF-8" standalone="no"?>
<!DOCTYPE svg PUBLIC "-//W3C//DTD SVG 1.1//EN"
 "http://www.w3.org/Graphics/SVG/1.1/DTD/svg11.dtd">
<!-- Generated by graphviz version 3.0.0 (20220413.0242)
 -->
<!-- Title: hal::mock::dac Pages: 1 -->
<svg width="196pt" height="95pt"
 viewBox="0.00 0.00 196.00 95.00" xmlns="http://www.w3.org/2000/svg" xmlns:xlink="http://www.w3.org/1999/xlink">
<g id="graph0" class="graph" transform="scale(1 1) rotate(0) translate(4 91)">
<title>hal::mock::dac</title>
<polygon fill="white" stroke="transparent" points="-4,4 -4,-91 192,-91 192,4 -4,4"/>
<!-- Node1 -->
<g id="node1" class="node">
<title>Node1</title>
<g id="a_node1"><a xlink:title="Mock dac implementation for use in unit tests and simulations with a spy function for write()">
<polygon fill="#bfbfbf" stroke="black" points="37,-0.5 37,-19.5 115,-19.5 115,-0.5 37,-0.5"/>
<text text-anchor="middle" x="76" y="-7.5" font-family="Helvetica,sans-Serif" font-size="10.00">hal::mock::dac</text>
</a>
</g>
</g>
<!-- Node2 -->
<g id="node2" class="node">
<title>Node2</title>
<g id="a_node2"><a xlink:href="classhal_1_1dac.html" target="_top" xlink:title="Digital to Analog Converter (DAC) hardware abstraction interface.">
<polygon fill="white" stroke="black" points="0,-67.5 0,-86.5 50,-86.5 50,-67.5 0,-67.5"/>
<text text-anchor="middle" x="25" y="-74.5" font-family="Helvetica,sans-Serif" font-size="10.00">hal::dac</text>
</a>
</g>
</g>
<!-- Node2&#45;&gt;Node1 -->
<g id="edge1" class="edge">
<title>Node2&#45;&gt;Node1</title>
<path fill="none" stroke="midnightblue" d="M38.13,-59.27C48.07,-46.6 61.33,-29.7 69.23,-19.63"/>
<polygon fill="midnightblue" stroke="midnightblue" points="35.3,-57.21 31.88,-67.23 40.8,-61.53 35.3,-57.21"/>
</g>
<!-- Node3 -->
<g id="node3" class="node">
<title>Node3</title>
<g id="a_node3"><a xlink:href="classhal_1_1spy__handler.html" target="_top" xlink:title=" ">
<polygon fill="white" stroke="black" points="68,-67.5 68,-86.5 188,-86.5 188,-67.5 68,-67.5"/>
<text text-anchor="middle" x="128" y="-74.5" font-family="Helvetica,sans-Serif" font-size="10.00">hal::spy_handler&lt; float &gt;</text>
</a>
</g>
</g>
<!-- Node3&#45;&gt;Node1 -->
<g id="edge2" class="edge">
<title>Node3&#45;&gt;Node1</title>
<path fill="none" stroke="#9a32cd" stroke-dasharray="5,2" d="M114.62,-59.27C104.48,-46.6 90.96,-29.7 82.9,-19.63"/>
<polygon fill="#9a32cd" stroke="#9a32cd" points="112.01,-61.61 120.99,-67.23 117.47,-57.24 112.01,-61.61"/>
<text text-anchor="middle" x="127" y="-41" font-family="Helvetica,sans-Serif" font-size="10.00"> spy_write</text>
</g>
</g>
</svg>
