<?xml version="1.0" encoding="UTF-8" standalone="no"?>
<!DOCTYPE svg PUBLIC "-//W3C//DTD SVG 1.1//EN"
 "http://www.w3.org/Graphics/SVG/1.1/DTD/svg11.dtd">
<!-- Generated by graphviz version 3.0.0 (20220413.0242)
 -->
<!-- Title: hal::mock::pwm Pages: 1 -->
<svg width="343pt" height="95pt"
 viewBox="0.00 0.00 342.50 95.00" xmlns="http://www.w3.org/2000/svg" xmlns:xlink="http://www.w3.org/1999/xlink">
<g id="graph0" class="graph" transform="scale(1 1) rotate(0) translate(4 91)">
<title>hal::mock::pwm</title>
<polygon fill="white" stroke="transparent" points="-4,4 -4,-91 338.5,-91 338.5,4 -4,4"/>
<!-- Node1 -->
<g id="node1" class="node">
<title>Node1</title>
<g id="a_node1"><a xlink:title="Mock pwm implementation for use in unit tests and simulations with spy functions for frequency() and ...">
<polygon fill="#bfbfbf" stroke="black" points="93,-0.5 93,-19.5 176,-19.5 176,-0.5 93,-0.5"/>
<text text-anchor="middle" x="134.5" y="-7.5" font-family="Helvetica,sans-Serif" font-size="10.00">hal::mock::pwm</text>
</a>
</g>
</g>
<!-- Node2 -->
<g id="node2" class="node">
<title>Node2</title>
<g id="a_node2"><a xlink:href="classhal_1_1pwm.html" target="_top" xlink:title="Pulse Width Modulation (PWM) channel hardware abstraction.">
<polygon fill="white" stroke="black" points="0,-67.5 0,-86.5 55,-86.5 55,-67.5 0,-67.5"/>
<text text-anchor="middle" x="27.5" y="-74.5" font-family="Helvetica,sans-Serif" font-size="10.00">hal::pwm</text>
</a>
</g>
</g>
<!-- Node2&#45;&gt;Node1 -->
<g id="edge1" class="edge">
<title>Node2&#45;&gt;Node1</title>
<path fill="none" stroke="midnightblue" d="M50.64,-61.94C71.83,-49.07 102.52,-30.43 120.3,-19.63"/>
<polygon fill="midnightblue" stroke="midnightblue" points="48.66,-59.05 41.93,-67.23 52.29,-65.03 48.66,-59.05"/>
</g>
<!-- Node3 -->
<g id="node3" class="node">
<title>Node3</title>
<g id="a_node3"><a xlink:href="classhal_1_1spy__handler.html" target="_top" xlink:title=" ">
<polygon fill="white" stroke="black" points="73,-67.5 73,-86.5 196,-86.5 196,-67.5 73,-67.5"/>
<text text-anchor="middle" x="134.5" y="-74.5" font-family="Helvetica,sans-Serif" font-size="10.00">hal::spy_handler&lt; hertz &gt;</text>
</a>
</g>
</g>
<!-- Node3&#45;&gt;Node1 -->
<g id="edge2" class="edge">
<title>Node3&#45;&gt;Node1</title>
<path fill="none" stroke="#9a32cd" stroke-dasharray="5,2" d="M134.5,-57.04C134.5,-44.67 134.5,-29.12 134.5,-19.63"/>
<polygon fill="#9a32cd" stroke="#9a32cd" points="131,-57.23 134.5,-67.23 138,-57.23 131,-57.23"/>
<text text-anchor="middle" x="167" y="-41" font-family="Helvetica,sans-Serif" font-size="10.00"> spy_frequency</text>
</g>
<!-- Node4 -->
<g id="node4" class="node">
<title>Node4</title>
<g id="a_node4"><a xlink:href="classhal_1_1spy__handler.html" target="_top" xlink:title=" ">
<polygon fill="white" stroke="black" points="214.5,-67.5 214.5,-86.5 334.5,-86.5 334.5,-67.5 214.5,-67.5"/>
<text text-anchor="middle" x="274.5" y="-74.5" font-family="Helvetica,sans-Serif" font-size="10.00">hal::spy_handler&lt; float &gt;</text>
</a>
</g>
</g>
<!-- Node4&#45;&gt;Node1 -->
<g id="edge3" class="edge">
<title>Node4&#45;&gt;Node1</title>
<path fill="none" stroke="#9a32cd" stroke-dasharray="5,2" d="M251.05,-62.54C237.38,-54.93 219.69,-45.47 203.5,-38 188.78,-31.21 171.84,-24.56 158.42,-19.56"/>
<polygon fill="#9a32cd" stroke="#9a32cd" points="249.37,-65.62 259.8,-67.47 252.8,-59.52 249.37,-65.62"/>
<text text-anchor="middle" x="259" y="-41" font-family="Helvetica,sans-Serif" font-size="10.00"> spy_duty_cycle</text>
</g>
</g>
</svg>
