<?xml version="1.0" encoding="UTF-8" standalone="no"?>
<!DOCTYPE svg PUBLIC "-//W3C//DTD SVG 1.1//EN"
 "http://www.w3.org/Graphics/SVG/1.1/DTD/svg11.dtd">
<!-- Generated by graphviz version 3.0.0 (20220413.0242)
 -->
<!-- Title: hal::mock::interrupt_pin Pages: 1 -->
<svg width="363pt" height="116pt"
 viewBox="0.00 0.00 363.00 115.50" xmlns="http://www.w3.org/2000/svg" xmlns:xlink="http://www.w3.org/1999/xlink">
<g id="graph0" class="graph" transform="scale(1 1) rotate(0) translate(4 111.5)">
<title>hal::mock::interrupt_pin</title>
<polygon fill="white" stroke="transparent" points="-4,4 -4,-111.5 359,-111.5 359,4 -4,4"/>
<!-- Node1 -->
<g id="node1" class="node">
<title>Node1</title>
<g id="a_node1"><a xlink:title="mock interrupt_pin implementation for use in unit tests and simulations.">
<polygon fill="#bfbfbf" stroke="black" points="239,-50 239,-69 355,-69 355,-50 239,-50"/>
<text text-anchor="middle" x="297" y="-57" font-family="Helvetica,sans-Serif" font-size="10.00">hal::mock::interrupt_pin</text>
</a>
</g>
</g>
<!-- Node2 -->
<g id="node2" class="node">
<title>Node2</title>
<g id="a_node2"><a xlink:href="classhal_1_1interrupt__pin.html" target="_top" xlink:title="Digital interrupt pin hardware abstraction.">
<polygon fill="white" stroke="black" points="25,-88 25,-107 112,-107 112,-88 25,-88"/>
<text text-anchor="middle" x="68.5" y="-95" font-family="Helvetica,sans-Serif" font-size="10.00">hal::interrupt_pin</text>
</a>
</g>
</g>
<!-- Node2&#45;&gt;Node1 -->
<g id="edge1" class="edge">
<title>Node2&#45;&gt;Node1</title>
<path fill="none" stroke="midnightblue" d="M122.02,-90.14C151.22,-85.9 188.19,-80.27 221,-74.5 230.42,-72.84 240.47,-70.93 250.05,-69.04"/>
<polygon fill="midnightblue" stroke="midnightblue" points="121.43,-86.69 112.03,-91.58 122.43,-93.62 121.43,-86.69"/>
</g>
<!-- Node3 -->
<g id="node3" class="node">
<title>Node3</title>
<g id="a_node3"><a xlink:href="classhal_1_1spy__handler.html" target="_top" xlink:title=" ">
<polygon fill="white" stroke="black" points="0,-50 0,-69 137,-69 137,-50 0,-50"/>
<text text-anchor="middle" x="68.5" y="-57" font-family="Helvetica,sans-Serif" font-size="10.00">hal::spy_handler&lt; settings &gt;</text>
</a>
</g>
</g>
<!-- Node3&#45;&gt;Node1 -->
<g id="edge2" class="edge">
<title>Node3&#45;&gt;Node1</title>
<path fill="none" stroke="#9a32cd" stroke-dasharray="5,2" d="M147.17,-59.5C177.18,-59.5 210.89,-59.5 238.64,-59.5"/>
<polygon fill="#9a32cd" stroke="#9a32cd" points="147.15,-56 137.15,-59.5 147.15,-63 147.15,-56"/>
<text text-anchor="middle" x="188" y="-62.5" font-family="Helvetica,sans-Serif" font-size="10.00"> spy_configure</text>
</g>
<!-- Node4 -->
<g id="node4" class="node">
<title>Node4</title>
<g id="a_node4"><a xlink:title=" ">
<polygon fill="white" stroke="black" points="12.5,-0.5 12.5,-30.5 124.5,-30.5 124.5,-0.5 12.5,-0.5"/>
<text text-anchor="start" x="20.5" y="-18.5" font-family="Helvetica,sans-Serif" font-size="10.00">hal::spy_handler&lt; std</text>
<text text-anchor="middle" x="68.5" y="-7.5" font-family="Helvetica,sans-Serif" font-size="10.00">::function&lt; handler &gt; &gt;</text>
</a>
</g>
</g>
<!-- Node4&#45;&gt;Node1 -->
<g id="edge3" class="edge">
<title>Node4&#45;&gt;Node1</title>
<path fill="none" stroke="#9a32cd" stroke-dasharray="5,2" d="M134.6,-27.84C161.37,-32.95 192.69,-38.96 221,-44.5 229.99,-46.26 239.58,-48.16 248.8,-50"/>
<polygon fill="#9a32cd" stroke="#9a32cd" points="135.05,-24.36 124.57,-25.93 133.74,-31.24 135.05,-24.36"/>
<text text-anchor="middle" x="188" y="-47.5" font-family="Helvetica,sans-Serif" font-size="10.00"> spy_on_trigger</text>
</g>
</g>
</svg>
