<?xml version="1.0" encoding="UTF-8" standalone="no"?>
<!DOCTYPE svg PUBLIC "-//W3C//DTD SVG 1.1//EN"
 "http://www.w3.org/Graphics/SVG/1.1/DTD/svg11.dtd">
<!-- Generated by graphviz version 3.0.0 (20220413.0242)
 -->
<!-- Title: hal::mock::can Pages: 1 -->
<svg width="342pt" height="154pt"
 viewBox="0.00 0.00 342.00 153.50" xmlns="http://www.w3.org/2000/svg" xmlns:xlink="http://www.w3.org/1999/xlink">
<g id="graph0" class="graph" transform="scale(1 1) rotate(0) translate(4 149.5)">
<title>hal::mock::can</title>
<polygon fill="white" stroke="transparent" points="-4,4 -4,-149.5 338,-149.5 338,4 -4,4"/>
<!-- Node1 -->
<g id="node1" class="node">
<title>Node1</title>
<g id="a_node1"><a xlink:title="Mock can implementation for use in unit tests and simulations.">
<polygon fill="#bfbfbf" stroke="black" points="256,-69 256,-88 334,-88 334,-69 256,-69"/>
<text text-anchor="middle" x="295" y="-76" font-family="Helvetica,sans-Serif" font-size="10.00">hal::mock::can</text>
</a>
</g>
</g>
<!-- Node2 -->
<g id="node2" class="node">
<title>Node2</title>
<g id="a_node2"><a xlink:href="classhal_1_1can.html" target="_top" xlink:title="Controller Area Network (CAN bus) hardware abstraction interface.">
<polygon fill="white" stroke="black" points="50,-126 50,-145 100,-145 100,-126 50,-126"/>
<text text-anchor="middle" x="75" y="-133" font-family="Helvetica,sans-Serif" font-size="10.00">hal::can</text>
</a>
</g>
</g>
<!-- Node2&#45;&gt;Node1 -->
<g id="edge1" class="edge">
<title>Node2&#45;&gt;Node1</title>
<path fill="none" stroke="midnightblue" d="M110.12,-131.04C143.3,-126.17 194.85,-117.2 238,-103.5 250.89,-99.41 264.77,-93.22 275.49,-88.03"/>
<polygon fill="midnightblue" stroke="midnightblue" points="109.44,-127.6 100.03,-132.48 110.42,-134.53 109.44,-127.6"/>
</g>
<!-- Node3 -->
<g id="node3" class="node">
<title>Node3</title>
<g id="a_node3"><a xlink:href="classhal_1_1spy__handler.html" target="_top" xlink:title=" ">
<polygon fill="white" stroke="black" points="6.5,-88 6.5,-107 143.5,-107 143.5,-88 6.5,-88"/>
<text text-anchor="middle" x="75" y="-95" font-family="Helvetica,sans-Serif" font-size="10.00">hal::spy_handler&lt; settings &gt;</text>
</a>
</g>
</g>
<!-- Node3&#45;&gt;Node1 -->
<g id="edge2" class="edge">
<title>Node3&#45;&gt;Node1</title>
<path fill="none" stroke="#9a32cd" stroke-dasharray="5,2" d="M153.88,-90.71C188.5,-87.7 227.68,-84.28 255.79,-81.83"/>
<polygon fill="#9a32cd" stroke="#9a32cd" points="153.44,-87.24 143.78,-91.59 154.05,-94.21 153.44,-87.24"/>
<text text-anchor="middle" x="203" y="-91.5" font-family="Helvetica,sans-Serif" font-size="10.00"> spy_configure</text>
</g>
<!-- Node4 -->
<g id="node4" class="node">
<title>Node4</title>
<g id="a_node4"><a xlink:href="classhal_1_1spy__handler.html" target="_top" xlink:title=" ">
<polygon fill="white" stroke="black" points="0,-50 0,-69 150,-69 150,-50 0,-50"/>
<text text-anchor="middle" x="75" y="-57" font-family="Helvetica,sans-Serif" font-size="10.00">hal::spy_handler&lt; message_t &gt;</text>
</a>
</g>
</g>
<!-- Node4&#45;&gt;Node1 -->
<g id="edge3" class="edge">
<title>Node4&#45;&gt;Node1</title>
<path fill="none" stroke="#9a32cd" stroke-dasharray="5,2" d="M160.54,-62.26C185.54,-63.59 212.92,-65.57 238,-68.5 243.79,-69.17 249.88,-70.07 255.83,-71.05"/>
<polygon fill="#9a32cd" stroke="#9a32cd" points="160.52,-58.75 150.36,-61.74 160.17,-65.74 160.52,-58.75"/>
<text text-anchor="middle" x="203" y="-71.5" font-family="Helvetica,sans-Serif" font-size="10.00"> spy_send</text>
</g>
<!-- Node5 -->
<g id="node5" class="node">
<title>Node5</title>
<g id="a_node5"><a xlink:title=" ">
<polygon fill="white" stroke="black" points="19,-0.5 19,-30.5 131,-30.5 131,-0.5 19,-0.5"/>
<text text-anchor="start" x="27" y="-18.5" font-family="Helvetica,sans-Serif" font-size="10.00">hal::spy_handler&lt; std</text>
<text text-anchor="middle" x="75" y="-7.5" font-family="Helvetica,sans-Serif" font-size="10.00">::function&lt; handler &gt; &gt;</text>
</a>
</g>
</g>
<!-- Node5&#45;&gt;Node1 -->
<g id="edge4" class="edge">
<title>Node5&#45;&gt;Node1</title>
<path fill="none" stroke="#9a32cd" stroke-dasharray="5,2" d="M141.12,-23.63C171.2,-28.58 207.03,-36.19 238,-47.5 252.82,-52.92 268.43,-61.86 279.39,-68.75"/>
<polygon fill="#9a32cd" stroke="#9a32cd" points="141.57,-20.16 131.15,-22.06 140.48,-27.08 141.57,-20.16"/>
<text text-anchor="middle" x="203" y="-50.5" font-family="Helvetica,sans-Serif" font-size="10.00"> spy_on_receive</text>
</g>
</g>
</svg>
